<svg width="24" height="24" viewBox="0 0 24 24" fill="none" xmlns="http://www.w3.org/2000/svg">
<g id="Iconex/Broken/Calendar">
<g id="Calendar">
<path id="Rectangle 2" d="M5.04338 5.80581C5.41551 5.39772 5.38637 4.76523 4.97828 4.39309C4.57019 4.02096 3.9377 4.05011 3.56556 4.4582L5.04338 5.80581ZM8 4.5C8.0061 4.5 8.0122 4.5 8.01829 4.5C8.02438 4.5 8.03047 4.5 8.03655 4.5C8.04263 4.5 8.04871 4.5 8.05478 4.5C8.06085 4.5 8.06691 4.5 8.07297 4.5C8.07903 4.5 8.08509 4.5 8.09114 4.5C8.09719 4.5 8.10323 4.5 8.10927 4.5C8.11531 4.5 8.12135 4.5 8.12738 4.5C8.13341 4.5 8.13943 4.5 8.14545 4.5C8.15147 4.5 8.15749 4.5 8.1635 4.5C8.1695 4.5 8.17551 4.5 8.18151 4.5C8.18751 4.5 8.1935 4.5 8.19949 4.5C8.20548 4.5 8.21146 4.5 8.21744 4.5C8.22342 4.5 8.2294 4.5 8.23537 4.5C8.24134 4.5 8.2473 4.5 8.25326 4.5C8.25922 4.5 8.26517 4.5 8.27112 4.5C8.27707 4.5 8.28302 4.5 8.28896 4.5C8.2949 4.5 8.30083 4.5 8.30676 4.5C8.31269 4.5 8.31861 4.5 8.32453 4.5C8.33045 4.5 8.33637 4.5 8.34228 4.5C8.34819 4.5 8.3541 4.5 8.36 4.5C8.3659 4.5 8.37179 4.5 8.37768 4.5C8.38358 4.5 8.38946 4.5 8.39534 4.5C8.40122 4.5 8.4071 4.5 8.41297 4.5C8.41885 4.5 8.42471 4.5 8.43057 4.5C8.43644 4.5 8.44229 4.5 8.44815 4.5C8.454 4.5 8.45985 4.5 8.46569 4.5C8.47154 4.5 8.47737 4.5 8.48321 4.5C8.48904 4.5 8.49487 4.5 8.5007 4.5C8.50652 4.5 8.51234 4.5 8.51816 4.5C8.52397 4.5 8.52978 4.5 8.53559 4.5C8.5414 4.5 8.5472 4.5 8.55299 4.5C8.55879 4.5 8.56458 4.5 8.57037 4.5C8.57616 4.5 8.58194 4.5 8.58772 4.5C8.5935 4.5 8.59927 4.5 8.60504 4.5C8.61081 4.5 8.61658 4.5 8.62234 4.5C8.6281 4.5 8.63385 4.5 8.63961 4.5C8.64536 4.5 8.6511 4.5 8.65685 4.5C8.66259 4.5 8.66833 4.5 8.67406 4.5C8.67979 4.5 8.68552 4.5 8.69125 4.5C8.69697 4.5 8.70269 4.5 8.70841 4.5C8.71413 4.5 8.71984 4.5 8.72554 4.5C8.73125 4.5 8.73695 4.5 8.74265 4.5C8.74835 4.5 8.75404 4.5 8.75973 4.5C8.76542 4.5 8.77111 4.5 8.77679 4.5C8.78247 4.5 8.78815 4.5 8.79382 4.5C8.79949 4.5 8.80516 4.5 8.81082 4.5C8.81648 4.5 8.82214 4.5 8.8278 4.5C8.83345 4.5 8.8391 4.5 8.84475 4.5C8.8504 4.5 8.85604 4.5 8.86168 4.5C8.86731 4.5 8.87295 4.5 8.87858 4.5C8.88421 4.5 8.88983 4.5 8.89545 4.5C8.90107 4.5 8.90669 4.5 8.9123 4.5C8.91792 4.5 8.92353 4.5 8.92913 4.5C8.93473 4.5 8.94033 4.5 8.94593 4.5C8.95153 4.5 8.95712 4.5 8.96271 4.5C8.96829 4.5 8.97388 4.5 8.97946 4.5C8.98504 4.5 8.99061 4.5 8.99618 4.5C9.00176 4.5 9.00732 4.5 9.01289 4.5C9.01845 4.5 9.02401 4.5 9.02956 4.5C9.03512 4.5 9.04067 4.5 9.04622 4.5C9.05177 4.5 9.05731 4.5 9.06285 4.5C9.06839 4.5 9.07392 4.5 9.07945 4.5C9.08499 4.5 9.09051 4.5 9.09604 4.5C9.10156 4.5 9.10708 4.5 9.11259 4.5C9.11811 4.5 9.12362 4.5 9.12913 4.5C9.13464 4.5 9.14014 4.5 9.14564 4.5C9.15114 4.5 9.15664 4.5 9.16213 4.5C9.16762 4.5 9.17311 4.5 9.17859 4.5C9.18408 4.5 9.18956 4.5 9.19504 4.5C9.20051 4.5 9.20599 4.5 9.21145 4.5C9.21692 4.5 9.22239 4.5 9.22785 4.5C9.23331 4.5 9.23877 4.5 9.24422 4.5C9.24968 4.5 9.25513 4.5 9.26057 4.5C9.26602 4.5 9.27146 4.5 9.2769 4.5C9.28234 4.5 9.28778 4.5 9.29321 4.5C9.29864 4.5 9.30407 4.5 9.30949 4.5C9.31492 4.5 9.32034 4.5 9.32575 4.5C9.33117 4.5 9.33658 4.5 9.34199 4.5C9.3474 4.5 9.35281 4.5 9.35821 4.5C9.36361 4.5 9.36901 4.5 9.37441 4.5C9.3798 4.5 9.38519 4.5 9.39058 4.5C9.39597 4.5 9.40135 4.5 9.40673 4.5C9.41212 4.5 9.41749 4.5 9.42287 4.5C9.42824 4.5 9.43361 4.5 9.43898 4.5C9.44434 4.5 9.44971 4.5 9.45507 4.5C9.46043 4.5 9.46578 4.5 9.47113 4.5C9.47649 4.5 9.48184 4.5 9.48718 4.5C9.49253 4.5 9.49787 4.5 9.50321 4.5C9.50855 4.5 9.51388 4.5 9.51921 4.5C9.52455 4.5 9.52987 4.5 9.5352 4.5C9.54053 4.5 9.54585 4.5 9.55117 4.5C9.55648 4.5 9.5618 4.5 9.56711 4.5C9.57242 4.5 9.57773 4.5 9.58303 4.5C9.58834 4.5 9.59364 4.5 9.59894 4.5C9.60424 4.5 9.60953 4.5 9.61483 4.5C9.62012 4.5 9.62541 4.5 9.63069 4.5C9.63598 4.5 9.64126 4.5 9.64654 4.5C9.65181 4.5 9.65709 4.5 9.66236 4.5C9.66763 4.5 9.6729 4.5 9.67817 4.5C9.68343 4.5 9.6887 4.5 9.69396 4.5C9.69922 4.5 9.70447 4.5 9.70972 4.5C9.71498 4.5 9.72023 4.5 9.72547 4.5C9.73072 4.5 9.73596 4.5 9.7412 4.5C9.74644 4.5 9.75168 4.5 9.75692 4.5C9.76215 4.5 9.76738 4.5 9.77261 4.5C9.77784 4.5 9.78306 4.5 9.78828 4.5C9.7935 4.5 9.79872 4.5 9.80394 4.5C9.80915 4.5 9.81437 4.5 9.81958 4.5C9.82479 4.5 9.82999 4.5 9.8352 4.5C9.8404 4.5 9.8456 4.5 9.8508 4.5C9.856 4.5 9.86119 4.5 9.86638 4.5C9.87157 4.5 9.87676 4.5 9.88195 4.5C9.88713 4.5 9.89232 4.5 9.8975 4.5C9.90267 4.5 9.90785 4.5 9.91303 4.5C9.9182 4.5 9.92337 4.5 9.92854 4.5C9.93371 4.5 9.93887 4.5 9.94403 4.5C9.9492 4.5 9.95436 4.5 9.95951 4.5C9.96467 4.5 9.96982 4.5 9.97497 4.5C9.98013 4.5 9.98527 4.5 9.99042 4.5C9.99556 4.5 10.0007 4.5 10.0058 4.5C10.011 4.5 10.0161 4.5 10.0213 4.5C10.0264 4.5 10.0315 4.5 10.0367 4.5C10.0418 4.5 10.0469 4.5 10.052 4.5C10.0572 4.5 10.0623 4.5 10.0674 4.5C10.0725 4.5 10.0776 4.5 10.0827 4.5C10.0879 4.5 10.093 4.5 10.0981 4.5C10.1032 4.5 10.1083 4.5 10.1134 4.5C10.1185 4.5 10.1236 4.5 10.1287 4.5C10.1338 4.5 10.1389 4.5 10.144 4.5C10.1491 4.5 10.1541 4.5 10.1592 4.5C10.1643 4.5 10.1694 4.5 10.1745 4.5C10.1796 4.5 10.1846 4.5 10.1897 4.5C10.1948 4.5 10.1999 4.5 10.2049 4.5C10.21 4.5 10.2151 4.5 10.2201 4.5C10.2252 4.5 10.2303 4.5 10.2353 4.5C10.2404 4.5 10.2455 4.5 10.2505 4.5C10.2556 4.5 10.2606 4.5 10.2657 4.5C10.2707 4.5 10.2758 4.5 10.2808 4.5C10.2859 4.5 10.2909 4.5 10.2959 4.5C10.301 4.5 10.306 4.5 10.3111 4.5C10.3161 4.5 10.3211 4.5 10.3262 4.5C10.3312 4.5 10.3362 4.5 10.3413 4.5C10.3463 4.5 10.3513 4.5 10.3563 4.5C10.3614 4.5 10.3664 4.5 10.3714 4.5C10.3764 4.5 10.3814 4.5 10.3864 4.5C10.3915 4.5 10.3965 4.5 10.4015 4.5C10.4065 4.5 10.4115 4.5 10.4165 4.5C10.4215 4.5 10.4265 4.5 10.4315 4.5C10.4365 4.5 10.4415 4.5 10.4465 4.5C10.4515 4.5 10.4565 4.5 10.4615 4.5C10.4665 4.5 10.4715 4.5 10.4764 4.5C10.4814 4.5 10.4864 4.5 10.4914 4.5C10.4964 4.5 10.5014 4.5 10.5063 4.5C10.5113 4.5 10.5163 4.5 10.5213 4.5C10.5262 4.5 10.5312 4.5 10.5362 4.5C10.5412 4.5 10.5461 4.5 10.5511 4.5C10.5561 4.5 10.561 4.5 10.566 4.5C10.5709 4.5 10.5759 4.5 10.5809 4.5C10.5858 4.5 10.5908 4.5 10.5957 4.5C10.6007 4.5 10.6056 4.5 10.6106 4.5C10.6155 4.5 10.6205 4.5 10.6254 4.5C10.6304 4.5 10.6353 4.5 10.6403 4.5C10.6452 4.5 10.6501 4.5 10.6551 4.5C10.66 4.5 10.665 4.5 10.6699 4.5C10.6748 4.5 10.6798 4.5 10.6847 4.5C10.6896 4.5 10.6945 4.5 10.6995 4.5C10.7044 4.5 10.7093 4.5 10.7143 4.5C10.7192 4.5 10.7241 4.5 10.729 4.5C10.7339 4.5 10.7389 4.5 10.7438 4.5C10.7487 4.5 10.7536 4.5 10.7585 4.5C10.7634 4.5 10.7683 4.5 10.7732 4.5C10.7782 4.5 10.7831 4.5 10.788 4.5C10.7929 4.5 10.7978 4.5 10.8027 4.5C10.8076 4.5 10.8125 4.5 10.8174 4.5C10.8223 4.5 10.8272 4.5 10.8321 4.5C10.837 4.5 10.8419 4.5 10.8468 4.5C10.8517 4.5 10.8565 4.5 10.8614 4.5C10.8663 4.5 10.8712 4.5 10.8761 4.5C10.881 4.5 10.8859 4.5 10.8907 4.5C10.8956 4.5 10.9005 4.5 10.9054 4.5C10.9103 4.5 10.9152 4.5 10.92 4.5C10.9249 4.5 10.9298 4.5 10.9347 4.5C10.9395 4.5 10.9444 4.5 10.9493 4.5C10.9541 4.5 10.959 4.5 10.9639 4.5C10.9687 4.5 10.9736 4.5 10.9785 4.5C10.9833 4.5 10.9882 4.5 10.9931 4.5C10.9979 4.5 11.0028 4.5 11.0076 4.5C11.0125 4.5 11.0174 4.5 11.0222 4.5C11.0271 4.5 11.0319 4.5 11.0368 4.5C11.0416 4.5 11.0465 4.5 11.0513 4.5C11.0562 4.5 11.061 4.5 11.0659 4.5C11.0707 4.5 11.0756 4.5 11.0804 4.5C11.0853 4.5 11.0901 4.5 11.095 4.5C11.0998 4.5 11.1046 4.5 11.1095 4.5C11.1143 4.5 11.1192 4.5 11.124 4.5C11.1288 4.5 11.1337 4.5 11.1385 4.5C11.1433 4.5 11.1482 4.5 11.153 4.5C11.1578 4.5 11.1627 4.5 11.1675 4.5C11.1723 4.5 11.1772 4.5 11.182 4.5C11.1868 4.5 11.1916 4.5 11.1965 4.5C11.2013 4.5 11.2061 4.5 11.2109 4.5C11.2158 4.5 11.2206 4.5 11.2254 4.5C11.2302 4.5 11.2351 4.5 11.2399 4.5C11.2447 4.5 11.2495 4.5 11.2543 4.5C11.2591 4.5 11.264 4.5 11.2688 4.5C11.2736 4.5 11.2784 4.5 11.2832 4.5C11.288 4.5 11.2928 4.5 11.2976 4.5C11.3025 4.5 11.3073 4.5 11.3121 4.5C11.3169 4.5 11.3217 4.5 11.3265 4.5C11.3313 4.5 11.3361 4.5 11.3409 4.5C11.3457 4.5 11.3505 4.5 11.3553 4.5C11.3601 4.5 11.3649 4.5 11.3697 4.5C11.3745 4.5 11.3793 4.5 11.3841 4.5C11.3889 4.5 11.3937 4.5 11.3985 4.5C11.4033 4.5 11.4081 4.5 11.4129 4.5C11.4177 4.5 11.4225 4.5 11.4273 4.5C11.4321 4.5 11.4369 4.5 11.4417 4.5C11.4465 4.5 11.4513 4.5 11.4561 4.5C11.4609 4.5 11.4656 4.5 11.4704 4.5C11.4752 4.5 11.48 4.5 11.4848 4.5C11.4896 4.5 11.4944 4.5 11.4992 4.5C11.5039 4.5 11.5087 4.5 11.5135 4.5C11.5183 4.5 11.5231 4.5 11.5279 4.5C11.5327 4.5 11.5374 4.5 11.5422 4.5C11.547 4.5 11.5518 4.5 11.5566 4.5C11.5613 4.5 11.5661 4.5 11.5709 4.5C11.5757 4.5 11.5805 4.5 11.5852 4.5C11.59 4.5 11.5948 4.5 11.5996 4.5C11.6044 4.5 11.6091 4.5 11.6139 4.5C11.6187 4.5 11.6235 4.5 11.6282 4.5C11.633 4.5 11.6378 4.5 11.6426 4.5C11.6473 4.5 11.6521 4.5 11.6569 4.5C11.6617 4.5 11.6664 4.5 11.6712 4.5C11.676 4.5 11.6807 4.5 11.6855 4.5C11.6903 4.5 11.6951 4.5 11.6998 4.5C11.7046 4.5 11.7094 4.5 11.7141 4.5C11.7189 4.5 11.7237 4.5 11.7285 4.5C11.7332 4.5 11.738 4.5 11.7428 4.5C11.7475 4.5 11.7523 4.5 11.7571 4.5C11.7618 4.5 11.7666 4.5 11.7714 4.5C11.7761 4.5 11.7809 4.5 11.7857 4.5C11.7904 4.5 11.7952 4.5 11.8 4.5C11.8047 4.5 11.8095 4.5 11.8143 4.5C11.819 4.5 11.8238 4.5 11.8285 4.5C11.8333 4.5 11.8381 4.5 11.8428 4.5C11.8476 4.5 11.8524 4.5 11.8571 4.5C11.8619 4.5 11.8667 4.5 11.8714 4.5C11.8762 4.5 11.8809 4.5 11.8857 4.5C11.8905 4.5 11.8952 4.5 11.9 4.5C11.9048 4.5 11.9095 4.5 11.9143 4.5C11.9191 4.5 11.9238 4.5 11.9286 4.5C11.9333 4.5 11.9381 4.5 11.9429 4.5C11.9476 4.5 11.9524 4.5 11.9571 4.5C11.9619 4.5 11.9667 4.5 11.9714 4.5C11.9762 4.5 11.981 4.5 11.9857 4.5C11.9905 4.5 11.9952 4.5 12 4.5C12.0048 4.5 12.0095 4.5 12.0143 4.5C12.019 4.5 12.0238 4.5 12.0286 4.5C12.0333 4.5 12.0381 4.5 12.0429 4.5C12.0476 4.5 12.0524 4.5 12.0571 4.5C12.0619 4.5 12.0667 4.5 12.0714 4.5C12.0762 4.5 12.0809 4.5 12.0857 4.5C12.0905 4.5 12.0952 4.5 12.1 4.5C12.1048 4.5 12.1095 4.5 12.1143 4.5C12.1191 4.5 12.1238 4.5 12.1286 4.5C12.1333 4.5 12.1381 4.5 12.1429 4.5C12.1476 4.5 12.1524 4.5 12.1572 4.5C12.1619 4.5 12.1667 4.5 12.1715 4.5C12.1762 4.5 12.181 4.5 12.1857 4.5C12.1905 4.5 12.1953 4.5 12.2 4.5C12.2048 4.5 12.2096 4.5 12.2143 4.5C12.2191 4.5 12.2239 4.5 12.2286 4.5C12.2334 4.5 12.2382 4.5 12.2429 4.5C12.2477 4.5 12.2525 4.5 12.2572 4.5C12.262 4.5 12.2668 4.5 12.2715 4.5C12.2763 4.5 12.2811 4.5 12.2859 4.5C12.2906 4.5 12.2954 4.5 12.3002 4.5C12.3049 4.5 12.3097 4.5 12.3145 4.5C12.3193 4.5 12.324 4.5 12.3288 4.5C12.3336 4.5 12.3383 4.5 12.3431 4.5C12.3479 4.5 12.3527 4.5 12.3574 4.5C12.3622 4.5 12.367 4.5 12.3718 4.5C12.3765 4.5 12.3813 4.5 12.3861 4.5C12.3909 4.5 12.3956 4.5 12.4004 4.5C12.4052 4.5 12.41 4.5 12.4148 4.5C12.4195 4.5 12.4243 4.5 12.4291 4.5C12.4339 4.5 12.4387 4.5 12.4434 4.5C12.4482 4.5 12.453 4.5 12.4578 4.5C12.4626 4.5 12.4673 4.5 12.4721 4.5C12.4769 4.5 12.4817 4.5 12.4865 4.5C12.4913 4.5 12.4961 4.5 12.5008 4.5C12.5056 4.5 12.5104 4.5 12.5152 4.5C12.52 4.5 12.5248 4.5 12.5296 4.5C12.5344 4.5 12.5391 4.5 12.5439 4.5C12.5487 4.5 12.5535 4.5 12.5583 4.5C12.5631 4.5 12.5679 4.5 12.5727 4.5C12.5775 4.5 12.5823 4.5 12.5871 4.5C12.5919 4.5 12.5967 4.5 12.6015 4.5C12.6063 4.5 12.6111 4.5 12.6159 4.5C12.6207 4.5 12.6255 4.5 12.6303 4.5C12.6351 4.5 12.6399 4.5 12.6447 4.5C12.6495 4.5 12.6543 4.5 12.6591 4.5C12.6639 4.5 12.6687 4.5 12.6735 4.5C12.6783 4.5 12.6831 4.5 12.6879 4.5C12.6927 4.5 12.6975 4.5 12.7024 4.5C12.7072 4.5 12.712 4.5 12.7168 4.5C12.7216 4.5 12.7264 4.5 12.7312 4.5C12.736 4.5 12.7409 4.5 12.7457 4.5C12.7505 4.5 12.7553 4.5 12.7601 4.5C12.7649 4.5 12.7698 4.5 12.7746 4.5C12.7794 4.5 12.7842 4.5 12.7891 4.5C12.7939 4.5 12.7987 4.5 12.8035 4.5C12.8084 4.5 12.8132 4.5 12.818 4.5C12.8228 4.5 12.8277 4.5 12.8325 4.5C12.8373 4.5 12.8422 4.5 12.847 4.5C12.8518 4.5 12.8567 4.5 12.8615 4.5C12.8663 4.5 12.8712 4.5 12.876 4.5C12.8808 4.5 12.8857 4.5 12.8905 4.5C12.8954 4.5 12.9002 4.5 12.905 4.5C12.9099 4.5 12.9147 4.5 12.9196 4.5C12.9244 4.5 12.9293 4.5 12.9341 4.5C12.939 4.5 12.9438 4.5 12.9487 4.5C12.9535 4.5 12.9584 4.5 12.9632 4.5C12.9681 4.5 12.9729 4.5 12.9778 4.5C12.9826 4.5 12.9875 4.5 12.9924 4.5C12.9972 4.5 13.0021 4.5 13.0069 4.5C13.0118 4.5 13.0167 4.5 13.0215 4.5C13.0264 4.5 13.0313 4.5 13.0361 4.5C13.041 4.5 13.0459 4.5 13.0507 4.5C13.0556 4.5 13.0605 4.5 13.0653 4.5C13.0702 4.5 13.0751 4.5 13.08 4.5C13.0848 4.5 13.0897 4.5 13.0946 4.5C13.0995 4.5 13.1044 4.5 13.1093 4.5C13.1141 4.5 13.119 4.5 13.1239 4.5C13.1288 4.5 13.1337 4.5 13.1386 4.5C13.1435 4.5 13.1483 4.5 13.1532 4.5C13.1581 4.5 13.163 4.5 13.1679 4.5C13.1728 4.5 13.1777 4.5 13.1826 4.5C13.1875 4.5 13.1924 4.5 13.1973 4.5C13.2022 4.5 13.2071 4.5 13.212 4.5C13.2169 4.5 13.2218 4.5 13.2268 4.5C13.2317 4.5 13.2366 4.5 13.2415 4.5C13.2464 4.5 13.2513 4.5 13.2562 4.5C13.2611 4.5 13.2661 4.5 13.271 4.5C13.2759 4.5 13.2808 4.5 13.2857 4.5C13.2907 4.5 13.2956 4.5 13.3005 4.5C13.3055 4.5 13.3104 4.5 13.3153 4.5C13.3202 4.5 13.3252 4.5 13.3301 4.5C13.335 4.5 13.34 4.5 13.3449 4.5C13.3499 4.5 13.3548 4.5 13.3597 4.5C13.3647 4.5 13.3696 4.5 13.3746 4.5C13.3795 4.5 13.3845 4.5 13.3894 4.5C13.3944 4.5 13.3993 4.5 13.4043 4.5C13.4092 4.5 13.4142 4.5 13.4191 4.5C13.4241 4.5 13.4291 4.5 13.434 4.5C13.439 4.5 13.4439 4.5 13.4489 4.5C13.4539 4.5 13.4588 4.5 13.4638 4.5C13.4688 4.5 13.4738 4.5 13.4787 4.5C13.4837 4.5 13.4887 4.5 13.4937 4.5C13.4986 4.5 13.5036 4.5 13.5086 4.5C13.5136 4.5 13.5186 4.5 13.5236 4.5C13.5285 4.5 13.5335 4.5 13.5385 4.5C13.5435 4.5 13.5485 4.5 13.5535 4.5C13.5585 4.5 13.5635 4.5 13.5685 4.5C13.5735 4.5 13.5785 4.5 13.5835 4.5C13.5885 4.5 13.5935 4.5 13.5985 4.5C13.6035 4.5 13.6085 4.5 13.6136 4.5C13.6186 4.5 13.6236 4.5 13.6286 4.5C13.6336 4.5 13.6386 4.5 13.6437 4.5C13.6487 4.5 13.6537 4.5 13.6587 4.5C13.6638 4.5 13.6688 4.5 13.6738 4.5C13.6789 4.5 13.6839 4.5 13.6889 4.5C13.694 4.5 13.699 4.5 13.7041 4.5C13.7091 4.5 13.7141 4.5 13.7192 4.5C13.7242 4.5 13.7293 4.5 13.7343 4.5C13.7394 4.5 13.7444 4.5 13.7495 4.5C13.7545 4.5 13.7596 4.5 13.7647 4.5C13.7697 4.5 13.7748 4.5 13.7799 4.5C13.7849 4.5 13.79 4.5 13.7951 4.5C13.8001 4.5 13.8052 4.5 13.8103 4.5C13.8154 4.5 13.8204 4.5 13.8255 4.5C13.8306 4.5 13.8357 4.5 13.8408 4.5C13.8459 4.5 13.8509 4.5 13.856 4.5C13.8611 4.5 13.8662 4.5 13.8713 4.5C13.8764 4.5 13.8815 4.5 13.8866 4.5C13.8917 4.5 13.8968 4.5 13.9019 4.5C13.907 4.5 13.9121 4.5 13.9173 4.5C13.9224 4.5 13.9275 4.5 13.9326 4.5C13.9377 4.5 13.9428 4.5 13.948 4.5C13.9531 4.5 13.9582 4.5 13.9633 4.5C13.9685 4.5 13.9736 4.5 13.9787 4.5C13.9839 4.5 13.989 4.5 13.9942 4.5C13.9993 4.5 14.0044 4.5 14.0096 4.5C14.0147 4.5 14.0199 4.5 14.025 4.5C14.0302 4.5 14.0353 4.5 14.0405 4.5C14.0456 4.5 14.0508 4.5 14.056 4.5C14.0611 4.5 14.0663 4.5 14.0715 4.5C14.0766 4.5 14.0818 4.5 14.087 4.5C14.0921 4.5 14.0973 4.5 14.1025 4.5C14.1077 4.5 14.1129 4.5 14.1181 4.5C14.1232 4.5 14.1284 4.5 14.1336 4.5C14.1388 4.5 14.144 4.5 14.1492 4.5C14.1544 4.5 14.1596 4.5 14.1648 4.5C14.17 4.5 14.1752 4.5 14.1804 4.5C14.1856 4.5 14.1908 4.5 14.1961 4.5C14.2013 4.5 14.2065 4.5 14.2117 4.5C14.2169 4.5 14.2222 4.5 14.2274 4.5C14.2326 4.5 14.2379 4.5 14.2431 4.5C14.2483 4.5 14.2536 4.5 14.2588 4.5C14.264 4.5 14.2693 4.5 14.2745 4.5C14.2798 4.5 14.285 4.5 14.2903 4.5C14.2955 4.5 14.3008 4.5 14.306 4.5C14.3113 4.5 14.3166 4.5 14.3218 4.5C14.3271 4.5 14.3324 4.5 14.3376 4.5C14.3429 4.5 14.3482 4.5 14.3535 4.5C14.3587 4.5 14.364 4.5 14.3693 4.5C14.3746 4.5 14.3799 4.5 14.3852 4.5C14.3905 4.5 14.3958 4.5 14.4011 4.5C14.4064 4.5 14.4117 4.5 14.417 4.5C14.4223 4.5 14.4276 4.5 14.4329 4.5C14.4382 4.5 14.4435 4.5 14.4488 4.5C14.4542 4.5 14.4595 4.5 14.4648 4.5C14.4701 4.5 14.4755 4.5 14.4808 4.5C14.4861 4.5 14.4915 4.5 14.4968 4.5C14.5021 4.5 14.5075 4.5 14.5128 4.5C14.5182 4.5 14.5235 4.5 14.5289 4.5C14.5342 4.5 14.5396 4.5 14.5449 4.5C14.5503 4.5 14.5557 4.5 14.561 4.5C14.5664 4.5 14.5718 4.5 14.5771 4.5C14.5825 4.5 14.5879 4.5 14.5933 4.5C14.5986 4.5 14.604 4.5 14.6094 4.5C14.6148 4.5 14.6202 4.5 14.6256 4.5C14.631 4.5 14.6364 4.5 14.6418 4.5C14.6472 4.5 14.6526 4.5 14.658 4.5C14.6634 4.5 14.6688 4.5 14.6742 4.5C14.6797 4.5 14.6851 4.5 14.6905 4.5C14.6959 4.5 14.7014 4.5 14.7068 4.5C14.7122 4.5 14.7177 4.5 14.7231 4.5C14.7285 4.5 14.734 4.5 14.7394 4.5C14.7449 4.5 14.7503 4.5 14.7558 4.5C14.7612 4.5 14.7667 4.5 14.7722 4.5C14.7776 4.5 14.7831 4.5 14.7885 4.5C14.794 4.5 14.7995 4.5 14.805 4.5C14.8104 4.5 14.8159 4.5 14.8214 4.5C14.8269 4.5 14.8324 4.5 14.8379 4.5C14.8434 4.5 14.8489 4.5 14.8544 4.5C14.8599 4.5 14.8654 4.5 14.8709 4.5C14.8764 4.5 14.8819 4.5 14.8874 4.5C14.8929 4.5 14.8984 4.5 14.904 4.5C14.9095 4.5 14.915 4.5 14.9205 4.5C14.9261 4.5 14.9316 4.5 14.9372 4.5C14.9427 4.5 14.9482 4.5 14.9538 4.5C14.9593 4.5 14.9649 4.5 14.9704 4.5C14.976 4.5 14.9815 4.5 14.9871 4.5C14.9927 4.5 14.9982 4.5 15.0038 4.5C15.0094 4.5 15.015 4.5 15.0205 4.5C15.0261 4.5 15.0317 4.5 15.0373 4.5C15.0429 4.5 15.0485 4.5 15.0541 4.5C15.0597 4.5 15.0653 4.5 15.0709 4.5C15.0765 4.5 15.0821 4.5 15.0877 4.5C15.0933 4.5 15.0989 4.5 15.1045 4.5C15.1102 4.5 15.1158 4.5 15.1214 4.5C15.1271 4.5 15.1327 4.5 15.1383 4.5C15.144 4.5 15.1496 4.5 15.1552 4.5C15.1609 4.5 15.1665 4.5 15.1722 4.5C15.1779 4.5 15.1835 4.5 15.1892 4.5C15.1948 4.5 15.2005 4.5 15.2062 4.5C15.2119 4.5 15.2175 4.5 15.2232 4.5C15.2289 4.5 15.2346 4.5 15.2403 4.5C15.246 4.5 15.2517 4.5 15.2573 4.5C15.263 4.5 15.2687 4.5 15.2745 4.5C15.2802 4.5 15.2859 4.5 15.2916 4.5C15.2973 4.5 15.303 4.5 15.3088 4.5C15.3145 4.5 15.3202 4.5 15.3259 4.5C15.3317 4.5 15.3374 4.5 15.3432 4.5C15.3489 4.5 15.3546 4.5 15.3604 4.5C15.3661 4.5 15.3719 4.5 15.3777 4.5C15.3834 4.5 15.3892 4.5 15.395 4.5C15.4007 4.5 15.4065 4.5 15.4123 4.5C15.4181 4.5 15.4238 4.5 15.4296 4.5C15.4354 4.5 15.4412 4.5 15.447 4.5C15.4528 4.5 15.4586 4.5 15.4644 4.5C15.4702 4.5 15.476 4.5 15.4818 4.5C15.4877 4.5 15.4935 4.5 15.4993 4.5C15.5051 4.5 15.511 4.5 15.5168 4.5C15.5226 4.5 15.5285 4.5 15.5343 4.5C15.5402 4.5 15.546 4.5 15.5519 4.5C15.5577 4.5 15.5636 4.5 15.5694 4.5C15.5753 4.5 15.5812 4.5 15.587 4.5C15.5929 4.5 15.5988 4.5 15.6047 4.5C15.6105 4.5 15.6164 4.5 15.6223 4.5C15.6282 4.5 15.6341 4.5 15.64 4.5C15.6459 4.5 15.6518 4.5 15.6577 4.5C15.6636 4.5 15.6695 4.5 15.6755 4.5C15.6814 4.5 15.6873 4.5 15.6932 4.5C15.6992 4.5 15.7051 4.5 15.711 4.5C15.717 4.5 15.7229 4.5 15.7289 4.5C15.7348 4.5 15.7408 4.5 15.7467 4.5C15.7527 4.5 15.7587 4.5 15.7646 4.5C15.7706 4.5 15.7766 4.5 15.7826 4.5C15.7885 4.5 15.7945 4.5 15.8005 4.5C15.8065 4.5 15.8125 4.5 15.8185 4.5C15.8245 4.5 15.8305 4.5 15.8365 4.5C15.8425 4.5 15.8485 4.5 15.8545 4.5C15.8606 4.5 15.8666 4.5 15.8726 4.5C15.8787 4.5 15.8847 4.5 15.8907 4.5C15.8968 4.5 15.9028 4.5 15.9089 4.5C15.9149 4.5 15.921 4.5 15.927 4.5C15.9331 4.5 15.9392 4.5 15.9452 4.5C15.9513 4.5 15.9574 4.5 15.9635 4.5C15.9695 4.5 15.9756 4.5 15.9817 4.5C15.9878 4.5 15.9939 4.5 16 4.5V2.5C15.9939 2.5 15.9878 2.5 15.9817 2.5C15.9756 2.5 15.9695 2.5 15.9635 2.5C15.9574 2.5 15.9513 2.5 15.9452 2.5C15.9392 2.5 15.9331 2.5 15.927 2.5C15.921 2.5 15.9149 2.5 15.9089 2.5C15.9028 2.5 15.8968 2.5 15.8907 2.5C15.8847 2.5 15.8787 2.5 15.8726 2.5C15.8666 2.5 15.8606 2.5 15.8545 2.5C15.8485 2.5 15.8425 2.5 15.8365 2.5C15.8305 2.5 15.8245 2.5 15.8185 2.5C15.8125 2.5 15.8065 2.5 15.8005 2.5C15.7945 2.5 15.7885 2.5 15.7826 2.5C15.7766 2.5 15.7706 2.5 15.7646 2.5C15.7587 2.5 15.7527 2.5 15.7467 2.5C15.7408 2.5 15.7348 2.5 15.7289 2.5C15.7229 2.5 15.717 2.5 15.711 2.5C15.7051 2.5 15.6992 2.5 15.6932 2.5C15.6873 2.5 15.6814 2.5 15.6755 2.5C15.6695 2.5 15.6636 2.5 15.6577 2.5C15.6518 2.5 15.6459 2.5 15.64 2.5C15.6341 2.5 15.6282 2.5 15.6223 2.5C15.6164 2.5 15.6105 2.5 15.6047 2.5C15.5988 2.5 15.5929 2.5 15.587 2.5C15.5812 2.5 15.5753 2.5 15.5694 2.5C15.5636 2.5 15.5577 2.5 15.5519 2.5C15.546 2.5 15.5402 2.5 15.5343 2.5C15.5285 2.5 15.5226 2.5 15.5168 2.5C15.511 2.5 15.5051 2.5 15.4993 2.5C15.4935 2.5 15.4877 2.5 15.4818 2.5C15.476 2.5 15.4702 2.5 15.4644 2.5C15.4586 2.5 15.4528 2.5 15.447 2.5C15.4412 2.5 15.4354 2.5 15.4296 2.5C15.4238 2.5 15.4181 2.5 15.4123 2.5C15.4065 2.5 15.4007 2.5 15.395 2.5C15.3892 2.5 15.3834 2.5 15.3777 2.5C15.3719 2.5 15.3661 2.5 15.3604 2.5C15.3546 2.5 15.3489 2.5 15.3432 2.5C15.3374 2.5 15.3317 2.5 15.3259 2.5C15.3202 2.5 15.3145 2.5 15.3088 2.5C15.303 2.5 15.2973 2.5 15.2916 2.5C15.2859 2.5 15.2802 2.5 15.2745 2.5C15.2687 2.5 15.263 2.5 15.2573 2.5C15.2517 2.5 15.246 2.5 15.2403 2.5C15.2346 2.5 15.2289 2.5 15.2232 2.5C15.2175 2.5 15.2119 2.5 15.2062 2.5C15.2005 2.5 15.1948 2.5 15.1892 2.5C15.1835 2.5 15.1779 2.5 15.1722 2.5C15.1665 2.5 15.1609 2.5 15.1552 2.5C15.1496 2.5 15.144 2.5 15.1383 2.5C15.1327 2.5 15.1271 2.5 15.1214 2.5C15.1158 2.5 15.1102 2.5 15.1045 2.5C15.0989 2.5 15.0933 2.5 15.0877 2.5C15.0821 2.5 15.0765 2.5 15.0709 2.5C15.0653 2.5 15.0597 2.5 15.0541 2.5C15.0485 2.5 15.0429 2.5 15.0373 2.5C15.0317 2.5 15.0261 2.5 15.0205 2.5C15.015 2.5 15.0094 2.5 15.0038 2.5C14.9982 2.5 14.9927 2.5 14.9871 2.5C14.9815 2.5 14.976 2.5 14.9704 2.5C14.9649 2.5 14.9593 2.5 14.9538 2.5C14.9482 2.5 14.9427 2.5 14.9372 2.5C14.9316 2.5 14.9261 2.5 14.9205 2.5C14.915 2.5 14.9095 2.5 14.904 2.5C14.8984 2.5 14.8929 2.5 14.8874 2.5C14.8819 2.5 14.8764 2.5 14.8709 2.5C14.8654 2.5 14.8599 2.5 14.8544 2.5C14.8489 2.5 14.8434 2.5 14.8379 2.5C14.8324 2.5 14.8269 2.5 14.8214 2.5C14.8159 2.5 14.8104 2.5 14.805 2.5C14.7995 2.5 14.794 2.5 14.7885 2.5C14.7831 2.5 14.7776 2.5 14.7722 2.5C14.7667 2.5 14.7612 2.5 14.7558 2.5C14.7503 2.5 14.7449 2.5 14.7394 2.5C14.734 2.5 14.7285 2.5 14.7231 2.5C14.7177 2.5 14.7122 2.5 14.7068 2.5C14.7014 2.5 14.6959 2.5 14.6905 2.5C14.6851 2.5 14.6797 2.5 14.6742 2.5C14.6688 2.5 14.6634 2.5 14.658 2.5C14.6526 2.5 14.6472 2.5 14.6418 2.5C14.6364 2.5 14.631 2.5 14.6256 2.5C14.6202 2.5 14.6148 2.5 14.6094 2.5C14.604 2.5 14.5986 2.5 14.5933 2.5C14.5879 2.5 14.5825 2.5 14.5771 2.5C14.5718 2.5 14.5664 2.5 14.561 2.5C14.5557 2.5 14.5503 2.5 14.5449 2.5C14.5396 2.5 14.5342 2.5 14.5289 2.5C14.5235 2.5 14.5182 2.5 14.5128 2.5C14.5075 2.5 14.5021 2.5 14.4968 2.5C14.4915 2.5 14.4861 2.5 14.4808 2.5C14.4755 2.5 14.4701 2.5 14.4648 2.5C14.4595 2.5 14.4542 2.5 14.4488 2.5C14.4435 2.5 14.4382 2.5 14.4329 2.5C14.4276 2.5 14.4223 2.5 14.417 2.5C14.4117 2.5 14.4064 2.5 14.4011 2.5C14.3958 2.5 14.3905 2.5 14.3852 2.5C14.3799 2.5 14.3746 2.5 14.3693 2.5C14.364 2.5 14.3587 2.5 14.3535 2.5C14.3482 2.5 14.3429 2.5 14.3376 2.5C14.3324 2.5 14.3271 2.5 14.3218 2.5C14.3166 2.5 14.3113 2.5 14.306 2.5C14.3008 2.5 14.2955 2.5 14.2903 2.5C14.285 2.5 14.2798 2.5 14.2745 2.5C14.2693 2.5 14.264 2.5 14.2588 2.5C14.2536 2.5 14.2483 2.5 14.2431 2.5C14.2379 2.5 14.2326 2.5 14.2274 2.5C14.2222 2.5 14.2169 2.5 14.2117 2.5C14.2065 2.5 14.2013 2.5 14.1961 2.5C14.1908 2.5 14.1856 2.5 14.1804 2.5C14.1752 2.5 14.17 2.5 14.1648 2.5C14.1596 2.5 14.1544 2.5 14.1492 2.5C14.144 2.5 14.1388 2.5 14.1336 2.5C14.1284 2.5 14.1232 2.5 14.1181 2.5C14.1129 2.5 14.1077 2.5 14.1025 2.5C14.0973 2.5 14.0921 2.5 14.087 2.5C14.0818 2.5 14.0766 2.5 14.0715 2.5C14.0663 2.5 14.0611 2.5 14.056 2.5C14.0508 2.5 14.0456 2.5 14.0405 2.5C14.0353 2.5 14.0302 2.5 14.025 2.5C14.0199 2.5 14.0147 2.5 14.0096 2.5C14.0044 2.5 13.9993 2.5 13.9942 2.5C13.989 2.5 13.9839 2.5 13.9787 2.5C13.9736 2.5 13.9685 2.5 13.9633 2.5C13.9582 2.5 13.9531 2.5 13.948 2.5C13.9428 2.5 13.9377 2.5 13.9326 2.5C13.9275 2.5 13.9224 2.5 13.9173 2.5C13.9121 2.5 13.907 2.5 13.9019 2.5C13.8968 2.5 13.8917 2.5 13.8866 2.5C13.8815 2.5 13.8764 2.5 13.8713 2.5C13.8662 2.5 13.8611 2.5 13.856 2.5C13.8509 2.5 13.8459 2.5 13.8408 2.5C13.8357 2.5 13.8306 2.5 13.8255 2.5C13.8204 2.5 13.8154 2.5 13.8103 2.5C13.8052 2.5 13.8001 2.5 13.7951 2.5C13.79 2.5 13.7849 2.5 13.7799 2.5C13.7748 2.5 13.7697 2.5 13.7647 2.5C13.7596 2.5 13.7545 2.5 13.7495 2.5C13.7444 2.5 13.7394 2.5 13.7343 2.5C13.7293 2.5 13.7242 2.5 13.7192 2.5C13.7141 2.5 13.7091 2.5 13.7041 2.5C13.699 2.5 13.694 2.5 13.6889 2.5C13.6839 2.5 13.6789 2.5 13.6738 2.5C13.6688 2.5 13.6638 2.5 13.6587 2.5C13.6537 2.5 13.6487 2.5 13.6437 2.5C13.6386 2.5 13.6336 2.5 13.6286 2.5C13.6236 2.5 13.6186 2.5 13.6136 2.5C13.6085 2.5 13.6035 2.5 13.5985 2.5C13.5935 2.5 13.5885 2.5 13.5835 2.5C13.5785 2.5 13.5735 2.5 13.5685 2.5C13.5635 2.5 13.5585 2.5 13.5535 2.5C13.5485 2.5 13.5435 2.5 13.5385 2.5C13.5335 2.5 13.5285 2.5 13.5236 2.5C13.5186 2.5 13.5136 2.5 13.5086 2.5C13.5036 2.5 13.4986 2.5 13.4937 2.5C13.4887 2.5 13.4837 2.5 13.4787 2.5C13.4738 2.5 13.4688 2.5 13.4638 2.5C13.4588 2.5 13.4539 2.5 13.4489 2.5C13.4439 2.5 13.439 2.5 13.434 2.5C13.4291 2.5 13.4241 2.5 13.4191 2.5C13.4142 2.5 13.4092 2.5 13.4043 2.5C13.3993 2.5 13.3944 2.5 13.3894 2.5C13.3845 2.5 13.3795 2.5 13.3746 2.5C13.3696 2.5 13.3647 2.5 13.3597 2.5C13.3548 2.5 13.3499 2.5 13.3449 2.5C13.34 2.5 13.335 2.5 13.3301 2.5C13.3252 2.5 13.3202 2.5 13.3153 2.5C13.3104 2.5 13.3055 2.5 13.3005 2.5C13.2956 2.5 13.2907 2.5 13.2857 2.5C13.2808 2.5 13.2759 2.5 13.271 2.5C13.2661 2.5 13.2611 2.5 13.2562 2.5C13.2513 2.5 13.2464 2.5 13.2415 2.5C13.2366 2.5 13.2317 2.5 13.2268 2.5C13.2218 2.5 13.2169 2.5 13.212 2.5C13.2071 2.5 13.2022 2.5 13.1973 2.5C13.1924 2.5 13.1875 2.5 13.1826 2.5C13.1777 2.5 13.1728 2.5 13.1679 2.5C13.163 2.5 13.1581 2.5 13.1532 2.5C13.1483 2.5 13.1435 2.5 13.1386 2.5C13.1337 2.5 13.1288 2.5 13.1239 2.5C13.119 2.5 13.1141 2.5 13.1093 2.5C13.1044 2.5 13.0995 2.5 13.0946 2.5C13.0897 2.5 13.0848 2.5 13.08 2.5C13.0751 2.5 13.0702 2.5 13.0653 2.5C13.0605 2.5 13.0556 2.5 13.0507 2.5C13.0459 2.5 13.041 2.5 13.0361 2.5C13.0313 2.5 13.0264 2.5 13.0215 2.5C13.0167 2.5 13.0118 2.5 13.0069 2.5C13.0021 2.5 12.9972 2.5 12.9924 2.5C12.9875 2.5 12.9826 2.5 12.9778 2.5C12.9729 2.5 12.9681 2.5 12.9632 2.5C12.9584 2.5 12.9535 2.5 12.9487 2.5C12.9438 2.5 12.939 2.5 12.9341 2.5C12.9293 2.5 12.9244 2.5 12.9196 2.5C12.9147 2.5 12.9099 2.5 12.905 2.5C12.9002 2.5 12.8954 2.5 12.8905 2.5C12.8857 2.5 12.8808 2.5 12.876 2.5C12.8712 2.5 12.8663 2.5 12.8615 2.5C12.8567 2.5 12.8518 2.5 12.847 2.5C12.8422 2.5 12.8373 2.5 12.8325 2.5C12.8277 2.5 12.8228 2.5 12.818 2.5C12.8132 2.5 12.8084 2.5 12.8035 2.5C12.7987 2.5 12.7939 2.5 12.7891 2.5C12.7842 2.5 12.7794 2.5 12.7746 2.5C12.7698 2.5 12.7649 2.5 12.7601 2.5C12.7553 2.5 12.7505 2.5 12.7457 2.5C12.7409 2.5 12.736 2.5 12.7312 2.5C12.7264 2.5 12.7216 2.5 12.7168 2.5C12.712 2.5 12.7072 2.5 12.7024 2.5C12.6975 2.5 12.6927 2.5 12.6879 2.5C12.6831 2.5 12.6783 2.5 12.6735 2.5C12.6687 2.5 12.6639 2.5 12.6591 2.5C12.6543 2.5 12.6495 2.5 12.6447 2.5C12.6399 2.5 12.6351 2.5 12.6303 2.5C12.6255 2.5 12.6207 2.5 12.6159 2.5C12.6111 2.5 12.6063 2.5 12.6015 2.5C12.5967 2.5 12.5919 2.5 12.5871 2.5C12.5823 2.5 12.5775 2.5 12.5727 2.5C12.5679 2.5 12.5631 2.5 12.5583 2.5C12.5535 2.5 12.5487 2.5 12.5439 2.5C12.5391 2.5 12.5344 2.5 12.5296 2.5C12.5248 2.5 12.52 2.5 12.5152 2.5C12.5104 2.5 12.5056 2.5 12.5008 2.5C12.4961 2.5 12.4913 2.5 12.4865 2.5C12.4817 2.5 12.4769 2.5 12.4721 2.5C12.4673 2.5 12.4626 2.5 12.4578 2.5C12.453 2.5 12.4482 2.5 12.4434 2.5C12.4387 2.5 12.4339 2.5 12.4291 2.5C12.4243 2.5 12.4195 2.5 12.4148 2.5C12.41 2.5 12.4052 2.5 12.4004 2.5C12.3956 2.5 12.3909 2.5 12.3861 2.5C12.3813 2.5 12.3765 2.5 12.3718 2.5C12.367 2.5 12.3622 2.5 12.3574 2.5C12.3527 2.5 12.3479 2.5 12.3431 2.5C12.3383 2.5 12.3336 2.5 12.3288 2.5C12.324 2.5 12.3193 2.5 12.3145 2.5C12.3097 2.5 12.3049 2.5 12.3002 2.5C12.2954 2.5 12.2906 2.5 12.2859 2.5C12.2811 2.5 12.2763 2.5 12.2715 2.5C12.2668 2.5 12.262 2.5 12.2572 2.5C12.2525 2.5 12.2477 2.5 12.2429 2.5C12.2382 2.5 12.2334 2.5 12.2286 2.5C12.2239 2.5 12.2191 2.5 12.2143 2.5C12.2096 2.5 12.2048 2.5 12.2 2.5C12.1953 2.5 12.1905 2.5 12.1857 2.5C12.181 2.5 12.1762 2.5 12.1715 2.5C12.1667 2.5 12.1619 2.5 12.1572 2.5C12.1524 2.5 12.1476 2.5 12.1429 2.5C12.1381 2.5 12.1333 2.5 12.1286 2.5C12.1238 2.5 12.1191 2.5 12.1143 2.5C12.1095 2.5 12.1048 2.5 12.1 2.5C12.0952 2.5 12.0905 2.5 12.0857 2.5C12.0809 2.5 12.0762 2.5 12.0714 2.5C12.0667 2.5 12.0619 2.5 12.0571 2.5C12.0524 2.5 12.0476 2.5 12.0429 2.5C12.0381 2.5 12.0333 2.5 12.0286 2.5C12.0238 2.5 12.019 2.5 12.0143 2.5C12.0095 2.5 12.0048 2.5 12 2.5C11.9952 2.5 11.9905 2.5 11.9857 2.5C11.981 2.5 11.9762 2.5 11.9714 2.5C11.9667 2.5 11.9619 2.5 11.9571 2.5C11.9524 2.5 11.9476 2.5 11.9429 2.5C11.9381 2.5 11.9333 2.5 11.9286 2.5C11.9238 2.5 11.9191 2.5 11.9143 2.5C11.9095 2.5 11.9048 2.5 11.9 2.5C11.8952 2.5 11.8905 2.5 11.8857 2.5C11.8809 2.5 11.8762 2.5 11.8714 2.5C11.8667 2.5 11.8619 2.5 11.8571 2.5C11.8524 2.5 11.8476 2.5 11.8428 2.5C11.8381 2.5 11.8333 2.5 11.8285 2.5C11.8238 2.5 11.819 2.5 11.8143 2.5C11.8095 2.5 11.8047 2.5 11.8 2.5C11.7952 2.5 11.7904 2.5 11.7857 2.5C11.7809 2.5 11.7761 2.5 11.7714 2.5C11.7666 2.5 11.7618 2.5 11.7571 2.5C11.7523 2.5 11.7475 2.5 11.7428 2.5C11.738 2.5 11.7332 2.5 11.7285 2.5C11.7237 2.5 11.7189 2.5 11.7141 2.5C11.7094 2.5 11.7046 2.5 11.6998 2.5C11.6951 2.5 11.6903 2.5 11.6855 2.5C11.6807 2.5 11.676 2.5 11.6712 2.5C11.6664 2.5 11.6617 2.5 11.6569 2.5C11.6521 2.5 11.6473 2.5 11.6426 2.5C11.6378 2.5 11.633 2.5 11.6282 2.5C11.6235 2.5 11.6187 2.5 11.6139 2.5C11.6091 2.5 11.6044 2.5 11.5996 2.5C11.5948 2.5 11.59 2.5 11.5852 2.5C11.5805 2.5 11.5757 2.5 11.5709 2.5C11.5661 2.5 11.5613 2.5 11.5566 2.5C11.5518 2.5 11.547 2.5 11.5422 2.5C11.5374 2.5 11.5327 2.5 11.5279 2.5C11.5231 2.5 11.5183 2.5 11.5135 2.5C11.5087 2.5 11.5039 2.5 11.4992 2.5C11.4944 2.5 11.4896 2.5 11.4848 2.5C11.48 2.5 11.4752 2.5 11.4704 2.5C11.4656 2.5 11.4609 2.5 11.4561 2.5C11.4513 2.5 11.4465 2.5 11.4417 2.5C11.4369 2.5 11.4321 2.5 11.4273 2.5C11.4225 2.5 11.4177 2.5 11.4129 2.5C11.4081 2.5 11.4033 2.5 11.3985 2.5C11.3937 2.5 11.3889 2.5 11.3841 2.5C11.3793 2.5 11.3745 2.5 11.3697 2.5C11.3649 2.5 11.3601 2.5 11.3553 2.5C11.3505 2.5 11.3457 2.5 11.3409 2.5C11.3361 2.5 11.3313 2.5 11.3265 2.5C11.3217 2.5 11.3169 2.5 11.3121 2.5C11.3073 2.5 11.3025 2.5 11.2976 2.5C11.2928 2.5 11.288 2.5 11.2832 2.5C11.2784 2.5 11.2736 2.5 11.2688 2.5C11.264 2.5 11.2591 2.5 11.2543 2.5C11.2495 2.5 11.2447 2.5 11.2399 2.5C11.2351 2.5 11.2302 2.5 11.2254 2.5C11.2206 2.5 11.2158 2.5 11.2109 2.5C11.2061 2.5 11.2013 2.5 11.1965 2.5C11.1916 2.5 11.1868 2.5 11.182 2.5C11.1772 2.5 11.1723 2.5 11.1675 2.5C11.1627 2.5 11.1578 2.5 11.153 2.5C11.1482 2.5 11.1433 2.5 11.1385 2.5C11.1337 2.5 11.1288 2.5 11.124 2.5C11.1192 2.5 11.1143 2.5 11.1095 2.5C11.1046 2.5 11.0998 2.5 11.095 2.5C11.0901 2.5 11.0853 2.5 11.0804 2.5C11.0756 2.5 11.0707 2.5 11.0659 2.5C11.061 2.5 11.0562 2.5 11.0513 2.5C11.0465 2.5 11.0416 2.5 11.0368 2.5C11.0319 2.5 11.0271 2.5 11.0222 2.5C11.0174 2.5 11.0125 2.5 11.0076 2.5C11.0028 2.5 10.9979 2.5 10.9931 2.5C10.9882 2.5 10.9833 2.5 10.9785 2.5C10.9736 2.5 10.9687 2.5 10.9639 2.5C10.959 2.5 10.9541 2.5 10.9493 2.5C10.9444 2.5 10.9395 2.5 10.9347 2.5C10.9298 2.5 10.9249 2.5 10.92 2.5C10.9152 2.5 10.9103 2.5 10.9054 2.5C10.9005 2.5 10.8956 2.5 10.8907 2.5C10.8859 2.5 10.881 2.5 10.8761 2.5C10.8712 2.5 10.8663 2.5 10.8614 2.5C10.8565 2.5 10.8517 2.5 10.8468 2.5C10.8419 2.5 10.837 2.5 10.8321 2.5C10.8272 2.5 10.8223 2.5 10.8174 2.5C10.8125 2.5 10.8076 2.5 10.8027 2.5C10.7978 2.5 10.7929 2.5 10.788 2.5C10.7831 2.5 10.7782 2.5 10.7732 2.5C10.7683 2.5 10.7634 2.5 10.7585 2.5C10.7536 2.5 10.7487 2.5 10.7438 2.5C10.7389 2.5 10.7339 2.5 10.729 2.5C10.7241 2.5 10.7192 2.5 10.7143 2.5C10.7093 2.5 10.7044 2.5 10.6995 2.5C10.6945 2.5 10.6896 2.5 10.6847 2.5C10.6798 2.5 10.6748 2.5 10.6699 2.5C10.665 2.5 10.66 2.5 10.6551 2.5C10.6501 2.5 10.6452 2.5 10.6403 2.5C10.6353 2.5 10.6304 2.5 10.6254 2.5C10.6205 2.5 10.6155 2.5 10.6106 2.5C10.6056 2.5 10.6007 2.5 10.5957 2.5C10.5908 2.5 10.5858 2.5 10.5809 2.5C10.5759 2.5 10.5709 2.5 10.566 2.5C10.561 2.5 10.5561 2.5 10.5511 2.5C10.5461 2.5 10.5412 2.5 10.5362 2.5C10.5312 2.5 10.5262 2.5 10.5213 2.5C10.5163 2.5 10.5113 2.5 10.5063 2.5C10.5014 2.5 10.4964 2.5 10.4914 2.5C10.4864 2.5 10.4814 2.5 10.4764 2.5C10.4715 2.5 10.4665 2.5 10.4615 2.5C10.4565 2.5 10.4515 2.5 10.4465 2.5C10.4415 2.5 10.4365 2.5 10.4315 2.5C10.4265 2.5 10.4215 2.5 10.4165 2.5C10.4115 2.5 10.4065 2.5 10.4015 2.5C10.3965 2.5 10.3915 2.5 10.3864 2.5C10.3814 2.5 10.3764 2.5 10.3714 2.5C10.3664 2.5 10.3614 2.5 10.3563 2.5C10.3513 2.5 10.3463 2.5 10.3413 2.5C10.3362 2.5 10.3312 2.5 10.3262 2.5C10.3211 2.5 10.3161 2.5 10.3111 2.5C10.306 2.5 10.301 2.5 10.2959 2.5C10.2909 2.5 10.2859 2.5 10.2808 2.5C10.2758 2.5 10.2707 2.5 10.2657 2.5C10.2606 2.5 10.2556 2.5 10.2505 2.5C10.2455 2.5 10.2404 2.5 10.2353 2.5C10.2303 2.5 10.2252 2.5 10.2201 2.5C10.2151 2.5 10.21 2.5 10.2049 2.5C10.1999 2.5 10.1948 2.5 10.1897 2.5C10.1846 2.5 10.1796 2.5 10.1745 2.5C10.1694 2.5 10.1643 2.5 10.1592 2.5C10.1541 2.5 10.1491 2.5 10.144 2.5C10.1389 2.5 10.1338 2.5 10.1287 2.5C10.1236 2.5 10.1185 2.5 10.1134 2.5C10.1083 2.5 10.1032 2.5 10.0981 2.5C10.093 2.5 10.0879 2.5 10.0827 2.5C10.0776 2.5 10.0725 2.5 10.0674 2.5C10.0623 2.5 10.0572 2.5 10.052 2.5C10.0469 2.5 10.0418 2.5 10.0367 2.5C10.0315 2.5 10.0264 2.5 10.0213 2.5C10.0161 2.5 10.011 2.5 10.0058 2.5C10.0007 2.5 9.99556 2.5 9.99042 2.5C9.98527 2.5 9.98013 2.5 9.97497 2.5C9.96982 2.5 9.96467 2.5 9.95951 2.5C9.95436 2.5 9.9492 2.5 9.94403 2.5C9.93887 2.5 9.93371 2.5 9.92854 2.5C9.92337 2.5 9.9182 2.5 9.91303 2.5C9.90785 2.5 9.90267 2.5 9.8975 2.5C9.89232 2.5 9.88713 2.5 9.88195 2.5C9.87676 2.5 9.87157 2.5 9.86638 2.5C9.86119 2.5 9.856 2.5 9.8508 2.5C9.8456 2.5 9.8404 2.5 9.8352 2.5C9.82999 2.5 9.82479 2.5 9.81958 2.5C9.81437 2.5 9.80915 2.5 9.80394 2.5C9.79872 2.5 9.7935 2.5 9.78828 2.5C9.78306 2.5 9.77784 2.5 9.77261 2.5C9.76738 2.5 9.76215 2.5 9.75692 2.5C9.75168 2.5 9.74644 2.5 9.7412 2.5C9.73596 2.5 9.73072 2.5 9.72547 2.5C9.72023 2.5 9.71498 2.5 9.70972 2.5C9.70447 2.5 9.69922 2.5 9.69396 2.5C9.6887 2.5 9.68343 2.5 9.67817 2.5C9.6729 2.5 9.66763 2.5 9.66236 2.5C9.65709 2.5 9.65181 2.5 9.64654 2.5C9.64126 2.5 9.63598 2.5 9.63069 2.5C9.62541 2.5 9.62012 2.5 9.61483 2.5C9.60953 2.5 9.60424 2.5 9.59894 2.5C9.59364 2.5 9.58834 2.5 9.58303 2.5C9.57773 2.5 9.57242 2.5 9.56711 2.5C9.5618 2.5 9.55648 2.5 9.55117 2.5C9.54585 2.5 9.54053 2.5 9.5352 2.5C9.52987 2.5 9.52455 2.5 9.51921 2.5C9.51388 2.5 9.50855 2.5 9.50321 2.5C9.49787 2.5 9.49253 2.5 9.48718 2.5C9.48184 2.5 9.47649 2.5 9.47113 2.5C9.46578 2.5 9.46043 2.5 9.45507 2.5C9.44971 2.5 9.44434 2.5 9.43898 2.5C9.43361 2.5 9.42824 2.5 9.42287 2.5C9.41749 2.5 9.41212 2.5 9.40673 2.5C9.40135 2.5 9.39597 2.5 9.39058 2.5C9.38519 2.5 9.3798 2.5 9.37441 2.5C9.36901 2.5 9.36361 2.5 9.35821 2.5C9.35281 2.5 9.3474 2.5 9.34199 2.5C9.33658 2.5 9.33117 2.5 9.32575 2.5C9.32034 2.5 9.31492 2.5 9.30949 2.5C9.30407 2.5 9.29864 2.5 9.29321 2.5C9.28778 2.5 9.28234 2.5 9.2769 2.5C9.27146 2.5 9.26602 2.5 9.26057 2.5C9.25513 2.5 9.24968 2.5 9.24422 2.5C9.23877 2.5 9.23331 2.5 9.22785 2.5C9.22239 2.5 9.21692 2.5 9.21145 2.5C9.20599 2.5 9.20051 2.5 9.19504 2.5C9.18956 2.5 9.18408 2.5 9.17859 2.5C9.17311 2.5 9.16762 2.5 9.16213 2.5C9.15664 2.5 9.15114 2.5 9.14564 2.5C9.14014 2.5 9.13464 2.5 9.12913 2.5C9.12362 2.5 9.11811 2.5 9.11259 2.5C9.10708 2.5 9.10156 2.5 9.09604 2.5C9.09051 2.5 9.08499 2.5 9.07945 2.5C9.07392 2.5 9.06839 2.5 9.06285 2.5C9.05731 2.5 9.05177 2.5 9.04622 2.5C9.04067 2.5 9.03512 2.5 9.02956 2.5C9.02401 2.5 9.01845 2.5 9.01289 2.5C9.00732 2.5 9.00176 2.5 8.99618 2.5C8.99061 2.5 8.98504 2.5 8.97946 2.5C8.97388 2.5 8.96829 2.5 8.96271 2.5C8.95712 2.5 8.95153 2.5 8.94593 2.5C8.94033 2.5 8.93473 2.5 8.92913 2.5C8.92353 2.5 8.91792 2.5 8.9123 2.5C8.90669 2.5 8.90107 2.5 8.89545 2.5C8.88983 2.5 8.88421 2.5 8.87858 2.5C8.87295 2.5 8.86731 2.5 8.86168 2.5C8.85604 2.5 8.8504 2.5 8.84475 2.5C8.8391 2.5 8.83345 2.5 8.8278 2.5C8.82214 2.5 8.81648 2.5 8.81082 2.5C8.80516 2.5 8.79949 2.5 8.79382 2.5C8.78815 2.5 8.78247 2.5 8.77679 2.5C8.77111 2.5 8.76542 2.5 8.75973 2.5C8.75404 2.5 8.74835 2.5 8.74265 2.5C8.73695 2.5 8.73125 2.5 8.72554 2.5C8.71984 2.5 8.71413 2.5 8.70841 2.5C8.70269 2.5 8.69697 2.5 8.69125 2.5C8.68552 2.5 8.67979 2.5 8.67406 2.5C8.66833 2.5 8.66259 2.5 8.65685 2.5C8.6511 2.5 8.64536 2.5 8.63961 2.5C8.63385 2.5 8.6281 2.5 8.62234 2.5C8.61658 2.5 8.61081 2.5 8.60504 2.5C8.59927 2.5 8.5935 2.5 8.58772 2.5C8.58194 2.5 8.57616 2.5 8.57037 2.5C8.56458 2.5 8.55879 2.5 8.55299 2.5C8.5472 2.5 8.5414 2.5 8.53559 2.5C8.52978 2.5 8.52397 2.5 8.51816 2.5C8.51234 2.5 8.50652 2.5 8.5007 2.5C8.49487 2.5 8.48904 2.5 8.48321 2.5C8.47737 2.5 8.47154 2.5 8.46569 2.5C8.45985 2.5 8.454 2.5 8.44815 2.5C8.44229 2.5 8.43644 2.5 8.43057 2.5C8.42471 2.5 8.41885 2.5 8.41297 2.5C8.4071 2.5 8.40122 2.5 8.39534 2.5C8.38946 2.5 8.38358 2.5 8.37768 2.5C8.37179 2.5 8.3659 2.5 8.36 2.5C8.3541 2.5 8.34819 2.5 8.34228 2.5C8.33637 2.5 8.33045 2.5 8.32453 2.5C8.31861 2.5 8.31269 2.5 8.30676 2.5C8.30083 2.5 8.2949 2.5 8.28896 2.5C8.28302 2.5 8.27707 2.5 8.27112 2.5C8.26517 2.5 8.25922 2.5 8.25326 2.5C8.2473 2.5 8.24134 2.5 8.23537 2.5C8.2294 2.5 8.22342 2.5 8.21744 2.5C8.21146 2.5 8.20548 2.5 8.19949 2.5C8.1935 2.5 8.18751 2.5 8.18151 2.5C8.17551 2.5 8.1695 2.5 8.1635 2.5C8.15749 2.5 8.15147 2.5 8.14545 2.5C8.13943 2.5 8.13341 2.5 8.12738 2.5C8.12135 2.5 8.11531 2.5 8.10927 2.5C8.10323 2.5 8.09719 2.5 8.09114 2.5C8.08509 2.5 8.07903 2.5 8.07297 2.5C8.06691 2.5 8.06085 2.5 8.05478 2.5C8.04871 2.5 8.04263 2.5 8.03655 2.5C8.03047 2.5 8.02438 2.5 8.01829 2.5C8.0122 2.5 8.0061 2.5 8 2.5V4.5ZM20 8.5V16.5H22V8.5H20ZM16 20.5H8V22.5H16V20.5ZM4 16.5V8.5H2V16.5H4ZM8 20.5C5.79086 20.5 4 18.7091 4 16.5H2C2 19.8137 4.68629 22.5 8 22.5V20.5ZM20 16.5C20 18.7091 18.2091 20.5 16 20.5V22.5C19.3137 22.5 22 19.8137 22 16.5H20ZM16 4.5C18.2091 4.5 20 6.29086 20 8.5H22C22 5.18629 19.3137 2.5 16 2.5V4.5ZM3.56556 4.4582C2.59384 5.52381 2 6.94371 2 8.5H4C4 7.46151 4.39444 6.51745 5.04338 5.80581L3.56556 4.4582Z" fill="#F6A80B"/>
<path id="Line" d="M6 8.5H21" stroke="#F6A80B" stroke-width="2" stroke-linecap="round" stroke-linejoin="round"/>
<path id="Line_2" d="M16.5 2L16.5 5" stroke="#F6A80B" stroke-width="2" stroke-linecap="round" stroke-linejoin="round"/>
<path id="Line_3" d="M7.5 2L7.5 5" stroke="#F6A80B" stroke-width="2" stroke-linecap="round" stroke-linejoin="round"/>
<g id="Group 220">
<g id="Group 218">
<path id="Line_4" d="M6.5 12.5H7.5" stroke="#F6A80B" stroke-width="2" stroke-linecap="round" stroke-linejoin="round"/>
<path id="Line_5" d="M11.5 12.5H12.5" stroke="#F6A80B" stroke-width="2" stroke-linecap="round" stroke-linejoin="round"/>
<path id="Line_6" d="M16.5 12.5H17.5" stroke="#F6A80B" stroke-width="2" stroke-linecap="round" stroke-linejoin="round"/>
</g>
<g id="Group 219">
<path id="Line_7" d="M6.5 16.5H7.5" stroke="#F6A80B" stroke-width="2" stroke-linecap="round" stroke-linejoin="round"/>
<path id="Line_8" d="M11.5 16.5H12.5" stroke="#F6A80B" stroke-width="2" stroke-linecap="round" stroke-linejoin="round"/>
<path id="Line_9" d="M16.5 16.5H17.5" stroke="#F6A80B" stroke-width="2" stroke-linecap="round" stroke-linejoin="round"/>
</g>
</g>
</g>
</g>
</svg>
