<svg width="361" height="225" viewBox="0 0 361 225" fill="none" xmlns="http://www.w3.org/2000/svg">
<rect width="361" height="225" rx="25" fill="url(#paint0_linear_109_13088)"/>
<g clip-path="url(#clip0_109_13088)">
<path fill-rule="evenodd" clip-rule="evenodd" d="M135.192 91.8229C136.825 91.0098 138.227 93.8037 136.201 94.5735C134.824 95.1012 133.08 92.8782 135.192 91.8229ZM134.901 117.158C135.636 116.25 135.5 114.139 135.414 112.807C135.38 112.184 135.312 111.242 135.209 110.671C135.021 109.633 134.987 109.866 134.106 109.503C132.14 108.699 130.601 106.502 131.61 103.63C133.303 98.8119 140.911 100.49 138.611 103.846C137.782 105.048 136.175 104.157 135.106 104.919C135.2 106.034 136.337 106.06 138.021 106.017C139.167 105.991 140.15 105.775 141.142 105.377C142.988 104.633 144.364 103.267 145.373 101.969C146.142 100.974 145.792 100.127 145.527 98.8032C144.185 92.0824 140.663 86.4427 133.756 83.9084C125.823 81.0107 125.131 85.7854 123.874 86.9617C122.378 85.9324 119.745 85.4048 117.95 86.6676L106.829 97.8345C105.085 99.599 100.674 103.76 99.5539 105.628C96.4423 110.818 98.7845 116.95 99.8702 117.236L114.248 117.314C115.334 115.895 116.941 114.459 118.249 113.119C118.839 112.522 119.497 111.579 120.788 111.614C122.754 111.674 125.686 116.579 127.285 117.201C127.977 117.469 134.346 117.383 134.901 117.141V117.158Z" fill="#FEFEFE"/>
<path fill-rule="evenodd" clip-rule="evenodd" d="M100.578 118.516C101.194 119.563 104.502 122.711 105.596 123.836L109.46 127.815C110.084 128.446 110.041 128.403 111.17 128.533C117.17 129.251 123.556 129.83 129.489 130.799C128.882 130.816 118.145 133.437 115.64 133.809C116.863 135.686 121.12 139.155 123.265 140.409C126.736 142.45 130.591 142.563 134.019 140.504C137.729 138.272 142.405 133.826 145.277 130.513L148.628 126.898C147.859 126.474 142.072 125.687 140.704 125.462L133.66 124.286C133.37 124.216 133.404 124.208 133.164 124.121C133.122 124.104 133.036 124.121 133.002 124.043C132.976 123.974 132.891 123.991 132.84 123.957C136.678 123.274 142.106 123.075 146.218 122.703C153.193 122.063 152.492 123.204 156.39 118.49L100.578 118.516Z" fill="#FEFEFE"/>
<path fill-rule="evenodd" clip-rule="evenodd" d="M148.748 98.8465C146.295 99.0714 145.406 106.45 137.824 106.458C136.601 106.458 134.413 106.38 134.686 104.945C134.96 103.517 137.379 104.711 138.225 103.656C140.123 101.277 135.233 100.023 132.968 102.289C129.532 105.74 133.19 111.614 140.841 109.209C145.466 107.756 149.133 101.666 148.74 98.8379L148.748 98.8465Z" fill="#FEFEFE"/>
<path fill-rule="evenodd" clip-rule="evenodd" d="M138.211 117.21C145.058 117.426 144.306 117.729 145.015 114.9C145.725 112.072 146.093 109.347 146.152 106.268L145.272 106.864C145.033 107.089 144.964 107.254 144.699 107.504C143.571 108.594 141.545 109.511 139.929 109.944C140.092 114.364 139.416 114.597 138.211 117.201V117.21Z" fill="#FEFEFE"/>
<path fill-rule="evenodd" clip-rule="evenodd" d="M168.798 110.652C169.653 111.526 170.542 112.884 171.32 113.879C171.858 114.565 173.269 116.804 174.055 117.019C175.175 116.118 177.945 111.694 179.184 110.638V119.628H182.723L182.706 105.515C178.817 105.515 179.235 105.259 178.466 106.301L173.978 112.131C173.226 111.459 172.046 109.704 171.371 108.83C168.268 104.795 169.721 105.515 165.156 105.515V119.622H168.721L168.798 110.645V110.652ZM212.07 118.136L212.095 119.568L215.284 119.628V115.392L215.309 109.549C211.292 109.549 212.446 109.072 210.292 111.667L208.71 113.536C208.71 113.536 208.599 113.651 208.573 113.624C208.556 113.59 208.479 113.684 208.437 113.704C207.778 112.353 206.009 110.921 205.308 109.556H201.906V119.642H205.137V113.893C205.59 114.168 207.129 116.199 207.599 116.804L208.531 117.759C209.565 117.409 210.685 115.029 212.052 113.933L212.07 118.136ZM195.426 115.594C193.81 119.077 186.946 117.221 188.767 113.442C190.297 110.268 197.144 111.889 195.426 115.594ZM195.529 118.552L195.597 119.635H198.931V109.549H195.597L195.434 110.497C195.426 110.524 195.392 110.578 195.358 110.611C193.092 107.955 185.082 109.058 185.245 114.787C185.373 119.433 192.306 121.612 195.529 118.552ZM223.071 111.976C225.285 111.351 227.157 112.333 227.653 113.61C228.329 115.359 227.072 116.797 225.567 117.208C220.883 118.485 219.105 113.093 223.071 111.97V111.976ZM217.626 113.94C217.669 116.273 218.387 118.223 221.191 119.346C226.824 121.598 233.252 117.14 230.525 112.339C230.047 111.499 228.918 110.524 228.046 110.094C226.739 109.455 225.362 109.273 223.507 109.287C220.31 109.663 218.019 111.331 217.626 113.946V113.94ZM233.56 109.569L233.466 119.628L236.783 119.615V115.789L241.852 115.802L241.878 119.635L245.203 119.622L245.186 109.569H241.963L241.878 113.261L236.774 113.335L236.757 109.569H233.56ZM251.956 119.622H254.324L254.333 112.528C254.521 111.963 254.145 112.4 254.692 112.05L258.342 112.03L258.316 109.549H247.032L246.938 111.99L250.982 112.05V119.635L251.948 119.628L251.956 119.622Z" fill="#FEFEFE"/>
</g>
<defs>
<linearGradient id="paint0_linear_109_13088" x1="0" y1="0" x2="265.997" y2="307.248" gradientUnits="userSpaceOnUse">
<stop stop-color="#1E7167"/>
<stop offset="1" stop-color="#26857A"/>
</linearGradient>
<clippath id="clip0_109_13088">
<rect width="164" height="59" fill="white" transform="translate(98 83)"/>
</clippath>
</defs>
</svg>
