<svg width="180" height="180" viewBox="0 0 180 180" fill="none" xmlns="http://www.w3.org/2000/svg">
<g clip-path="url(#clip0_1_8733)">
<rect width="180" height="180" rx="16.875" fill="#2A509D"/>
<path opacity="0.8" d="M208.162 17.4375L4.45673 111.791L-36.5625 128.851L-5.27665 219.375L230.062 165.409L208.162 17.4375Z" fill="#263177"/>
<path opacity="0.6" d="M223.827 37.2904L64.5853 195.533L31.8573 225.574L92.1741 299.973L294.939 168.889L223.827 37.2904Z" fill="#263177"/>
<path opacity="0.7" d="M240.188 40.3702L-16.1415 86.625C-22.2777 43.3843 -34.1332 -43.0276 -32.466 -42.7493C-30.7988 -42.4711 109.476 -39.1556 179.405 -37.5326L240.188 40.3702Z" fill="#223982"/>
<path fill-rule="evenodd" clip-rule="evenodd" d="M212.302 45.4022L106.613 64.4738L208.163 17.4375L212.302 45.4022Z" fill="#1B3176"/>
<path d="M74.3716 92.2752L85.9235 104.45C88.1416 106.787 91.8663 106.787 94.0843 104.45L105.636 92.2752C109.793 87.8944 109.793 80.7915 105.636 76.4107C101.479 72.0298 94.7398 72.0298 90.5829 76.4107C90.2682 76.7424 89.7397 76.7424 89.4249 76.4107C85.2681 72.0298 78.5284 72.0298 74.3716 76.4107C70.2147 80.7915 70.2147 87.8944 74.3716 92.2752Z" fill="white"/>
</g>
<defs>
<clippath id="clip0_1_8733">
<rect width="180" height="180" rx="20" fill="white"/>
</clippath>
</defs>
</svg>
