<svg width="365" height="206" viewBox="0 0 365 206" fill="none" xmlns="http://www.w3.org/2000/svg">
<g clip-path="url(#clip0_109_13735)">
<rect width="462.193" height="205.419" rx="25.3256" fill="url(#paint0_linear_109_13735)"/>
<path d="M216.383 124.022C216.811 135.885 223.758 141.999 234.053 139.489C233.848 137.33 234.39 134.723 237.665 133.515C237.793 133.466 237.906 133.383 237.993 133.277C238.079 133.17 238.136 133.042 238.157 132.906C238.179 132.771 238.164 132.632 238.115 132.503C238.066 132.375 237.984 132.262 237.877 132.175C234.895 129.719 226.267 123.464 216.383 124.022Z" fill="#655BAA"/>
<path d="M226.589 144.691C227.311 142.869 229.399 139.904 234.964 142.891C234.483 141.811 234.176 140.663 234.053 139.487L227.728 134.377L224.493 132.911C224.384 132.862 224.261 132.849 224.144 132.875C224.026 132.901 223.92 132.964 223.842 133.055C223.764 133.147 223.717 133.261 223.709 133.381C223.701 133.501 223.732 133.62 223.798 133.721L225.091 135.71C225.161 135.819 225.196 135.947 225.192 136.076C225.187 136.206 225.142 136.33 225.064 136.434C224.986 136.537 224.878 136.613 224.755 136.653C224.631 136.693 224.499 136.694 224.375 136.655C216.942 134.367 216.382 124.021 216.382 124.021C216.382 124.021 215.471 134.997 225.291 144.956C225.384 145.049 225.498 145.118 225.624 145.157C225.75 145.195 225.883 145.201 226.012 145.175C226.141 145.148 226.261 145.09 226.362 145.006C226.463 144.921 226.541 144.813 226.589 144.691Z" fill="#3E3A6B"/>
<path d="M293.754 164.326L294.152 159.367C294.262 158.006 294.073 156.637 293.598 155.357C293.124 154.076 292.376 152.915 291.406 151.954L291.055 151.606C289.29 149.855 288.292 147.475 288.278 144.989C288.226 136.859 289.782 128.8 292.855 121.273C293.636 119.422 293.864 117.385 293.512 115.407C293.122 113.159 292.407 110.979 291.388 108.938C291.388 108.938 275.104 133.082 277.972 169.742L293.754 164.326Z" fill="#B4453F"/>
<path d="M345.764 130.858C347.853 134.441 349.451 139.951 348.68 148.275C347.9 156.681 345.318 160.523 343.24 165.852C326.11 183.785 316.917 216.388 294.511 216.254C271.658 214.509 254.455 225.078 254.455 225.078C254.455 225.078 226.066 240.293 214.95 209.357C209.767 194.934 217.949 175.531 229.385 160.867C232.287 157.136 233.777 152.498 233.591 147.774C233.406 143.051 231.557 138.544 228.371 135.052C228.165 134.827 227.952 134.602 227.733 134.376C227.733 134.376 238.421 136.003 239.942 149.609C240.437 154.287 239.711 159.013 237.837 163.327C236.619 166.175 234.928 170.596 232.818 174.193C228.219 182.034 226.615 191.557 228.921 199.795C229.305 201.165 230.047 202.407 231.07 203.395C232.093 204.382 233.361 205.08 234.743 205.416C236.125 205.751 237.571 205.713 238.934 205.305C240.296 204.897 241.525 204.133 242.495 203.093C245.242 200.075 247.657 196.77 249.697 193.235C249.697 193.235 267.765 157.639 301.631 163.048C303.545 163.365 305.403 163.955 307.149 164.801C315.709 168.881 325.775 165.006 329.129 156.137C331.755 153.654 333.237 150.371 332.896 145.807C334.206 137.763 338.708 132.998 345.764 130.858Z" fill="#F47A6E"/>
<path d="M345.756 130.861C342.934 126.027 339.218 124.695 339.218 124.695C333.329 125.353 332.272 128.494 329.047 133.753C331.452 138.559 332.645 142.516 332.891 145.809C333.027 145.861 333.162 145.918 333.293 145.983C335.128 146.91 337.064 147.62 339.062 148.097C339.808 146.498 340.194 144.754 340.194 142.989C340.194 141.224 339.808 139.481 339.062 137.881C341.842 136.133 344.142 133.721 345.756 130.861Z" fill="#B4453F"/>
<path d="M220.229 203.779C216.942 190.535 218.684 180.064 221.418 172.892C214.639 185.135 211.093 198.624 214.95 209.356C226.065 240.292 254.454 225.077 254.454 225.077C255.794 224.292 257.174 223.577 258.587 222.934L261.467 218.451C261.467 218.451 227.396 232.651 220.229 203.779Z" fill="#B4453F"/>
<path d="M336.934 186.371C338.834 177.31 340.988 171.617 343.236 165.852C343.542 159.476 343.132 151.27 339.946 145.51C334.348 143.882 329.745 143.35 327.835 145.785C328.039 146.045 328.23 146.315 328.406 146.595C329.228 147.951 329.734 149.475 329.886 151.054C330.038 152.632 329.832 154.225 329.283 155.713C329.233 155.855 329.181 155.997 329.128 156.138C329.128 156.138 327.665 162.828 320.755 171.439C316.233 177.073 315.904 183.107 314.369 192.217C314.369 192.217 312.885 212.136 294.508 216.256C296.202 216.385 297.926 216.58 299.677 216.854C325.056 220.824 333.279 203.81 336.934 186.371Z" fill="#FEDCC6"/>
<path d="M326.197 109.379C326.197 109.379 332.16 110.629 331.024 116.024C329.888 121.419 325.117 123.814 325.117 123.814C325.117 123.814 335.571 124.155 337.615 114.728C337.616 114.728 336.568 107.047 326.197 109.379Z" fill="#3E3A6B"/>
<path d="M339.936 145.511C338.777 143.298 337.026 141.45 334.88 140.173C331.577 138.281 328.893 137.718 326.727 137.919C325.837 139.669 325.042 141.464 324.344 143.298C325.723 143.766 326.933 144.633 327.82 145.789C328.831 145.725 329.722 145.624 330.413 145.526C331.394 145.386 332.394 145.546 333.283 145.983C334.907 146.79 336.605 147.44 338.352 147.925C338.55 147.978 338.76 147.957 338.943 147.866C339.126 147.774 339.27 147.619 339.346 147.43C339.598 146.808 339.795 146.166 339.936 145.511Z" fill="#D3A285"/>
<path d="M328.164 122.236C329.644 121.326 331.063 120.32 332.413 119.226C333.625 119.059 334.203 118.461 334.272 117.519C334.958 116.819 335.568 116.05 336.092 115.223C336.532 114.98 336.88 114.599 337.083 114.139C337.286 113.679 337.332 113.165 337.215 112.676C337.652 110.872 337.6 108.984 337.062 107.208C336.719 106.105 336.039 105.137 335.118 104.44C335.118 104.44 345.57 105.164 345.711 115.366C345.343 116.349 345.255 117.415 345.456 118.445C344.799 121.739 343.159 124.757 340.752 127.1C339.836 127.132 339.171 127.799 338.698 128.949C336.281 130.865 333.577 132.388 330.686 133.461L328.164 122.236Z" fill="#655BAA"/>
<path d="M303.2 134.342C303.55 133.542 303.942 132.761 304.374 132.003C305.101 130.733 306.095 129.636 307.286 128.786C308.478 127.937 309.839 127.355 311.276 127.081C315.59 126.259 322.517 125.748 328.161 122.235C328.161 122.235 331.318 123.192 331.318 130.389C331.318 130.389 333.988 131.764 339.89 131.441C339.89 131.441 338.272 135.969 334.229 137.829C334.229 137.829 338.111 139.851 337.949 145.269L332.046 142.439C327.45 143.647 322.616 143.626 318.031 142.376C316.678 142.013 315.368 141.507 314.122 140.866C312.448 140.013 309.097 138.528 305.655 138.305C305.198 138.279 304.754 138.144 304.361 137.91C303.967 137.677 303.636 137.352 303.395 136.963C303.154 136.574 303.011 136.132 302.977 135.676C302.943 135.22 303.019 134.762 303.2 134.342Z" fill="#F47A6E"/>
<path d="M258.793 202.387C258.793 202.387 259.366 202.39 260.333 202.49C270.306 208.629 281.362 214.788 278.527 220.699C278.032 221.656 277.336 222.496 276.487 223.16C273.99 224.925 271.169 226.18 268.186 226.855C268.186 226.855 276.124 226.767 280.878 228.408C282.056 228.81 283.068 229.589 283.758 230.625C284.448 231.661 284.776 232.896 284.692 234.137C284.682 234.26 284.668 234.386 284.651 234.514H249.748C249.748 234.514 246.85 227.318 252.067 223.376C257.285 219.433 261.46 218.45 261.46 218.45L258.793 202.387Z" fill="#F47A6E"/>
<path d="M263.741 175.396C260.132 178.703 256.878 182.377 254.031 186.358C254.849 192.753 262.114 212.327 278.532 220.699C279.266 219.502 279.678 218.135 279.73 216.732C284.626 216.045 289.582 215.884 294.512 216.252C295.93 216.262 297.345 216.134 298.737 215.87L263.741 175.396Z" fill="#B4453F"/>
<path d="M261.265 122.235C261.265 122.235 258.019 141.334 277.528 147.937C278.764 148.357 279.818 149.189 280.513 150.295C281.207 151.401 281.499 152.712 281.34 154.008C280.276 162.7 279.332 181.144 288.057 193.23C288.639 194.037 289.337 194.755 290.127 195.361C290.127 201.459 282.715 205.204 271.957 194.27C262.742 179.369 257.385 161.674 257.567 139.969C258.418 133.984 259.653 128.061 261.265 122.235Z" fill="#FEDCC6"/>
<path d="M290.197 195.409C286.214 197.795 276.187 201.07 267.686 181.213C262.115 168.1 258.7 154.173 257.574 139.97C248.667 203.983 297.69 221.571 297.69 221.571L299.467 196.93C299.125 197.035 298.791 197.125 298.465 197.201C297.04 197.526 295.561 197.534 294.132 197.225C292.703 196.915 291.36 196.295 290.197 195.409Z" fill="#D3A285"/>
<path d="M284.697 219.455C270.946 211.758 256.387 197.006 253.149 168.781C247.14 116.377 260.391 103.047 260.391 103.047C260.391 103.047 264.088 107.922 262.856 118.091C262.856 118.091 245.788 183.034 286.476 212.845C289.884 216.062 288.485 220.318 284.697 219.455Z" fill="#F47A6E"/>
<path d="M259.152 212.179C258.391 212.178 257.662 211.876 257.124 211.338C256.586 210.8 256.283 210.071 256.283 209.31C256.282 209.095 256.305 208.881 256.35 208.672C256.392 208.484 256.389 208.289 256.342 208.103C256.295 207.916 256.205 207.743 256.08 207.598C255.953 207.454 255.795 207.34 255.618 207.267C255.44 207.194 255.249 207.162 255.057 207.175C254.988 207.18 254.919 207.183 254.852 207.183C254.091 207.182 253.361 206.879 252.824 206.341C252.286 205.803 251.983 205.074 251.982 204.313C251.981 203.92 252.06 203.532 252.216 203.172C252.373 202.811 252.602 202.487 252.889 202.22C253.013 202.111 253.113 201.978 253.185 201.83C253.256 201.681 253.297 201.519 253.305 201.355C253.313 201.19 253.287 201.025 253.23 200.87C253.173 200.716 253.086 200.574 252.973 200.453C252.86 200.333 252.725 200.236 252.574 200.17C252.423 200.103 252.26 200.067 252.095 200.064C251.931 200.061 251.767 200.091 251.614 200.152C251.461 200.214 251.322 200.306 251.205 200.422C250.674 200.922 250.25 201.524 249.961 202.194C249.671 202.863 249.521 203.584 249.52 204.313C249.52 204.961 249.639 205.604 249.871 206.21L249.154 206.913C248.536 207.493 248.087 208.23 247.856 209.045C247.625 209.86 247.621 210.723 247.843 211.541C248.066 212.358 248.507 213.1 249.119 213.686C249.731 214.272 250.491 214.68 251.317 214.867C251.475 214.902 251.638 214.906 251.798 214.879C251.957 214.851 252.11 214.792 252.247 214.706C252.383 214.619 252.502 214.507 252.595 214.374C252.688 214.242 252.755 214.093 252.79 213.935C252.826 213.777 252.83 213.613 252.802 213.454C252.775 213.294 252.716 213.142 252.629 213.005C252.543 212.868 252.43 212.75 252.298 212.657C252.166 212.563 252.016 212.497 251.858 212.462C251.466 212.373 251.107 212.178 250.817 211.899C250.528 211.62 250.321 211.267 250.218 210.879C250.115 210.491 250.121 210.082 250.234 209.696C250.347 209.311 250.563 208.963 250.859 208.692L251.288 208.272C252.003 208.92 252.881 209.361 253.828 209.548C253.891 210.92 254.48 212.214 255.472 213.162C256.465 214.111 257.784 214.641 259.157 214.643C259.484 214.643 259.797 214.513 260.028 214.282C260.259 214.051 260.389 213.737 260.389 213.41C260.389 213.083 260.259 212.77 260.028 212.539C259.797 212.308 259.484 212.178 259.157 212.178L259.152 212.179Z" fill="#B4453F"/>
<path d="M304.799 181.752C303.893 181.751 303.025 181.391 302.385 180.751C301.745 180.11 301.385 179.242 301.384 178.337C301.384 178.082 301.412 177.827 301.466 177.578C301.508 177.391 301.505 177.196 301.458 177.01C301.411 176.823 301.322 176.651 301.196 176.505C301.071 176.36 300.913 176.246 300.736 176.172C300.558 176.099 300.366 176.068 300.174 176.081C300.092 176.087 300.009 176.09 299.926 176.09C299.02 176.089 298.152 175.729 297.512 175.089C296.872 174.448 296.512 173.58 296.511 172.675C296.509 172.208 296.604 171.745 296.789 171.316C296.975 170.888 297.248 170.502 297.59 170.184C297.817 169.958 297.948 169.652 297.953 169.332C297.959 169.011 297.84 168.701 297.62 168.467C297.401 168.233 297.1 168.094 296.779 168.079C296.459 168.063 296.146 168.173 295.905 168.385C295.041 169.194 294.441 170.246 294.186 171.403C293.93 172.559 294.031 173.766 294.475 174.864L293.581 175.74C292.831 176.442 292.31 177.354 292.085 178.355C291.86 179.357 291.942 180.404 292.319 181.359C292.696 182.314 293.352 183.133 294.201 183.711C295.05 184.289 296.053 184.598 297.08 184.598C297.407 184.598 297.72 184.469 297.951 184.237C298.182 184.006 298.312 183.693 298.312 183.366C298.312 183.039 298.182 182.725 297.951 182.494C297.72 182.263 297.407 182.133 297.08 182.133C296.545 182.133 296.022 181.972 295.58 181.67C295.139 181.368 294.799 180.94 294.605 180.441C294.41 179.943 294.371 179.397 294.492 178.876C294.613 178.355 294.889 177.883 295.283 177.521L295.88 176.935C296.719 177.736 297.777 178.27 298.92 178.47C298.956 180.006 299.591 181.467 300.69 182.54C301.788 183.614 303.262 184.216 304.798 184.218C305.125 184.218 305.439 184.088 305.67 183.857C305.901 183.626 306.031 183.312 306.031 182.985C306.031 182.659 305.901 182.345 305.67 182.114C305.439 181.883 305.125 181.753 304.798 181.753L304.799 181.752Z" fill="#B4453F"/>
<path d="M285.053 202.343C284.862 202.344 284.672 202.306 284.496 202.232C284.32 202.158 284.16 202.05 284.026 201.913C275.938 193.676 270.908 181.957 269.076 167.083C268.067 158.529 268.09 149.885 269.145 141.336C269.194 140.958 269.392 140.615 269.694 140.382C269.996 140.149 270.378 140.046 270.756 140.095C271.134 140.144 271.478 140.341 271.71 140.643C271.943 140.945 272.046 141.328 271.997 141.706C271.158 148.174 267.891 181.377 286.078 199.898C286.277 200.1 286.411 200.356 286.464 200.635C286.518 200.913 286.487 201.201 286.378 201.462C286.268 201.723 286.084 201.946 285.847 202.103C285.611 202.26 285.334 202.343 285.051 202.343L285.053 202.343Z" fill="#D3A285"/>
<path d="M340.744 127.097C339.162 121.818 336.156 118.901 334.267 117.519C333.68 118.122 333.058 118.692 332.406 119.224C333.967 120.268 337.299 123.103 338.692 128.947C339.412 128.371 340.097 127.754 340.744 127.097Z" fill="#3E3A6B"/>
<path d="M337.207 112.675C336.962 113.575 336.584 114.433 336.086 115.222C337.918 115.01 342.116 114.993 345.442 118.444C345.529 117.975 345.601 117.499 345.644 117.006C345.69 116.461 345.708 115.914 345.698 115.367C343.258 113.526 340.262 112.577 337.207 112.675Z" fill="#3E3A6B"/>
<path d="M327.433 160.771C327.046 161.623 326.578 162.572 326.016 163.603C327.809 165.692 330.034 167.366 332.539 168.51C335.043 169.653 337.766 170.238 340.519 170.225C340.863 170.225 341.217 170.214 341.572 170.196C341.944 169.187 342.32 168.201 342.699 167.221C333.375 168.279 328.461 162.213 327.433 160.771Z" fill="#D3A285"/>
<path d="M317.779 176.427C317.359 177.43 317.003 178.458 316.711 179.505C318.636 181.555 320.96 183.189 323.541 184.306C326.122 185.423 328.904 185.999 331.716 185.999C333.546 185.99 335.368 185.776 337.15 185.359C337.389 184.259 337.632 183.208 337.879 182.204C326.449 185.486 319.996 179.222 317.779 176.427Z" fill="#D3A285"/>
<path d="M318.155 200.617L318.108 200.599C316.346 199.886 314.711 198.892 313.267 197.655C313 198.562 312.671 199.541 312.266 200.562C313.75 201.705 315.392 202.63 317.139 203.307C320.116 204.38 323.251 204.948 326.416 204.987C327.721 204.993 329.024 204.866 330.303 204.607C331.028 203.426 331.688 202.207 332.282 200.955C326.317 203.69 318.245 200.652 318.155 200.617Z" fill="#D3A285"/>
<path d="M311.175 209.264C309.123 208.641 307.157 207.764 305.322 206.654C292.53 199.002 293.504 212.347 294.023 216.221C294.182 216.232 294.34 216.242 294.5 216.254C300.999 216.293 306.384 213.575 311.175 209.264Z" fill="#B4453F"/>
<path d="M319.469 130.197L324.126 128.695C324.24 128.659 324.361 128.652 324.479 128.676C324.596 128.7 324.705 128.754 324.795 128.833C324.885 128.911 324.954 129.012 324.994 129.124C325.034 129.237 325.044 129.358 325.024 129.476C324.848 130.56 324.249 132.092 322.285 132.302C320.535 132.488 319.611 131.867 319.139 131.295C319.068 131.207 319.02 131.103 318.998 130.992C318.976 130.882 318.981 130.767 319.014 130.659C319.046 130.551 319.104 130.452 319.184 130.372C319.263 130.291 319.361 130.231 319.469 130.197Z" fill="#342A35"/>
<path d="M301.043 194.854C301.043 194.854 305.105 202.821 303.497 212.135C303.497 212.135 311.887 216.834 317.647 223.703C318.453 224.668 319.52 225.381 320.72 225.757C323.412 226.595 328.169 228.875 328.165 234.517H318.147C317.229 234.516 316.324 234.307 315.498 233.906C314.673 233.504 313.949 232.921 313.381 232.2C310.281 228.271 302.914 220.319 291.375 216.09C290.282 213.066 289.781 209.859 289.9 206.646C289.931 205.655 290.221 204.69 290.742 203.847C291.263 203.005 291.996 202.313 292.868 201.843C295.374 200.497 299.08 198.1 301.043 194.854Z" fill="#F47A6E"/>
<path d="M46.0464 107.114H43.3841L35.4221 98.1909V107.114H33.2036V89.5139H35.4221V98.043L43.1869 89.5139H45.7013L38.0597 98.0676L46.0464 107.114ZM59.6327 100.483C59.6327 101.584 59.4848 102.562 59.189 103.417C58.9097 104.255 58.4988 104.97 57.9565 105.561C57.4306 106.153 56.7815 106.605 56.0091 106.917C55.2532 107.213 54.4069 107.361 53.4702 107.361C52.5992 107.361 51.7939 107.213 51.0544 106.917C50.3149 106.605 49.674 106.153 49.1317 105.561C48.5894 104.97 48.1621 104.255 47.8499 103.417C47.5541 102.562 47.4062 101.584 47.4062 100.483C47.4062 99.0207 47.6527 97.7882 48.1457 96.7858C48.6387 95.7669 49.3453 94.9945 50.2656 94.4687C51.1859 93.9264 52.2787 93.6552 53.5441 93.6552C54.7438 93.6552 55.7955 93.9264 56.6993 94.4687C57.6196 94.9945 58.3345 95.7669 58.8439 96.7858C59.3698 97.7882 59.6327 99.0207 59.6327 100.483ZM49.6494 100.483C49.6494 101.519 49.7808 102.422 50.0438 103.195C50.3231 103.951 50.7504 104.534 51.3256 104.945C51.9008 105.356 52.6321 105.561 53.5195 105.561C54.4069 105.561 55.1382 105.356 55.7133 104.945C56.2885 104.534 56.7076 103.951 56.9705 103.195C57.2499 102.422 57.3896 101.519 57.3896 100.483C57.3896 99.4316 57.2499 98.536 56.9705 97.7964C56.6911 97.0569 56.2639 96.49 55.6887 96.0956C55.1299 95.6847 54.3987 95.4793 53.4948 95.4793C52.1473 95.4793 51.1695 95.923 50.5614 96.8104C49.9534 97.6978 49.6494 98.9221 49.6494 100.483ZM77.2446 93.9017V107.114H75.2972V98.6839C75.2972 98.3388 75.3054 97.9772 75.3219 97.5992C75.3547 97.2213 75.3876 96.8515 75.4205 96.49H75.3465L71.0327 107.114H69.2086L65.0181 96.49H64.9441C64.977 96.8515 64.9934 97.2213 64.9934 97.5992C65.0098 97.9772 65.0181 98.3634 65.0181 98.7578V107.114H63.0707V93.9017H65.9548L70.1207 104.526L74.3605 93.9017H77.2446ZM86.5647 93.6552C87.6986 93.6552 88.6682 93.9017 89.4734 94.3947C90.2951 94.8877 90.9196 95.5861 91.3469 96.49C91.7906 97.3774 92.0124 98.4209 92.0124 99.6206V100.927H82.9658C82.9986 102.422 83.3766 103.565 84.0997 104.353C84.8392 105.126 85.8663 105.512 87.181 105.512C88.0191 105.512 88.7586 105.438 89.3995 105.29C90.0568 105.126 90.7306 104.896 91.4208 104.6V106.498C90.747 106.794 90.0815 107.007 89.4241 107.139C88.7668 107.287 87.9862 107.361 87.0824 107.361C85.8334 107.361 84.7242 107.106 83.7546 106.597C82.8014 106.087 82.0537 105.331 81.5114 104.329C80.9855 103.31 80.7226 102.069 80.7226 100.607C80.7226 99.1604 80.9609 97.9197 81.4375 96.8844C81.9305 95.8491 82.6125 95.052 83.4834 94.4933C84.3708 93.9346 85.3979 93.6552 86.5647 93.6552ZM86.5401 95.43C85.5048 95.43 84.6831 95.7669 84.075 96.4407C83.4834 97.098 83.1301 98.0183 83.0151 99.2015H89.7446C89.7446 98.4456 89.6296 97.7882 89.3995 97.2295C89.1694 96.6708 88.8161 96.2353 88.3395 95.923C87.8794 95.5944 87.2796 95.43 86.5401 95.43ZM105.187 93.9017V105.29H107.11V111.699H105.014V107.114H95.8197V111.699H93.7491V105.29H94.8091C95.565 104.238 96.1895 103.096 96.6825 101.864C97.1919 100.615 97.5699 99.3165 97.8164 97.969C98.0794 96.605 98.219 95.2493 98.2355 93.9017H105.187ZM100.158 95.6026C100.092 96.7201 99.9199 97.8786 99.6405 99.0783C99.3612 100.261 98.9996 101.395 98.5559 102.48C98.1287 103.565 97.6274 104.501 97.0523 105.29H103.092V95.6026H100.158ZM111.745 101.962C111.745 102.11 111.737 102.324 111.721 102.603C111.721 102.866 111.712 103.154 111.696 103.466C111.679 103.762 111.663 104.049 111.647 104.329C111.63 104.592 111.614 104.805 111.597 104.97L118.672 93.9017H121.334V107.114H119.313V99.3248C119.313 99.0618 119.313 98.7167 119.313 98.2895C119.329 97.8622 119.346 97.4431 119.362 97.0323C119.379 96.605 119.395 96.2846 119.411 96.0709L112.386 107.114H109.699V93.9017H111.745V101.962ZM126.352 107.114H123.838L127.61 101.568C127.1 101.436 126.607 101.231 126.131 100.952C125.654 100.656 125.268 100.253 124.972 99.7438C124.676 99.2179 124.528 98.5688 124.528 97.7964C124.528 96.5311 124.956 95.5697 125.81 94.9124C126.665 94.2386 127.799 93.9017 129.212 93.9017H135.128V107.114H132.959V101.864H129.754L126.352 107.114ZM126.624 97.8211C126.624 98.577 126.903 99.144 127.462 99.522C128.037 99.8835 128.834 100.064 129.853 100.064H132.959V95.7012H129.434C128.431 95.7012 127.708 95.8984 127.264 96.2928C126.837 96.6872 126.624 97.1966 126.624 97.8211ZM141.946 104.526C141.798 105.101 141.609 105.726 141.379 106.399C141.149 107.073 140.894 107.739 140.615 108.396C140.352 109.07 140.089 109.703 139.826 110.294H138.224C138.388 109.67 138.544 108.996 138.692 108.273C138.857 107.566 139.004 106.868 139.136 106.178C139.267 105.471 139.374 104.83 139.456 104.255H141.773L141.946 104.526ZM162.118 93.9017V105.29H164.041V111.699H161.946V107.114H152.751V111.699H150.681V105.29H151.741C152.497 104.238 153.121 103.096 153.614 101.864C154.124 100.615 154.501 99.3165 154.748 97.969C155.011 96.605 155.151 95.2493 155.167 93.9017H162.118ZM157.09 95.6026C157.024 96.7201 156.851 97.8786 156.572 99.0783C156.293 100.261 155.931 101.395 155.488 102.48C155.06 103.565 154.559 104.501 153.984 105.29H160.023V95.6026H157.09ZM172.917 93.6552C174.544 93.6552 175.85 94.2222 176.836 95.3561C177.838 96.49 178.34 98.1991 178.34 100.483C178.34 101.979 178.11 103.244 177.649 104.279C177.206 105.298 176.573 106.071 175.751 106.597C174.946 107.106 173.993 107.361 172.892 107.361C172.218 107.361 171.618 107.27 171.092 107.09C170.567 106.909 170.115 106.679 169.737 106.399C169.375 106.104 169.063 105.783 168.8 105.438H168.652C168.685 105.717 168.718 106.071 168.751 106.498C168.784 106.925 168.8 107.295 168.8 107.607V113.03H166.631V93.9017H168.406L168.701 95.7012H168.8C169.063 95.3232 169.375 94.9781 169.737 94.6659C170.115 94.3536 170.558 94.1071 171.068 93.9264C171.594 93.7456 172.21 93.6552 172.917 93.6552ZM172.522 95.4793C171.635 95.4793 170.92 95.6519 170.378 95.997C169.835 96.3256 169.441 96.8269 169.194 97.5006C168.948 98.1744 168.816 99.029 168.8 100.064V100.483C168.8 101.568 168.915 102.488 169.145 103.244C169.375 104 169.761 104.575 170.304 104.97C170.862 105.364 171.618 105.561 172.572 105.561C173.377 105.561 174.034 105.339 174.544 104.896C175.069 104.452 175.456 103.852 175.702 103.096C175.965 102.324 176.096 101.445 176.096 100.459C176.096 98.9468 175.801 97.7389 175.209 96.8351C174.634 95.9312 173.738 95.4793 172.522 95.4793ZM186.8 93.6798C188.411 93.6798 189.602 94.0332 190.375 94.7398C191.147 95.4465 191.533 96.5722 191.533 98.1169V107.114H189.956L189.537 105.241H189.438C189.06 105.717 188.666 106.12 188.255 106.449C187.86 106.761 187.4 106.991 186.874 107.139C186.365 107.287 185.741 107.361 185.001 107.361C184.212 107.361 183.497 107.221 182.856 106.942C182.232 106.662 181.739 106.235 181.377 105.66C181.016 105.068 180.835 104.329 180.835 103.441C180.835 102.127 181.353 101.116 182.388 100.409C183.423 99.6863 185.017 99.2919 187.17 99.2262L189.413 99.1522V98.3634C189.413 97.2624 189.175 96.4982 188.699 96.0709C188.222 95.6437 187.548 95.43 186.677 95.43C185.987 95.43 185.33 95.5368 184.705 95.7505C184.081 95.9477 183.497 96.1777 182.955 96.4407L182.289 94.8138C182.865 94.5015 183.547 94.2386 184.335 94.025C185.124 93.7949 185.946 93.6798 186.8 93.6798ZM187.441 100.73C185.798 100.796 184.656 101.059 184.015 101.519C183.391 101.979 183.078 102.628 183.078 103.466C183.078 104.206 183.3 104.748 183.744 105.093C184.204 105.438 184.787 105.611 185.494 105.611C186.612 105.611 187.54 105.307 188.28 104.699C189.019 104.074 189.389 103.121 189.389 101.839V100.656L187.441 100.73ZM209.788 93.9017V107.114H207.841V98.6839C207.841 98.3388 207.849 97.9772 207.865 97.5992C207.898 97.2213 207.931 96.8515 207.964 96.49H207.89L203.576 107.114H201.752L197.562 96.49H197.488C197.52 96.8515 197.537 97.2213 197.537 97.5992C197.553 97.9772 197.562 98.3634 197.562 98.7578V107.114H195.614V93.9017H198.498L202.664 104.526L206.904 93.9017H209.788ZM219.01 93.6798C220.62 93.6798 221.811 94.0332 222.584 94.7398C223.356 95.4465 223.742 96.5722 223.742 98.1169V107.114H222.165L221.746 105.241H221.647C221.269 105.717 220.875 106.12 220.464 106.449C220.07 106.761 219.609 106.991 219.084 107.139C218.574 107.287 217.95 107.361 217.21 107.361C216.421 107.361 215.706 107.221 215.066 106.942C214.441 106.662 213.948 106.235 213.586 105.66C213.225 105.068 213.044 104.329 213.044 103.441C213.044 102.127 213.562 101.116 214.597 100.409C215.632 99.6863 217.227 99.2919 219.379 99.2262L221.622 99.1522V98.3634C221.622 97.2624 221.384 96.4982 220.908 96.0709C220.431 95.6437 219.757 95.43 218.886 95.43C218.196 95.43 217.539 95.5368 216.914 95.7505C216.29 95.9477 215.706 96.1777 215.164 96.4407L214.499 94.8138C215.074 94.5015 215.756 94.2386 216.545 94.025C217.333 93.7949 218.155 93.6798 219.01 93.6798ZM219.65 100.73C218.007 100.796 216.865 101.059 216.224 101.519C215.6 101.979 215.287 102.628 215.287 103.466C215.287 104.206 215.509 104.748 215.953 105.093C216.413 105.438 216.996 105.611 217.703 105.611C218.821 105.611 219.749 105.307 220.489 104.699C221.228 104.074 221.598 103.121 221.598 101.839V100.656L219.65 100.73ZM230.461 104.526C230.313 105.101 230.124 105.726 229.894 106.399C229.664 107.073 229.409 107.739 229.13 108.396C228.867 109.07 228.604 109.703 228.341 110.294H226.739C226.903 109.67 227.059 108.996 227.207 108.273C227.371 107.566 227.519 106.868 227.651 106.178C227.782 105.471 227.889 104.83 227.971 104.255H230.288L230.461 104.526ZM42.0284 130.726H37.7146V142.114H35.57V130.726H31.3055V128.902H42.0284V130.726ZM50.9169 128.655C52.5438 128.655 53.8503 129.222 54.8363 130.356C55.8388 131.49 56.34 133.199 56.34 135.483C56.34 136.979 56.1099 138.244 55.6498 139.279C55.2061 140.298 54.5734 141.071 53.7517 141.597C52.9465 142.106 51.9933 142.361 50.8923 142.361C50.2185 142.361 49.6187 142.27 49.0928 142.09C48.5669 141.909 48.115 141.679 47.737 141.399C47.3755 141.104 47.0633 140.783 46.8003 140.438H46.6524C46.6853 140.717 46.7182 141.071 46.751 141.498C46.7839 141.925 46.8003 142.295 46.8003 142.607V148.03H44.6311V128.902H46.4059L46.7017 130.701H46.8003C47.0633 130.323 47.3755 129.978 47.737 129.666C48.115 129.354 48.5587 129.107 49.0682 128.926C49.594 128.746 50.2103 128.655 50.9169 128.655ZM50.5225 130.479C49.6351 130.479 48.9203 130.652 48.378 130.997C47.8356 131.326 47.4412 131.827 47.1947 132.501C46.9482 133.174 46.8168 134.029 46.8003 135.064V135.483C46.8003 136.568 46.9154 137.488 47.1454 138.244C47.3755 139 47.7617 139.575 48.304 139.97C48.8627 140.364 49.6187 140.561 50.5718 140.561C51.3771 140.561 52.0344 140.339 52.5438 139.896C53.0697 139.452 53.4559 138.852 53.7024 138.096C53.9653 137.324 54.0968 136.445 54.0968 135.459C54.0968 133.947 53.801 132.739 53.2094 131.835C52.6342 130.931 51.7386 130.479 50.5225 130.479ZM61.8428 136.962C61.8428 137.11 61.8346 137.324 61.8181 137.603C61.8181 137.866 61.8099 138.154 61.7935 138.466C61.7771 138.762 61.7606 139.049 61.7442 139.329C61.7278 139.592 61.7113 139.805 61.6949 139.97L68.7695 128.902H71.4318V142.114H69.4104V134.325C69.4104 134.062 69.4104 133.717 69.4104 133.289C69.4269 132.862 69.4433 132.443 69.4597 132.032C69.4762 131.605 69.4926 131.285 69.509 131.071L62.4837 142.114H59.7968V128.902H61.8428V136.962ZM85.6939 142.114H83.5V130.701H79.6052C79.4409 132.788 79.2355 134.571 78.989 136.05C78.7425 137.513 78.4302 138.704 78.0523 139.625C77.6743 140.545 77.2224 141.219 76.6965 141.646C76.1706 142.073 75.5544 142.287 74.8477 142.287C74.6341 142.287 74.4205 142.27 74.2068 142.238C74.0096 142.221 73.8453 142.18 73.7138 142.114V140.487C73.8124 140.52 73.9192 140.545 74.0343 140.561C74.1493 140.578 74.2644 140.586 74.3794 140.586C74.7409 140.586 75.0696 140.438 75.3654 140.142C75.6612 139.846 75.9241 139.395 76.1542 138.786C76.4007 138.178 76.6226 137.414 76.8198 136.494C77.017 135.557 77.1895 134.456 77.3374 133.191C77.4853 131.925 77.6168 130.496 77.7318 128.902H85.6939V142.114ZM99.9448 142.114H97.7509V130.701H93.8562C93.6919 132.788 93.4864 134.571 93.2399 136.05C92.9934 137.513 92.6812 138.704 92.3032 139.625C91.9253 140.545 91.4733 141.219 90.9475 141.646C90.4216 142.073 89.8053 142.287 89.0987 142.287C88.8851 142.287 88.6714 142.27 88.4578 142.238C88.2606 142.221 88.0962 142.18 87.9648 142.114V140.487C88.0634 140.52 88.1702 140.545 88.2852 140.561C88.4003 140.578 88.5153 140.586 88.6303 140.586C88.9919 140.586 89.3205 140.438 89.6163 140.142C89.9121 139.846 90.1751 139.395 90.4052 138.786C90.6517 138.178 90.8735 137.414 91.0707 136.494C91.2679 135.557 91.4405 134.456 91.5884 133.191C91.7363 131.925 91.8677 130.496 91.9828 128.902H99.9448V142.114ZM109.241 128.655C110.375 128.655 111.345 128.902 112.15 129.395C112.971 129.888 113.596 130.586 114.023 131.49C114.467 132.377 114.689 133.421 114.689 134.621V135.927H105.642C105.675 137.422 106.053 138.565 106.776 139.353C107.516 140.126 108.543 140.512 109.857 140.512C110.695 140.512 111.435 140.438 112.076 140.29C112.733 140.126 113.407 139.896 114.097 139.6V141.498C113.423 141.794 112.758 142.007 112.1 142.139C111.443 142.287 110.663 142.361 109.759 142.361C108.51 142.361 107.401 142.106 106.431 141.597C105.478 141.087 104.73 140.331 104.188 139.329C103.662 138.31 103.399 137.069 103.399 135.607C103.399 134.16 103.637 132.92 104.114 131.884C104.607 130.849 105.289 130.052 106.16 129.493C107.047 128.935 108.074 128.655 109.241 128.655ZM109.216 130.43C108.181 130.43 107.359 130.767 106.751 131.441C106.16 132.098 105.806 133.018 105.691 134.202H112.421C112.421 133.446 112.306 132.788 112.076 132.229C111.846 131.671 111.492 131.235 111.016 130.923C110.556 130.594 109.956 130.43 109.216 130.43ZM124.338 128.655C125.965 128.655 127.272 129.222 128.258 130.356C129.26 131.49 129.761 133.199 129.761 135.483C129.761 136.979 129.531 138.244 129.071 139.279C128.627 140.298 127.995 141.071 127.173 141.597C126.368 142.106 125.415 142.361 124.314 142.361C123.64 142.361 123.04 142.27 122.514 142.09C121.988 141.909 121.536 141.679 121.158 141.399C120.797 141.104 120.485 140.783 120.222 140.438H120.074C120.107 140.717 120.139 141.071 120.172 141.498C120.205 141.925 120.222 142.295 120.222 142.607V148.03H118.052V128.902H119.827L120.123 130.701H120.222C120.485 130.323 120.797 129.978 121.158 129.666C121.536 129.354 121.98 129.107 122.489 128.926C123.015 128.746 123.632 128.655 124.338 128.655ZM123.944 130.479C123.056 130.479 122.342 130.652 121.799 130.997C121.257 131.326 120.863 131.827 120.616 132.501C120.37 133.174 120.238 134.029 120.222 135.064V135.483C120.222 136.568 120.337 137.488 120.567 138.244C120.797 139 121.183 139.575 121.725 139.97C122.284 140.364 123.04 140.561 123.993 140.561C124.798 140.561 125.456 140.339 125.965 139.896C126.491 139.452 126.877 138.852 127.124 138.096C127.387 137.324 127.518 136.445 127.518 135.459C127.518 133.947 127.222 132.739 126.631 131.835C126.056 130.931 125.16 130.479 123.944 130.479Z" fill="white"/>
<path d="M42.3749 43.8728C41.4235 43.8728 40.5789 44.0475 39.8411 44.397C39.1033 44.7465 38.4722 45.2514 37.948 45.9115C37.4432 46.5717 37.0548 47.3677 36.783 48.2997C36.5306 49.2317 36.4044 50.2802 36.4044 51.4452C36.4044 53.0179 36.618 54.3673 37.0451 55.4935C37.4723 56.6002 38.1227 57.4545 38.9965 58.0564C39.8896 58.6583 41.0061 58.9593 42.3458 58.9593C43.2389 58.9593 44.0933 58.8719 44.9088 58.6972C45.7437 58.503 46.6174 58.2506 47.53 57.9399V61.1145C46.6756 61.464 45.8116 61.7164 44.9379 61.8717C44.0836 62.0271 43.0933 62.1047 41.9672 62.1047C39.8314 62.1047 38.0645 61.6679 36.6665 60.7941C35.2685 59.901 34.2298 58.6583 33.5502 57.0662C32.8706 55.4546 32.5308 53.5712 32.5308 51.416C32.5308 49.8433 32.7444 48.4065 33.1716 47.1056C33.6182 45.8047 34.2492 44.6786 35.0647 43.7272C35.8996 42.7758 36.9286 42.038 38.1519 41.5137C39.3751 40.9895 40.7828 40.7273 42.3749 40.7273C43.4234 40.7273 44.4525 40.8536 45.4621 41.106C46.4912 41.339 47.4523 41.669 48.3454 42.0962L47.064 45.1543C46.3261 44.8242 45.5592 44.5329 44.7631 44.2805C43.9865 44.0087 43.1904 43.8728 42.3749 43.8728ZM58.0079 45.7368C59.4253 45.7368 60.6389 46.028 61.6485 46.6105C62.6776 47.1736 63.4736 47.9891 64.0367 49.057C64.5998 50.1054 64.8813 51.3869 64.8813 52.9014V54.7654H54.4548C54.4936 56.2022 54.8916 57.3186 55.6489 58.1147C56.4061 58.8913 57.4546 59.2796 58.7943 59.2796C59.8234 59.2796 60.7359 59.1826 61.532 58.9884C62.3475 58.7748 63.1824 58.4739 64.0367 58.0855V61.0271C63.2601 61.396 62.4543 61.6679 61.6194 61.8426C60.7845 62.0173 59.7845 62.1047 58.6196 62.1047C57.0857 62.1047 55.7168 61.8135 54.513 61.231C53.3286 60.6291 52.3966 59.7262 51.7171 58.5224C51.0569 57.3186 50.7268 55.8235 50.7268 54.0372C50.7268 52.2315 51.0278 50.717 51.6297 49.4938C52.251 48.2512 53.1053 47.3192 54.1926 46.6979C55.28 46.0571 56.5517 45.7368 58.0079 45.7368ZM58.0079 48.4453C57.0371 48.4453 56.2411 48.7657 55.6197 49.4064C55.0178 50.0278 54.6586 50.9598 54.5421 52.2024H61.3281C61.3281 51.4646 61.2019 50.8141 60.9495 50.2511C60.7165 49.688 60.3573 49.2511 59.8719 48.9405C59.3865 48.6104 58.7652 48.4453 58.0079 48.4453ZM76.8822 45.7368C78.7268 45.7368 80.2121 46.426 81.3383 47.8046C82.4644 49.1637 83.0275 51.1927 83.0275 53.8916C83.0275 55.6779 82.7653 57.1827 82.2411 58.4059C81.7169 59.6291 80.9888 60.5514 80.0568 61.1727C79.1248 61.7941 78.0375 62.1047 76.7948 62.1047C76.0376 62.1047 75.3677 62.0076 74.7852 61.8135C74.2027 61.5999 73.7076 61.3378 73.2999 61.0271C72.8921 60.697 72.5427 60.3475 72.2514 59.9786H72.0184C72.0961 60.3281 72.1543 60.7262 72.1932 61.1727C72.232 61.5999 72.2514 62.0076 72.2514 62.396V68.8034H68.5817V46.028H71.5524L72.0767 48.125H72.2514C72.5427 47.6784 72.8921 47.2804 73.2999 46.9309C73.7271 46.562 74.2319 46.2707 74.8144 46.0571C75.4163 45.8435 76.1055 45.7368 76.8822 45.7368ZM75.8337 48.7075C74.9794 48.7075 74.2901 48.8822 73.7659 49.2317C73.2416 49.5618 72.863 50.0763 72.63 50.7753C72.397 51.4743 72.2708 52.348 72.2514 53.3965V53.8625C72.2514 54.9886 72.3582 55.94 72.5718 56.7167C72.8048 57.4933 73.1834 58.0855 73.7076 58.4933C74.2513 58.901 74.9794 59.1049 75.892 59.1049C76.6686 59.1049 77.2997 58.8913 77.7851 58.4642C78.2899 58.037 78.6588 57.4351 78.8918 56.6584C79.1442 55.8624 79.2704 54.9207 79.2704 53.8334C79.2704 52.2024 78.9889 50.9403 78.4258 50.0472C77.8821 49.154 77.0181 48.7075 75.8337 48.7075ZM90.337 53.5421C90.337 53.814 90.3176 54.1634 90.2788 54.5906C90.2594 54.9983 90.24 55.4352 90.2205 55.9012C90.2011 56.3478 90.172 56.7555 90.1332 57.1244C90.1137 57.4739 90.0943 57.736 90.0749 57.9108L97.7929 46.028H102.22V61.8135H98.6958V54.3867C98.6958 53.9402 98.7055 53.4256 98.7249 52.8431C98.7637 52.2606 98.8026 51.7073 98.8414 51.183C98.8802 50.6394 98.9093 50.2316 98.9288 49.9598L91.2399 61.8135H86.813V46.028H90.337V53.5421ZM113.241 45.7368C115.279 45.7368 116.823 46.1833 117.872 47.0765C118.939 47.9502 119.473 49.3288 119.473 51.2122V61.8135H116.881L116.153 59.6291H116.037C115.59 60.1922 115.124 60.6679 114.639 61.0562C114.173 61.4252 113.629 61.6873 113.008 61.8426C112.406 62.0173 111.668 62.1047 110.794 62.1047C109.862 62.1047 109.018 61.93 108.26 61.5805C107.523 61.231 106.94 60.697 106.513 59.9786C106.086 59.2408 105.872 58.3185 105.872 57.2118C105.872 55.5808 106.464 54.3576 107.649 53.5421C108.853 52.7072 110.668 52.2509 113.095 52.1733L115.833 52.0859V51.2995C115.833 50.2899 115.59 49.5715 115.105 49.1443C114.619 48.7172 113.94 48.5036 113.066 48.5036C112.27 48.5036 111.503 48.6201 110.765 48.8531C110.027 49.0861 109.309 49.3579 108.61 49.6686L107.445 47.1056C108.222 46.6979 109.105 46.3678 110.095 46.1154C111.105 45.863 112.153 45.7368 113.241 45.7368ZM113.911 54.4159C112.299 54.4741 111.183 54.7556 110.561 55.2605C109.94 55.7459 109.629 56.406 109.629 57.2409C109.629 57.9788 109.853 58.5127 110.299 58.8428C110.746 59.1729 111.318 59.3379 112.017 59.3379C113.085 59.3379 113.988 59.0369 114.726 58.435C115.464 57.8137 115.833 56.9011 115.833 55.6973V54.3576L113.911 54.4159ZM137.411 61.8135H133.741V48.8531H129.518C129.324 51.2413 129.081 53.2703 128.79 54.9401C128.499 56.6099 128.14 57.9788 127.712 59.0467C127.285 60.0951 126.751 60.8621 126.111 61.3475C125.489 61.8329 124.732 62.0756 123.839 62.0756C123.431 62.0756 123.052 62.0465 122.703 61.9882C122.353 61.93 122.053 61.8329 121.8 61.697V58.8137C121.975 58.8719 122.159 58.9302 122.353 58.9884C122.548 59.0272 122.752 59.0467 122.965 59.0467C123.295 59.0467 123.596 58.9204 123.868 58.668C124.159 58.3962 124.421 57.9593 124.654 57.3574C124.907 56.7361 125.14 55.9206 125.353 54.911C125.567 53.9013 125.751 52.6684 125.907 51.2122C126.081 49.7365 126.237 48.0085 126.373 46.028H137.411V61.8135ZM142.132 61.8135V46.028H145.802V52.2606H148.627C150.161 52.2606 151.413 52.4354 152.384 52.7849C153.374 53.115 154.103 53.6198 154.569 54.2994C155.054 54.9789 155.297 55.8332 155.297 56.8623C155.297 57.872 155.073 58.7457 154.627 59.4835C154.18 60.2213 153.472 60.7941 152.501 61.2019C151.53 61.6096 150.258 61.8135 148.685 61.8135H142.132ZM148.452 59.1631C149.384 59.1631 150.151 58.9981 150.753 58.668C151.355 58.3185 151.656 57.7458 151.656 56.9497C151.656 56.1925 151.375 55.6682 150.812 55.377C150.268 55.0857 149.472 54.9401 148.423 54.9401H145.802V59.1631H148.452ZM157.714 61.8135V46.028H161.384V61.8135H157.714Z" fill="white"/>
</g>
<defs>
<linearGradient id="paint0_linear_109_13735" x1="20.0953" y1="7.70324" x2="481.715" y2="134.147" gradientUnits="userSpaceOnUse">
<stop stop-color="#9BBAD0"/>
<stop offset="1" stop-color="#B4CBDD"/>
</linearGradient>
<clippath id="clip0_109_13735">
<rect width="364.689" height="205.138" rx="25.3256" fill="white"/>
</clippath>
</defs>
</svg>
