<svg width="433" height="150" viewBox="0 0 433 150" fill="none" xmlns="http://www.w3.org/2000/svg">
<rect width="433" height="150" rx="20" fill="#F6A80B"/>
<path d="M179.988 66.008C182.545 66.008 184.431 66.568 185.644 67.688C186.876 68.7893 187.492 70.3293 187.492 72.308C187.492 73.204 187.361 74.0627 187.1 74.884C186.839 75.6867 186.4 76.4053 185.784 77.04C185.187 77.6747 184.393 78.1787 183.404 78.552C182.433 78.9253 181.229 79.112 179.792 79.112H178.112V86H173.352V66.008H179.988ZM179.82 69.9H178.112V75.22H179.372C180.025 75.22 180.595 75.1267 181.08 74.94C181.584 74.7533 181.976 74.4547 182.256 74.044C182.536 73.6333 182.676 73.1013 182.676 72.448C182.676 71.6267 182.443 71.0013 181.976 70.572C181.509 70.124 180.791 69.9 179.82 69.9ZM202.665 86H190.989V66.008H202.665V69.872H195.749V73.708H202.161V77.572H195.749V82.08H202.665V86ZM223.348 86H217.944L211.308 75.864V86H206.52V66.008H211.308V75.696L217.804 66.008H222.956L216.208 75.584L223.348 86ZM242.041 86H237.253V69.956H232.857C232.763 70.7587 232.661 71.6453 232.549 72.616C232.437 73.5867 232.306 74.5853 232.157 75.612C232.026 76.62 231.886 77.5813 231.737 78.496C231.587 79.4107 231.438 80.2133 231.289 80.904C231.046 82.024 230.71 82.9853 230.281 83.788C229.87 84.5907 229.291 85.2067 228.545 85.636C227.798 86.0653 226.837 86.28 225.661 86.28C225.269 86.28 224.895 86.252 224.541 86.196C224.205 86.14 223.887 86.0653 223.589 85.972V82.164C223.831 82.2387 224.065 82.304 224.289 82.36C224.513 82.416 224.755 82.444 225.017 82.444C225.353 82.444 225.633 82.3413 225.857 82.136C226.099 81.9307 226.314 81.5387 226.501 80.96C226.706 80.3627 226.911 79.504 227.117 78.384C227.191 77.9547 227.294 77.3387 227.425 76.536C227.555 75.7333 227.695 74.7813 227.845 73.68C228.013 72.5787 228.181 71.3747 228.349 70.068C228.535 68.7613 228.703 67.408 228.853 66.008H242.041V86ZM258.979 86L257.747 81.716H250.831L249.599 86H244.391L251.195 65.924H257.299L264.187 86H258.979ZM255.507 73.736C255.413 73.4 255.283 72.952 255.115 72.392C254.965 71.8133 254.807 71.2253 254.639 70.628C254.489 70.0307 254.368 69.5267 254.275 69.116C254.2 69.5267 254.079 70.04 253.911 70.656C253.761 71.2533 253.612 71.8413 253.463 72.42C253.313 72.98 253.192 73.4187 253.099 73.736L251.923 77.74H256.683L255.507 73.736ZM275.108 86L270.628 70.908H270.516C270.553 71.2813 270.59 71.8227 270.628 72.532C270.665 73.2227 270.702 73.9693 270.74 74.772C270.777 75.556 270.796 76.2933 270.796 76.984V86H266.54V66.008H272.98L277.432 80.792H277.544L282.136 66.008H288.548V86H284.124V76.872C284.124 76.2373 284.133 75.5373 284.152 74.772C284.189 73.988 284.217 73.2507 284.236 72.56C284.273 71.8507 284.301 71.3093 284.32 70.936H284.208L279.588 86H275.108ZM305.49 86L304.258 81.716H297.342L296.11 86H290.902L297.706 65.924H303.81L310.698 86H305.49ZM302.018 73.736C301.925 73.4 301.794 72.952 301.626 72.392C301.477 71.8133 301.318 71.2253 301.15 70.628C301.001 70.0307 300.88 69.5267 300.786 69.116C300.712 69.5267 300.59 70.04 300.422 70.656C300.273 71.2533 300.124 71.8413 299.974 72.42C299.825 72.98 299.704 73.4187 299.61 73.736L298.434 77.74H303.194L302.018 73.736Z" fill="white"/>
<path d="M145.725 78.0498C149.158 81.3598 152.559 84.6419 156.001 87.9612C152.65 91.3084 149.313 94.6401 145.946 97.9998C142.523 94.6991 139.116 91.4139 135.668 88.0915C139.025 84.7381 142.369 81.397 145.722 78.0498H145.725Z" fill="white"/>
<path d="M133.275 85.5663C129.837 82.2502 126.436 78.9681 123 75.655C126.354 72.3046 129.691 68.9729 133.051 65.6133C136.477 68.9171 139.884 72.2023 143.33 75.5247C139.982 78.8688 136.645 82.2036 133.278 85.5663H133.275Z" fill="white"/>
<path d="M145.539 53C148.972 56.3131 152.382 59.6014 155.815 62.9114C152.455 66.2648 149.117 69.6028 145.764 72.95C142.331 69.64 138.924 66.3517 135.488 63.0386C138.839 59.6945 142.17 56.3659 145.539 53Z" fill="white"/>
</svg>
