<svg width="366" height="199" viewBox="0 0 366 199" fill="none" xmlns="http://www.w3.org/2000/svg">
<g clip-path="url(#clip0_109_13790)">
<rect x="0.914062" y="0.166016" width="462.193" height="198.806" rx="25.3256" fill="url(#paint0_linear_109_13790)"/>
<path d="M35.2789 62.8232V42.0284H51.4139V62.8232H47.6859V45.1738H39.0068V62.8232H35.2789ZM62.8375 46.7465C64.2549 46.7465 65.4684 47.0378 66.478 47.6203C67.5071 48.1833 68.3032 48.9988 68.8662 50.0667C69.4293 51.1152 69.7109 52.3967 69.7109 53.9111V55.7751H59.2843C59.3231 57.2119 59.7212 58.3284 60.4784 59.1244C61.2356 59.9011 62.2841 60.2894 63.6238 60.2894C64.6529 60.2894 65.5655 60.1923 66.3615 59.9982C67.177 59.7846 68.0119 59.4836 68.8662 59.0953V62.0369C68.0896 62.4058 67.2838 62.6776 66.4489 62.8524C65.614 63.0271 64.6141 63.1145 63.4491 63.1145C61.9152 63.1145 60.5464 62.8232 59.3425 62.2408C58.1581 61.6388 57.2262 60.736 56.5466 59.5322C55.8864 58.3284 55.5564 56.8333 55.5564 55.047C55.5564 53.2413 55.8573 51.7268 56.4592 50.5036C57.0805 49.2609 57.9349 48.329 59.0222 47.7076C60.1095 47.0669 61.3813 46.7465 62.8375 46.7465ZM62.8375 49.4551C61.8667 49.4551 61.0706 49.7755 60.4493 50.4162C59.8474 51.0375 59.4882 51.9695 59.3717 53.2122H66.1577C66.1577 52.4743 66.0315 51.8239 65.7791 51.2608C65.5461 50.6977 65.1869 50.2609 64.7014 49.9502C64.216 49.6201 63.5947 49.4551 62.8375 49.4551ZM81.7117 46.7465C83.5563 46.7465 85.0416 47.4358 86.1678 48.8144C87.2939 50.1735 87.857 52.2025 87.857 54.9014C87.857 56.6877 87.5949 58.1924 87.0706 59.4157C86.5464 60.6389 85.8183 61.5612 84.8863 62.1825C83.9543 62.8038 82.867 63.1145 81.6244 63.1145C80.8671 63.1145 80.1973 63.0174 79.6148 62.8232C79.0323 62.6097 78.5372 62.3475 78.1294 62.0369C77.7217 61.7068 77.3722 61.3573 77.0809 60.9884H76.848C76.9256 61.3379 76.9839 61.7359 77.0227 62.1825C77.0615 62.6097 77.0809 63.0174 77.0809 63.4057V69.8131H73.4113V47.0378H76.382L76.9062 49.1347H77.0809C77.3722 48.6882 77.7217 48.2901 78.1294 47.9406C78.5566 47.5717 79.0614 47.2805 79.6439 47.0669C80.2458 46.8533 80.9351 46.7465 81.7117 46.7465ZM80.6633 49.7172C79.8089 49.7172 79.1197 49.892 78.5954 50.2415C78.0712 50.5715 77.6926 51.0861 77.4596 51.7851C77.2266 52.484 77.1004 53.3578 77.0809 54.4063V54.8723C77.0809 55.9984 77.1877 56.9498 77.4013 57.7265C77.6343 58.5031 78.0129 59.0953 78.5372 59.5031C79.0808 59.9108 79.8089 60.1147 80.7215 60.1147C81.4982 60.1147 82.1292 59.9011 82.6146 59.4739C83.1194 59.0468 83.4883 58.4449 83.7213 57.6682C83.9737 56.8721 84.0999 55.9304 84.0999 54.8431C84.0999 53.2122 83.8184 51.9501 83.2553 51.0569C82.7117 50.1638 81.8477 49.7172 80.6633 49.7172ZM97.9916 46.7465C99.409 46.7465 100.623 47.0378 101.632 47.6203C102.661 48.1833 103.457 48.9988 104.02 50.0667C104.583 51.1152 104.865 52.3967 104.865 53.9111V55.7751H94.4385C94.4773 57.2119 94.8753 58.3284 95.6326 59.1244C96.3898 59.9011 97.4383 60.2894 98.778 60.2894C99.8071 60.2894 100.72 60.1923 101.516 59.9982C102.331 59.7846 103.166 59.4836 104.02 59.0953V62.0369C103.244 62.4058 102.438 62.6776 101.603 62.8524C100.768 63.0271 99.7682 63.1145 98.6033 63.1145C97.0694 63.1145 95.7005 62.8232 94.4967 62.2408C93.3123 61.6388 92.3803 60.736 91.7008 59.5322C91.0406 58.3284 90.7105 56.8333 90.7105 55.047C90.7105 53.2413 91.0115 51.7268 91.6134 50.5036C92.2347 49.2609 93.089 48.329 94.1763 47.7076C95.2636 47.0669 96.5354 46.7465 97.9916 46.7465ZM97.9916 49.4551C97.0208 49.4551 96.2248 49.7755 95.6034 50.4162C95.0015 51.0375 94.6423 51.9695 94.5258 53.2122H101.312C101.312 52.4743 101.186 51.8239 100.933 51.2608C100.7 50.6977 100.341 50.2609 99.8556 49.9502C99.3702 49.6201 98.7489 49.4551 97.9916 49.4551ZM121.846 47.0378V60.0273H124.147V68.4151H120.769V62.8232H110.022V68.4151H106.672V60.0273H107.983C108.76 58.9011 109.41 57.6391 109.934 56.2411C110.459 54.8237 110.866 53.3287 111.157 51.7559C111.449 50.1832 111.643 48.6105 111.74 47.0378H121.846ZM114.856 49.8337C114.74 51.0569 114.546 52.2802 114.274 53.5034C114.002 54.7072 113.662 55.8625 113.254 56.9692C112.847 58.076 112.361 59.0953 111.798 60.0273H118.206V49.8337H114.856ZM133.287 46.7465C135.325 46.7465 136.869 47.1931 137.917 48.0863C138.985 48.96 139.519 50.3385 139.519 52.2219V62.8232H136.927L136.199 60.6389H136.083C135.636 61.202 135.17 61.6777 134.685 62.066C134.219 62.4349 133.675 62.697 133.054 62.8524C132.452 63.0271 131.714 63.1145 130.84 63.1145C129.908 63.1145 129.064 62.9397 128.306 62.5902C127.569 62.2408 126.986 61.7068 126.559 60.9884C126.132 60.2506 125.918 59.3283 125.918 58.2216C125.918 56.5906 126.51 55.3674 127.695 54.5519C128.899 53.717 130.714 53.2607 133.141 53.183L135.879 53.0957V52.3093C135.879 51.2997 135.636 50.5812 135.151 50.1541C134.665 49.7269 133.986 49.5134 133.112 49.5134C132.316 49.5134 131.549 49.6298 130.811 49.8628C130.073 50.0958 129.355 50.3677 128.656 50.6783L127.491 48.1154C128.268 47.7076 129.151 47.3776 130.141 47.1251C131.151 46.8727 132.199 46.7465 133.287 46.7465ZM133.957 55.4256C132.345 55.4839 131.229 55.7654 130.607 56.2702C129.986 56.7556 129.675 57.4158 129.675 58.2507C129.675 58.9885 129.898 59.5225 130.345 59.8525C130.792 60.1826 131.364 60.3477 132.063 60.3477C133.131 60.3477 134.034 60.0467 134.772 59.4448C135.51 58.8235 135.879 57.9109 135.879 56.7071V55.3674L133.957 55.4256ZM147.321 52.8044C147.321 53.5617 147.525 54.1344 147.933 54.5228C148.341 54.9111 148.914 55.1053 149.651 55.1053C150.545 55.1053 151.36 54.9888 152.098 54.7558C152.855 54.5228 153.612 54.2218 154.37 53.8529V47.0378H158.039V62.8232H154.37V56.2702C153.612 56.6974 152.807 57.0663 151.952 57.377C151.098 57.6876 150.098 57.843 148.952 57.843C147.321 57.843 146.03 57.4255 145.079 56.5906C144.127 55.7363 143.652 54.5131 143.652 52.9209V47.0378H147.321V52.8044ZM166.271 54.5519C166.271 54.8237 166.252 55.1732 166.213 55.6004C166.194 56.0081 166.174 56.445 166.155 56.911C166.135 57.3575 166.106 57.7653 166.067 58.1342C166.048 58.4837 166.029 58.7458 166.009 58.9206L173.727 47.0378H178.154V62.8232H174.63V55.3965C174.63 54.9499 174.64 54.4354 174.659 53.8529C174.698 53.2704 174.737 52.717 174.776 52.1928C174.814 51.6491 174.844 51.2414 174.863 50.9696L167.174 62.8232H162.747V47.0378H166.271V54.5519Z" fill="white"/>
<g clip-path="url(#clip1_109_13790)">
<path d="M309.597 91.1688C308.967 91.1688 308.337 90.9283 307.856 90.4474L289.518 72.1095C288.556 71.1476 288.556 69.5894 289.518 68.6287C290.479 67.6667 292.037 67.6667 292.999 68.6287L311.338 86.9666C312.299 87.9272 312.299 89.4855 311.338 90.4474C310.857 90.9283 310.227 91.1688 309.597 91.1688Z" fill="#B7D0E5"/>
<path d="M330.681 91.1688C330.051 91.1688 329.421 90.9283 328.94 90.4474C327.978 89.4855 327.978 87.9272 328.94 86.9666L347.278 68.6287C348.24 67.6667 349.798 67.6667 350.759 68.6287C351.721 69.5894 351.721 71.1476 350.759 72.1095L332.421 90.4474C331.941 90.9283 331.311 91.1688 330.681 91.1688Z" fill="#B7D0E5"/>
<path d="M335.036 97.6081H305.227C305.223 93.7911 306.68 89.9741 309.594 87.0662C313.688 82.9694 319.572 81.756 324.728 83.4222C326.901 84.1252 328.945 85.3399 330.671 87.0662C333.582 89.9741 335.04 93.7911 335.036 97.6081Z" fill="#27425B"/>
<path d="M335.035 97.6078H314.414C314.412 93.7908 315.868 89.9737 318.783 87.0659C320.51 85.3396 322.554 84.1249 324.727 83.4219C326.899 84.1249 328.944 85.3396 330.67 87.0659C333.581 89.9737 335.039 93.7908 335.035 97.6078Z" fill="#405872"/>
<path d="M399.794 116.318V197.55C399.794 208.066 391.268 216.592 380.752 216.592H258.015C247.5 216.592 238.977 208.066 238.977 197.55V116.318C238.977 105.803 247.5 97.2793 258.015 97.2793H380.752C391.268 97.2793 399.794 105.803 399.794 116.318Z" fill="#E2B74D"/>
<path d="M399.794 116.317V197.549C399.794 208.065 391.268 216.591 380.752 216.591H264.816C254.299 216.591 245.773 208.065 245.773 197.549V116.317C245.773 105.802 254.299 97.2783 264.816 97.2783H380.752C391.268 97.2783 399.794 105.802 399.794 116.317Z" fill="#F6D269"/>
<path d="M357.917 181.277C356.531 192.479 347.575 201.252 336.347 202.417C334.24 202.637 332.134 202.833 330.029 203.008C311.368 204.55 292.709 204.354 274.049 202.417C262.824 201.252 253.868 192.479 252.483 181.277C250.474 165.048 250.474 148.818 252.483 132.59C253.868 121.388 262.824 112.615 274.049 111.449C292.709 109.513 311.371 109.317 330.033 110.863C332.136 111.036 334.244 111.23 336.347 111.449C347.575 112.615 356.531 121.388 357.917 132.59C359.925 148.818 359.925 165.048 357.917 181.277Z" fill="#62798E"/>
<path d="M342.836 183.484C341.802 191.826 336.922 198.935 330.029 203.008C311.368 204.551 292.709 204.354 274.049 202.417C262.824 201.253 253.868 192.48 252.483 181.278C250.474 165.049 250.474 148.819 252.483 132.589C253.868 121.388 262.824 112.616 274.049 111.45C292.709 109.514 311.371 109.317 330.033 110.863C336.922 114.936 341.802 122.041 342.836 130.384C345.025 148.084 345.025 165.784 342.836 183.484Z" fill="#405872"/>
<path d="M388.452 126.066H367.877C366.516 126.066 365.414 124.963 365.414 123.605C365.414 122.246 366.516 121.143 367.877 121.143H388.452C389.813 121.143 390.915 122.246 390.915 123.605C390.915 124.963 389.812 126.066 388.452 126.066Z" fill="#405872"/>
<path d="M388.452 134.845H367.877C366.516 134.845 365.414 133.744 365.414 132.384C365.414 131.025 366.516 129.923 367.877 129.923H388.452C389.813 129.923 390.915 131.025 390.915 132.384C390.915 133.744 389.812 134.845 388.452 134.845Z" fill="#405872"/>
<path d="M388.452 143.624H367.877C366.516 143.624 365.414 142.522 365.414 141.162C365.414 139.803 366.516 138.701 367.877 138.701H388.452C389.813 138.701 390.915 139.803 390.915 141.162C390.915 142.522 389.812 143.624 388.452 143.624Z" fill="#405872"/>
<path d="M305.187 206.489C294.693 206.489 284.203 205.948 273.783 204.866C267.802 204.245 262.14 201.582 257.841 197.369C253.54 193.156 250.765 187.549 250.026 181.581C248.002 165.227 248.002 148.642 250.026 132.288C250.765 126.322 253.54 120.713 257.841 116.5C262.14 112.287 267.802 109.624 273.783 109.002C294.621 106.839 315.752 106.839 336.591 109.002C342.572 109.624 348.233 112.286 352.532 116.5C356.833 120.715 359.608 126.322 360.347 132.288C362.371 148.642 362.371 165.227 360.347 181.581C359.608 187.549 356.833 193.156 352.532 197.369C348.233 201.582 342.571 204.245 336.591 204.866C326.173 205.948 315.677 206.489 305.187 206.489ZM254.912 180.976C256.166 191.104 264.136 198.915 274.291 199.969C294.792 202.098 315.582 202.098 336.083 199.969C346.238 198.915 354.208 191.104 355.461 180.976C357.436 165.023 357.436 148.846 355.461 132.893C354.208 122.764 346.238 114.954 336.083 113.899C315.582 111.77 294.792 111.77 274.291 113.899C264.136 114.954 256.166 122.764 254.912 132.893C252.938 148.846 252.938 165.023 254.912 180.976Z" fill="#E2B74D"/>
</g>
<path d="M47.8042 106.015H45.142L37.1799 97.0912V106.015H34.9614V88.4143H37.1799V96.9433L44.9448 88.4143H47.4591L39.8175 96.968L47.8042 106.015ZM61.3905 99.3837C61.3905 100.485 61.2426 101.463 60.9468 102.317C60.6675 103.155 60.2566 103.87 59.7143 104.462C59.1885 105.053 58.5393 105.505 57.767 105.817C57.011 106.113 56.1647 106.261 55.228 106.261C54.357 106.261 53.5518 106.113 52.8122 105.817C52.0727 105.505 51.4318 105.053 50.8895 104.462C50.3472 103.87 49.9199 103.155 49.6077 102.317C49.3119 101.463 49.164 100.485 49.164 99.3837C49.164 97.9211 49.4105 96.6886 49.9035 95.6862C50.3965 94.6673 51.1032 93.8949 52.0234 93.369C52.9437 92.8267 54.0365 92.5556 55.3019 92.5556C56.5016 92.5556 57.5533 92.8267 58.4572 93.369C59.3774 93.8949 60.0923 94.6673 60.6017 95.6862C61.1276 96.6886 61.3905 97.9211 61.3905 99.3837ZM51.4072 99.3837C51.4072 100.419 51.5386 101.323 51.8016 102.095C52.081 102.851 52.5082 103.435 53.0834 103.845C53.6586 104.256 54.3899 104.462 55.2773 104.462C56.1647 104.462 56.896 104.256 57.4711 103.845C58.0463 103.435 58.4654 102.851 58.7283 102.095C59.0077 101.323 59.1474 100.419 59.1474 99.3837C59.1474 98.332 59.0077 97.4363 58.7283 96.6968C58.4489 95.9573 58.0217 95.3904 57.4465 94.996C56.8878 94.5851 56.1565 94.3797 55.2526 94.3797C53.9051 94.3797 52.9273 94.8234 52.3192 95.7108C51.7112 96.5982 51.4072 97.8225 51.4072 99.3837ZM79.0024 92.8021V106.015H77.055V97.5842C77.055 97.2391 77.0633 96.8776 77.0797 96.4996C77.1126 96.1217 77.1454 95.7519 77.1783 95.3904H77.1043L72.7905 106.015H70.9664L66.7759 95.3904H66.7019C66.7348 95.7519 66.7512 96.1217 66.7512 96.4996C66.7676 96.8776 66.7759 97.2638 66.7759 97.6582V106.015H64.8285V92.8021H67.7126L71.8785 103.426L76.1183 92.8021H79.0024ZM88.3225 92.5556C89.4564 92.5556 90.426 92.8021 91.2313 93.2951C92.0529 93.7881 92.6774 94.4865 93.1047 95.3904C93.5484 96.2778 93.7702 97.3213 93.7702 98.521V99.8274H84.7236C84.7565 101.323 85.1344 102.465 85.8575 103.254C86.597 104.026 87.6241 104.412 88.9388 104.412C89.7769 104.412 90.5164 104.338 91.1573 104.191C91.8147 104.026 92.4884 103.796 93.1786 103.5V105.398C92.5049 105.694 91.8393 105.908 91.182 106.039C90.5246 106.187 89.744 106.261 88.8402 106.261C87.5912 106.261 86.482 106.006 85.5124 105.497C84.5592 104.988 83.8115 104.232 83.2692 103.229C82.7433 102.21 82.4804 100.97 82.4804 99.507C82.4804 98.0608 82.7187 96.8201 83.1953 95.7848C83.6883 94.7495 84.3703 93.9524 85.2412 93.3937C86.1287 92.835 87.1557 92.5556 88.3225 92.5556ZM88.2979 94.3304C87.2626 94.3304 86.4409 94.6673 85.8328 95.3411C85.2412 95.9984 84.8879 96.9187 84.7729 98.1019H91.5024C91.5024 97.346 91.3874 96.6886 91.1573 96.1299C90.9272 95.5711 90.5739 95.1357 90.0973 94.8234C89.6372 94.4947 89.0374 94.3304 88.2979 94.3304ZM106.945 92.8021V104.191H108.867V110.6H106.772V106.015H97.5776V110.6H95.5069V104.191H96.5669C97.3228 103.139 97.9473 101.997 98.4403 100.764C98.9498 99.5152 99.3277 98.2169 99.5742 96.8694C99.8372 95.5054 99.9768 94.1496 99.9933 92.8021H106.945ZM101.916 94.503C101.85 95.6204 101.678 96.779 101.398 97.9787C101.119 99.1619 100.757 100.296 100.314 101.38C99.8865 102.465 99.3852 103.402 98.8101 104.191H104.849V94.503H101.916ZM113.503 100.863C113.503 101.011 113.495 101.224 113.478 101.504C113.478 101.767 113.47 102.054 113.454 102.366C113.437 102.662 113.421 102.95 113.404 103.229C113.388 103.492 113.372 103.706 113.355 103.87L120.43 92.8021H123.092V106.015H121.071V98.2252C121.071 97.9622 121.071 97.6171 121.071 97.1898C121.087 96.7626 121.103 96.3435 121.12 95.9327C121.136 95.5054 121.153 95.185 121.169 94.9713L114.144 106.015H111.457V92.8021H113.503V100.863ZM128.11 106.015H125.596L129.367 100.468C128.858 100.337 128.365 100.131 127.888 99.8521C127.412 99.5563 127.026 99.1537 126.73 98.6442C126.434 98.1183 126.286 97.4692 126.286 96.6968C126.286 95.4315 126.713 94.4701 127.568 93.8128C128.422 93.139 129.556 92.8021 130.97 92.8021H136.886V106.015H134.716V100.764H131.512L128.11 106.015ZM128.381 96.7215C128.381 97.4774 128.661 98.0444 129.219 98.4224C129.795 98.7839 130.592 98.9647 131.611 98.9647H134.716V94.6016H131.191C130.189 94.6016 129.466 94.7988 129.022 95.1932C128.595 95.5876 128.381 96.097 128.381 96.7215ZM143.704 103.426C143.556 104.002 143.367 104.626 143.137 105.3C142.907 105.974 142.652 106.639 142.373 107.296C142.11 107.97 141.847 108.603 141.584 109.195H139.982C140.146 108.57 140.302 107.896 140.45 107.173C140.614 106.467 140.762 105.768 140.894 105.078C141.025 104.371 141.132 103.73 141.214 103.155H143.531L143.704 103.426ZM163.876 92.8021V104.191H165.799V110.6H163.704V106.015H154.509V110.6H152.439V104.191H153.498C154.254 103.139 154.879 101.997 155.372 100.764C155.881 99.5152 156.259 98.2169 156.506 96.8694C156.769 95.5054 156.908 94.1496 156.925 92.8021H163.876ZM158.848 94.503C158.782 95.6204 158.609 96.779 158.33 97.9787C158.051 99.1619 157.689 100.296 157.245 101.38C156.818 102.465 156.317 103.402 155.742 104.191H161.781V94.503H158.848ZM174.674 92.5556C176.301 92.5556 177.608 93.1225 178.594 94.2565C179.596 95.3904 180.097 97.0995 180.097 99.3837C180.097 100.879 179.867 102.145 179.407 103.18C178.964 104.199 178.331 104.971 177.509 105.497C176.704 106.006 175.751 106.261 174.65 106.261C173.976 106.261 173.376 106.171 172.85 105.99C172.324 105.809 171.873 105.579 171.495 105.3C171.133 105.004 170.821 104.684 170.558 104.338H170.41C170.443 104.618 170.476 104.971 170.509 105.398C170.541 105.826 170.558 106.195 170.558 106.508V111.931H168.389V92.8021H170.163L170.459 94.6016H170.558C170.821 94.2236 171.133 93.8785 171.495 93.5663C171.873 93.254 172.316 93.0075 172.826 92.8267C173.352 92.646 173.968 92.5556 174.674 92.5556ZM174.28 94.3797C173.393 94.3797 172.678 94.5523 172.135 94.8974C171.593 95.226 171.199 95.7273 170.952 96.401C170.706 97.0748 170.574 97.9294 170.558 98.9647V99.3837C170.558 100.468 170.673 101.389 170.903 102.145C171.133 102.9 171.519 103.476 172.061 103.87C172.62 104.264 173.376 104.462 174.329 104.462C175.135 104.462 175.792 104.24 176.301 103.796C176.827 103.352 177.213 102.753 177.46 101.997C177.723 101.224 177.854 100.345 177.854 99.3591C177.854 97.8472 177.559 96.6393 176.967 95.7355C176.392 94.8316 175.496 94.3797 174.28 94.3797ZM188.558 92.5802C190.169 92.5802 191.36 92.9336 192.133 93.6402C192.905 94.3468 193.291 95.4725 193.291 97.0173V106.015H191.714L191.294 104.141H191.196C190.818 104.618 190.424 105.02 190.013 105.349C189.618 105.661 189.158 105.891 188.632 106.039C188.123 106.187 187.498 106.261 186.759 106.261C185.97 106.261 185.255 106.121 184.614 105.842C183.99 105.563 183.497 105.135 183.135 104.56C182.774 103.969 182.593 103.229 182.593 102.342C182.593 101.027 183.111 100.016 184.146 99.3098C185.181 98.5867 186.775 98.1923 188.928 98.1266L191.171 98.0526V97.2638C191.171 96.1627 190.933 95.3986 190.456 94.9713C189.98 94.544 189.306 94.3304 188.435 94.3304C187.745 94.3304 187.087 94.4372 186.463 94.6509C185.839 94.8481 185.255 95.0781 184.713 95.3411L184.047 93.7142C184.622 93.4019 185.304 93.139 186.093 92.9253C186.882 92.6953 187.704 92.5802 188.558 92.5802ZM189.199 99.6302C187.556 99.696 186.414 99.9589 185.773 100.419C185.148 100.879 184.836 101.528 184.836 102.366C184.836 103.106 185.058 103.648 185.502 103.993C185.962 104.338 186.545 104.511 187.252 104.511C188.369 104.511 189.298 104.207 190.037 103.599C190.777 102.974 191.147 102.021 191.147 100.739V99.5563L189.199 99.6302ZM211.546 92.8021V106.015H209.598V97.5842C209.598 97.2391 209.607 96.8776 209.623 96.4996C209.656 96.1217 209.689 95.7519 209.722 95.3904H209.648L205.334 106.015H203.51L199.319 95.3904H199.245C199.278 95.7519 199.295 96.1217 199.295 96.4996C199.311 96.8776 199.319 97.2638 199.319 97.6582V106.015H197.372V92.8021H200.256L204.422 103.426L208.662 92.8021H211.546ZM220.767 92.5802C222.378 92.5802 223.569 92.9336 224.342 93.6402C225.114 94.3468 225.5 95.4725 225.5 97.0173V106.015H223.923L223.504 104.141H223.405C223.027 104.618 222.633 105.02 222.222 105.349C221.827 105.661 221.367 105.891 220.841 106.039C220.332 106.187 219.707 106.261 218.968 106.261C218.179 106.261 217.464 106.121 216.823 105.842C216.199 105.563 215.706 105.135 215.344 104.56C214.983 103.969 214.802 103.229 214.802 102.342C214.802 101.027 215.32 100.016 216.355 99.3098C217.39 98.5867 218.984 98.1923 221.137 98.1266L223.38 98.0526V97.2638C223.38 96.1627 223.142 95.3986 222.665 94.9713C222.189 94.544 221.515 94.3304 220.644 94.3304C219.954 94.3304 219.297 94.4372 218.672 94.6509C218.048 94.8481 217.464 95.0781 216.922 95.3411L216.256 93.7142C216.832 93.4019 217.514 93.139 218.302 92.9253C219.091 92.6953 219.913 92.5802 220.767 92.5802ZM221.408 99.6302C219.765 99.696 218.623 99.9589 217.982 100.419C217.357 100.879 217.045 101.528 217.045 102.366C217.045 103.106 217.267 103.648 217.711 103.993C218.171 104.338 218.754 104.511 219.461 104.511C220.578 104.511 221.507 104.207 222.246 103.599C222.986 102.974 223.356 102.021 223.356 100.739V99.5563L221.408 99.6302ZM232.219 103.426C232.071 104.002 231.882 104.626 231.652 105.3C231.422 105.974 231.167 106.639 230.887 107.296C230.625 107.97 230.362 108.603 230.099 109.195H228.496C228.661 108.57 228.817 107.896 228.965 107.173C229.129 106.467 229.277 105.768 229.408 105.078C229.54 104.371 229.647 103.73 229.729 103.155H232.046L232.219 103.426ZM43.7862 129.626H39.4724V141.015H37.3278V129.626H33.0633V127.802H43.7862V129.626ZM52.6747 127.556C54.3017 127.556 55.6081 128.123 56.5941 129.256C57.5966 130.39 58.0978 132.099 58.0978 134.384C58.0978 135.879 57.8677 137.145 57.4076 138.18C56.9639 139.199 56.3312 139.971 55.5095 140.497C54.7043 141.006 53.7511 141.261 52.6501 141.261C51.9763 141.261 51.3765 141.171 50.8506 140.99C50.3247 140.809 49.8728 140.579 49.4949 140.3C49.1333 140.004 48.8211 139.684 48.5581 139.338H48.4102C48.4431 139.618 48.476 139.971 48.5088 140.398C48.5417 140.826 48.5581 141.195 48.5581 141.508V146.931H46.3889V127.802H48.1637L48.4595 129.602H48.5581C48.8211 129.224 49.1333 128.878 49.4949 128.566C49.8728 128.254 50.3165 128.008 50.826 127.827C51.3518 127.646 51.9681 127.556 52.6747 127.556ZM52.2803 129.38C51.3929 129.38 50.6781 129.552 50.1358 129.897C49.5935 130.226 49.1991 130.727 48.9525 131.401C48.706 132.075 48.5746 132.929 48.5581 133.965V134.384C48.5581 135.468 48.6732 136.389 48.9032 137.145C49.1333 137.9 49.5195 138.476 50.0618 138.87C50.6206 139.264 51.3765 139.462 52.3296 139.462C53.1349 139.462 53.7922 139.24 54.3017 138.796C54.8275 138.352 55.2137 137.753 55.4602 136.997C55.7232 136.224 55.8546 135.345 55.8546 134.359C55.8546 132.847 55.5588 131.639 54.9672 130.735C54.392 129.832 53.4964 129.38 52.2803 129.38ZM63.6006 135.863C63.6006 136.011 63.5924 136.224 63.5759 136.504C63.5759 136.767 63.5677 137.054 63.5513 137.366C63.5349 137.662 63.5184 137.95 63.502 138.229C63.4856 138.492 63.4691 138.706 63.4527 138.87L70.5273 127.802H73.1896V141.015H71.1682V133.225C71.1682 132.962 71.1682 132.617 71.1682 132.19C71.1847 131.763 71.2011 131.344 71.2175 130.933C71.234 130.505 71.2504 130.185 71.2668 129.971L64.2415 141.015H61.5546V127.802H63.6006V135.863ZM87.4517 141.015H85.2578V129.602H81.3631C81.1987 131.689 80.9933 133.472 80.7468 134.951C80.5003 136.413 80.1881 137.605 79.8101 138.525C79.4321 139.445 78.9802 140.119 78.4543 140.546C77.9285 140.974 77.3122 141.187 76.6056 141.187C76.3919 141.187 76.1783 141.171 75.9646 141.138C75.7674 141.121 75.6031 141.08 75.4716 141.015V139.388C75.5702 139.421 75.6771 139.445 75.7921 139.462C75.9071 139.478 76.0222 139.486 76.1372 139.486C76.4987 139.486 76.8274 139.338 77.1232 139.043C77.419 138.747 77.6819 138.295 77.912 137.687C78.1585 137.079 78.3804 136.315 78.5776 135.394C78.7748 134.458 78.9473 133.357 79.0952 132.091C79.2431 130.826 79.3746 129.396 79.4896 127.802H87.4517V141.015ZM101.703 141.015H99.5088V129.602H95.614C95.4497 131.689 95.2443 133.472 94.9977 134.951C94.7512 136.413 94.439 137.605 94.061 138.525C93.6831 139.445 93.2311 140.119 92.7053 140.546C92.1794 140.974 91.5631 141.187 90.8565 141.187C90.6429 141.187 90.4292 141.171 90.2156 141.138C90.0184 141.121 89.8541 141.08 89.7226 141.015V139.388C89.8212 139.421 89.928 139.445 90.043 139.462C90.1581 139.478 90.2731 139.486 90.3881 139.486C90.7497 139.486 91.0784 139.338 91.3742 139.043C91.67 138.747 91.9329 138.295 92.163 137.687C92.4095 137.079 92.6313 136.315 92.8285 135.394C93.0257 134.458 93.1983 133.357 93.3462 132.091C93.4941 130.826 93.6255 129.396 93.7406 127.802H101.703V141.015ZM110.999 127.556C112.133 127.556 113.102 127.802 113.908 128.295C114.729 128.788 115.354 129.487 115.781 130.39C116.225 131.278 116.447 132.321 116.447 133.521V134.827H107.4C107.433 136.323 107.811 137.465 108.534 138.254C109.273 139.026 110.3 139.412 111.615 139.412C112.453 139.412 113.193 139.338 113.834 139.191C114.491 139.026 115.165 138.796 115.855 138.5V140.398C115.181 140.694 114.516 140.908 113.858 141.039C113.201 141.187 112.42 141.261 111.517 141.261C110.268 141.261 109.158 141.006 108.189 140.497C107.236 139.988 106.488 139.232 105.946 138.229C105.42 137.21 105.157 135.97 105.157 134.507C105.157 133.061 105.395 131.82 105.872 130.785C106.365 129.749 107.047 128.952 107.918 128.394C108.805 127.835 109.832 127.556 110.999 127.556ZM110.974 129.33C109.939 129.33 109.117 129.667 108.509 130.341C107.918 130.998 107.564 131.919 107.449 133.102H114.179C114.179 132.346 114.064 131.689 113.834 131.13C113.604 130.571 113.25 130.136 112.774 129.823C112.314 129.495 111.714 129.33 110.974 129.33ZM126.096 127.556C127.723 127.556 129.029 128.123 130.015 129.256C131.018 130.39 131.519 132.099 131.519 134.384C131.519 135.879 131.289 137.145 130.829 138.18C130.385 139.199 129.752 139.971 128.931 140.497C128.126 141.006 127.172 141.261 126.071 141.261C125.398 141.261 124.798 141.171 124.272 140.99C123.746 140.809 123.294 140.579 122.916 140.3C122.555 140.004 122.242 139.684 121.979 139.338H121.832C121.864 139.618 121.897 139.971 121.93 140.398C121.963 140.826 121.979 141.195 121.979 141.508V146.931H119.81V127.802H121.585L121.881 129.602H121.979C122.242 129.224 122.555 128.878 122.916 128.566C123.294 128.254 123.738 128.008 124.247 127.827C124.773 127.646 125.389 127.556 126.096 127.556ZM125.702 129.38C124.814 129.38 124.099 129.552 123.557 129.897C123.015 130.226 122.62 130.727 122.374 131.401C122.127 132.075 121.996 132.929 121.979 133.965V134.384C121.979 135.468 122.094 136.389 122.325 137.145C122.555 137.9 122.941 138.476 123.483 138.87C124.042 139.264 124.798 139.462 125.751 139.462C126.556 139.462 127.213 139.24 127.723 138.796C128.249 138.352 128.635 137.753 128.882 136.997C129.144 136.224 129.276 135.345 129.276 134.359C129.276 132.847 128.98 131.639 128.388 130.735C127.813 129.832 126.918 129.38 125.702 129.38Z" fill="white"/>
</g>
<defs>
<linearGradient id="paint0_linear_109_13790" x1="419.969" y1="-8.11759" x2="105.51" y2="278.954" gradientUnits="userSpaceOnUse">
<stop stop-color="#4E4E4E"/>
<stop offset="1" stop-color="#4E4E4E"/>
</linearGradient>
<clippath id="clip0_109_13790">
<rect x="0.914062" y="0.166016" width="364.689" height="198.806" rx="25.3256" fill="white"/>
</clippath>
<clippath id="clip1_109_13790">
<rect width="160.818" height="160.818" fill="white" transform="translate(238.977 67.2793)"/>
</clippath>
</defs>
</svg>
