<svg width="32" height="32" viewBox="0 0 32 32" fill="none" xmlns="http://www.w3.org/2000/svg">
<g id="Iconex/Filled/Bookmark">
<g id="Bookmark">
<path id="Subtract" fill-rule="evenodd" clip-rule="evenodd" d="M7 9.79527C7 6.59463 9.46966 4 12.5161 4H19.4839C22.5303 4 25 6.59463 25 9.79528V25.8614C25 27.5506 23.2213 28.5709 21.8688 27.6574L16.785 24.2239C16.3068 23.9009 15.6932 23.9009 15.215 24.2239L10.1312 27.6574C8.77873 28.5709 7 27.5506 7 25.8614V9.79527ZM12.5161 10.7103C12.0351 10.7103 11.6452 11.12 11.6452 11.6254C11.6452 12.1307 12.0351 12.5404 12.5161 12.5404H19.4839C19.9649 12.5404 20.3548 12.1307 20.3548 11.6254C20.3548 11.12 19.9649 10.7103 19.4839 10.7103H12.5161Z" fill="#F6A80B"/>
</g>
</g>
</svg>
