<svg width="368" height="199" viewBox="0 0 368 199" fill="none" xmlns="http://www.w3.org/2000/svg">
<g clip-path="url(#clip0_109_13814)">
<rect x="0.601562" y="0.166016" width="462.193" height="198.806" rx="25.3256" fill="url(#paint0_linear_109_13814)"/>
<path d="M43.9076 62.8232L38.1992 45.7854H38.0827C38.1021 46.1737 38.1313 46.7271 38.1701 47.4455C38.2089 48.1445 38.238 48.9114 38.2575 49.7463C38.2963 50.5618 38.3157 51.3288 38.3157 52.0472V62.8232H34.9664V42.0284H40.1505L45.626 58.3672H45.7424L51.4508 42.0284H56.635V62.8232H53.0818V51.8724C53.0818 51.2123 53.0915 50.4939 53.1109 49.7172C53.1498 48.9212 53.1789 48.1736 53.1983 47.4746C53.2372 46.7562 53.2663 46.2029 53.2857 45.8145H53.1692L47.2278 62.8232H43.9076ZM59.306 47.0378H63.2961L66.4415 55.9499C66.5775 56.3382 66.694 56.7168 66.791 57.0857C66.9075 57.4352 67.0046 57.7944 67.0823 58.1633C67.1599 58.5322 67.2182 58.9011 67.257 59.2701H67.3735C67.4512 58.7846 67.5677 58.2507 67.723 57.6682C67.8978 57.0857 68.0725 56.5129 68.2473 55.9499L71.2762 47.0378H75.2371L68.5094 64.9202C68.1211 65.9493 67.6259 66.8327 67.024 67.5705C66.4415 68.3084 65.7426 68.8617 64.9271 69.2306C64.131 69.619 63.2281 69.8131 62.2185 69.8131C61.7525 69.8131 61.335 69.784 60.9661 69.7257C60.6166 69.6869 60.306 69.6384 60.0342 69.5801V66.6677C60.2477 66.7065 60.5001 66.7453 60.7914 66.7842C61.102 66.823 61.4224 66.8424 61.7525 66.8424C62.3544 66.8424 62.8689 66.7162 63.2961 66.4638C63.7427 66.2308 64.1116 65.9007 64.4028 65.4736C64.7135 65.0464 64.9659 64.5707 65.1601 64.0465L65.6261 62.765L59.306 47.0378ZM90.3628 62.8232H86.6931V49.8628H82.47C82.2759 52.2511 82.0331 54.2801 81.7419 55.9499C81.4507 57.6197 81.0915 58.9885 80.6643 60.0564C80.2371 61.1049 79.7032 61.8718 79.0625 62.3573C78.4411 62.8427 77.6839 63.0854 76.7907 63.0854C76.383 63.0854 76.0044 63.0562 75.6549 62.998C75.3054 62.9397 75.0044 62.8427 74.752 62.7067V59.8234C74.9268 59.8817 75.1112 59.9399 75.3054 59.9982C75.4996 60.037 75.7034 60.0564 75.917 60.0564C76.2471 60.0564 76.548 59.9302 76.8199 59.6778C77.1111 59.406 77.3732 58.9691 77.6062 58.3672C77.8586 57.7459 78.0916 56.9304 78.3052 55.9207C78.5188 54.9111 78.7032 53.6782 78.8586 52.2219C79.0333 50.7463 79.1887 49.0182 79.3246 47.0378H90.3628V62.8232ZM102.395 53.2704C103.928 53.2704 105.191 53.4452 106.181 53.7947C107.19 54.1247 107.938 54.6296 108.423 55.3091C108.928 55.9887 109.181 56.843 109.181 57.8721C109.181 58.8817 108.948 59.7555 108.482 60.4933C108.016 61.2311 107.287 61.8039 106.297 62.2116C105.326 62.6194 104.045 62.8232 102.453 62.8232H95.0843V47.0378H98.754V53.2704H102.395ZM105.511 57.9595C105.511 57.2022 105.229 56.678 104.666 56.3867C104.103 56.0955 103.288 55.9499 102.22 55.9499H98.754V60.1729H102.278C103.229 60.1729 104.006 60.0079 104.608 59.6778C105.21 59.3283 105.511 58.7555 105.511 57.9595ZM123.558 49.8628H118.373V62.8232H114.733V49.8628H109.578V47.0378H123.558V49.8628ZM130.094 54.5519C130.094 54.8237 130.074 55.1732 130.035 55.6004C130.016 56.0081 129.996 56.445 129.977 56.911C129.958 57.3575 129.929 57.7653 129.89 58.1342C129.87 58.4837 129.851 58.7458 129.831 58.9206L137.549 47.0378H141.976V62.8232H138.452V55.3965C138.452 54.9499 138.462 54.4354 138.481 53.8529C138.52 53.2704 138.559 52.717 138.598 52.1928C138.637 51.6491 138.666 51.2414 138.685 50.9696L130.996 62.8232H126.569V47.0378H130.094V54.5519ZM156.667 47.0378H160.715L154.279 54.6101L161.269 62.8232H157.075L150.376 54.814V62.8232H146.706V47.0378H150.376V54.6975L156.667 47.0378ZM167.267 54.5519C167.267 54.8237 167.248 55.1732 167.209 55.6004C167.189 56.0081 167.17 56.445 167.151 56.911C167.131 57.3575 167.102 57.7653 167.063 58.1342C167.044 58.4837 167.024 58.7458 167.005 58.9206L174.723 47.0378H179.15V62.8232H175.626V55.3965C175.626 54.9499 175.636 54.4354 175.655 53.8529C175.694 53.2704 175.733 52.717 175.771 52.1928C175.81 51.6491 175.839 51.2414 175.859 50.9696L168.17 62.8232H163.743V47.0378H167.267V54.5519Z" fill="white"/>
<g clip-path="url(#clip1_109_13814)">
<path d="M265.414 149.442H261.918C247.7 149.442 236.133 137.875 236.133 123.657C236.133 120.809 238.442 118.5 241.29 118.5H262.286C263.783 118.5 265.206 119.15 266.185 120.282C267.165 121.414 267.604 122.916 267.389 124.397C267.181 125.837 267.075 127.323 267.075 128.814C267.075 133.453 268.082 137.91 270.067 142.06C270.831 143.658 270.722 145.536 269.778 147.034C268.833 148.533 267.186 149.442 265.414 149.442Z" fill="#FF9100"/>
<path d="M412.138 187.856C412.052 167.675 404.034 152.458 393.483 152.458C388.608 152.458 383.351 155.342 376.699 158.997C368.558 163.47 358.426 169.033 348.184 169.033C337.829 169.033 329.134 163.79 325.496 159.485C334.191 151.695 339.266 140.535 339.266 128.815C339.266 128.471 339.262 128.113 339.252 127.752C338.936 115.341 333.112 104.274 324.138 96.9134C317.018 91.0688 307.914 87.5586 298.009 87.5586C288.019 87.5586 278.378 91.1754 270.866 97.7454C263.427 104.247 258.565 113.192 257.176 122.919C256.894 124.847 256.753 126.831 256.753 128.815C256.753 135.007 258.101 140.961 260.752 146.507C262 149.12 263.512 151.585 265.269 153.871C257.283 160.699 251.569 169.311 248.258 179.546C246.233 185.793 245.212 192.404 245.219 199.201V199.356C245.219 214.961 251.4 229.342 263.096 240.939C269.265 247.056 289.481 264.583 324.138 263.489C339.338 263.066 352.925 260.58 364.566 256.093C375.85 251.748 385.4 245.497 392.954 237.525C409.752 219.781 412.182 198.789 412.138 187.856Z" fill="#FED843"/>
<path d="M282.54 128.811C285.388 128.811 287.697 126.502 287.697 123.654C287.697 120.806 285.388 118.497 282.54 118.497C279.692 118.497 277.383 120.806 277.383 123.654C277.383 126.502 279.692 128.811 282.54 128.811Z" fill="#596C76"/>
<path d="M355.306 213.57L350.812 211.325L355.306 209.077C356.547 208.458 357.485 207.361 357.912 206.041C358.335 204.717 358.207 203.28 357.561 202.053C352.297 192.096 339.205 185.64 324.154 185.54H323.81C314.538 185.54 305.754 187.991 299.07 192.447C291.744 197.329 287.711 204.033 287.711 211.325C287.711 218.614 291.744 225.318 299.07 230.2C305.754 234.655 314.538 237.11 323.81 237.11H324.154C339.205 237.011 352.297 230.551 357.561 220.594C358.207 219.367 358.335 217.93 357.912 216.609C357.485 215.286 356.547 214.192 355.306 213.57Z" fill="#FABE2C"/>
<path opacity="0.4" d="M392.964 237.522C385.41 245.495 375.86 251.745 364.576 256.091C352.935 260.578 339.348 263.063 324.148 263.486V96.9111C333.122 104.272 338.946 115.339 339.262 127.75C339.272 128.111 339.276 128.469 339.276 128.812C339.276 140.533 334.201 151.692 325.506 159.483C329.144 163.787 337.839 169.03 348.194 169.03C358.436 169.03 368.568 163.468 376.709 158.995C383.361 155.34 388.618 152.456 393.493 152.456C404.044 152.456 412.062 167.672 412.148 187.853C412.193 198.786 409.762 219.779 392.964 237.522Z" fill="#FABE2C"/>
<path d="M357.898 216.609C358.321 217.93 358.194 219.367 357.548 220.594C352.284 230.551 339.192 237.011 324.141 237.11V185.54C339.192 185.64 352.284 192.096 357.548 202.053C358.194 203.28 358.321 204.717 357.898 206.041C357.472 207.361 356.534 208.458 355.292 209.077L350.799 211.325L355.292 213.57C356.534 214.192 357.472 215.286 357.898 216.609Z" fill="#FF9100"/>
</g>
<path d="M47.4917 106.015H44.8295L36.8674 97.0912V106.015H34.6489V88.4143H36.8674V96.9433L44.6323 88.4143H47.1466L39.505 96.968L47.4917 106.015ZM61.078 99.3837C61.078 100.485 60.9301 101.463 60.6343 102.317C60.355 103.155 59.9441 103.87 59.4018 104.462C58.876 105.053 58.2268 105.505 57.4545 105.817C56.6985 106.113 55.8522 106.261 54.9155 106.261C54.0445 106.261 53.2393 106.113 52.4997 105.817C51.7602 105.505 51.1193 105.053 50.577 104.462C50.0347 103.87 49.6074 103.155 49.2952 102.317C48.9994 101.463 48.8515 100.485 48.8515 99.3837C48.8515 97.9211 49.098 96.6886 49.591 95.6862C50.084 94.6673 50.7907 93.8949 51.7109 93.369C52.6312 92.8267 53.724 92.5556 54.9894 92.5556C56.1891 92.5556 57.2408 92.8267 58.1447 93.369C59.0649 93.8949 59.7798 94.6673 60.2892 95.6862C60.8151 96.6886 61.078 97.9211 61.078 99.3837ZM51.0947 99.3837C51.0947 100.419 51.2261 101.323 51.4891 102.095C51.7685 102.851 52.1957 103.435 52.7709 103.845C53.3461 104.256 54.0774 104.462 54.9648 104.462C55.8522 104.462 56.5835 104.256 57.1586 103.845C57.7338 103.435 58.1529 102.851 58.4158 102.095C58.6952 101.323 58.8349 100.419 58.8349 99.3837C58.8349 98.332 58.6952 97.4363 58.4158 96.6968C58.1364 95.9573 57.7092 95.3904 57.134 94.996C56.5753 94.5851 55.844 94.3797 54.9401 94.3797C53.5926 94.3797 52.6148 94.8234 52.0067 95.7108C51.3987 96.5982 51.0947 97.8225 51.0947 99.3837ZM78.6899 92.8021V106.015H76.7425V97.5842C76.7425 97.2391 76.7508 96.8776 76.7672 96.4996C76.8001 96.1217 76.8329 95.7519 76.8658 95.3904H76.7918L72.478 106.015H70.6539L66.4634 95.3904H66.3894C66.4223 95.7519 66.4387 96.1217 66.4387 96.4996C66.4551 96.8776 66.4634 97.2638 66.4634 97.6582V106.015H64.516V92.8021H67.4001L71.566 103.426L75.8058 92.8021H78.6899ZM88.01 92.5556C89.1439 92.5556 90.1135 92.8021 90.9188 93.2951C91.7404 93.7881 92.3649 94.4865 92.7922 95.3904C93.2359 96.2778 93.4577 97.3213 93.4577 98.521V99.8274H84.4111C84.444 101.323 84.8219 102.465 85.545 103.254C86.2845 104.026 87.3116 104.412 88.6263 104.412C89.4644 104.412 90.2039 104.338 90.8448 104.191C91.5022 104.026 92.1759 103.796 92.8661 103.5V105.398C92.1924 105.694 91.5268 105.908 90.8695 106.039C90.2121 106.187 89.4315 106.261 88.5277 106.261C87.2787 106.261 86.1695 106.006 85.1999 105.497C84.2467 104.988 83.499 104.232 82.9567 103.229C82.4308 102.21 82.1679 100.97 82.1679 99.507C82.1679 98.0608 82.4062 96.8201 82.8828 95.7848C83.3758 94.7495 84.0578 93.9524 84.9287 93.3937C85.8162 92.835 86.8432 92.5556 88.01 92.5556ZM87.9854 94.3304C86.9501 94.3304 86.1284 94.6673 85.5203 95.3411C84.9287 95.9984 84.5754 96.9187 84.4604 98.1019H91.1899C91.1899 97.346 91.0749 96.6886 90.8448 96.1299C90.6147 95.5711 90.2614 95.1357 89.7848 94.8234C89.3247 94.4947 88.7249 94.3304 87.9854 94.3304ZM106.632 92.8021V104.191H108.555V110.6H106.46V106.015H97.2651V110.6H95.1944V104.191H96.2544C97.0103 103.139 97.6348 101.997 98.1278 100.764C98.6373 99.5152 99.0152 98.2169 99.2617 96.8694C99.5247 95.5054 99.6643 94.1496 99.6808 92.8021H106.632ZM101.604 94.503C101.538 95.6204 101.365 96.779 101.086 97.9787C100.806 99.1619 100.445 100.296 100.001 101.38C99.574 102.465 99.0727 103.402 98.4976 104.191H104.537V94.503H101.604ZM113.19 100.863C113.19 101.011 113.182 101.224 113.166 101.504C113.166 101.767 113.158 102.054 113.141 102.366C113.125 102.662 113.108 102.95 113.092 103.229C113.075 103.492 113.059 103.706 113.043 103.87L120.117 92.8021H122.779V106.015H120.758V98.2252C120.758 97.9622 120.758 97.6171 120.758 97.1898C120.775 96.7626 120.791 96.3435 120.807 95.9327C120.824 95.5054 120.84 95.185 120.857 94.9713L113.831 106.015H111.145V92.8021H113.19V100.863ZM127.798 106.015H125.283L129.055 100.468C128.545 100.337 128.052 100.131 127.576 99.8521C127.099 99.5563 126.713 99.1537 126.417 98.6442C126.121 98.1183 125.974 97.4692 125.974 96.6968C125.974 95.4315 126.401 94.4701 127.255 93.8128C128.11 93.139 129.244 92.8021 130.657 92.8021H136.573V106.015H134.404V100.764H131.199L127.798 106.015ZM128.069 96.7215C128.069 97.4774 128.348 98.0444 128.907 98.4224C129.482 98.7839 130.279 98.9647 131.298 98.9647H134.404V94.6016H130.879C129.877 94.6016 129.153 94.7988 128.71 95.1932C128.283 95.5876 128.069 96.097 128.069 96.7215ZM143.391 103.426C143.243 104.002 143.054 104.626 142.824 105.3C142.594 105.974 142.34 106.639 142.06 107.296C141.797 107.97 141.534 108.603 141.271 109.195H139.669C139.833 108.57 139.99 107.896 140.137 107.173C140.302 106.467 140.45 105.768 140.581 105.078C140.713 104.371 140.819 103.73 140.902 103.155H143.219L143.391 103.426ZM163.564 92.8021V104.191H165.486V110.6H163.391V106.015H154.197V110.6H152.126V104.191H153.186C153.942 103.139 154.566 101.997 155.059 100.764C155.569 99.5152 155.947 98.2169 156.193 96.8694C156.456 95.5054 156.596 94.1496 156.612 92.8021H163.564ZM158.535 94.503C158.469 95.6204 158.297 96.779 158.017 97.9787C157.738 99.1619 157.377 100.296 156.933 101.38C156.506 102.465 156.004 103.402 155.429 104.191H161.468V94.503H158.535ZM174.362 92.5556C175.989 92.5556 177.295 93.1225 178.281 94.2565C179.284 95.3904 179.785 97.0995 179.785 99.3837C179.785 100.879 179.555 102.145 179.095 103.18C178.651 104.199 178.018 104.971 177.197 105.497C176.391 106.006 175.438 106.261 174.337 106.261C173.663 106.261 173.064 106.171 172.538 105.99C172.012 105.809 171.56 105.579 171.182 105.3C170.82 105.004 170.508 104.684 170.245 104.338H170.097C170.13 104.618 170.163 104.971 170.196 105.398C170.229 105.826 170.245 106.195 170.245 106.508V111.931H168.076V92.8021H169.851L170.147 94.6016H170.245C170.508 94.2236 170.82 93.8785 171.182 93.5663C171.56 93.254 172.004 93.0075 172.513 92.8267C173.039 92.646 173.655 92.5556 174.362 92.5556ZM173.968 94.3797C173.08 94.3797 172.365 94.5523 171.823 94.8974C171.281 95.226 170.886 95.7273 170.64 96.401C170.393 97.0748 170.262 97.9294 170.245 98.9647V99.3837C170.245 100.468 170.36 101.389 170.59 102.145C170.82 102.9 171.207 103.476 171.749 103.87C172.308 104.264 173.064 104.462 174.017 104.462C174.822 104.462 175.479 104.24 175.989 103.796C176.515 103.352 176.901 102.753 177.147 101.997C177.41 101.224 177.542 100.345 177.542 99.3591C177.542 97.8472 177.246 96.6393 176.654 95.7355C176.079 94.8316 175.184 94.3797 173.968 94.3797ZM188.246 92.5802C189.856 92.5802 191.048 92.9336 191.82 93.6402C192.592 94.3468 192.979 95.4725 192.979 97.0173V106.015H191.401L190.982 104.141H190.883C190.505 104.618 190.111 105.02 189.7 105.349C189.306 105.661 188.846 105.891 188.32 106.039C187.81 106.187 187.186 106.261 186.446 106.261C185.658 106.261 184.943 106.121 184.302 105.842C183.677 105.563 183.184 105.135 182.823 104.56C182.461 103.969 182.28 103.229 182.28 102.342C182.28 101.027 182.798 100.016 183.833 99.3098C184.869 98.5867 186.463 98.1923 188.616 98.1266L190.859 98.0526V97.2638C190.859 96.1627 190.62 95.3986 190.144 94.9713C189.667 94.544 188.994 94.3304 188.123 94.3304C187.432 94.3304 186.775 94.4372 186.151 94.6509C185.526 94.8481 184.943 95.0781 184.4 95.3411L183.735 93.7142C184.31 93.4019 184.992 93.139 185.781 92.9253C186.57 92.6953 187.391 92.5802 188.246 92.5802ZM188.887 99.6302C187.243 99.696 186.101 99.9589 185.46 100.419C184.836 100.879 184.524 101.528 184.524 102.366C184.524 103.106 184.745 103.648 185.189 103.993C185.649 104.338 186.233 104.511 186.939 104.511C188.057 104.511 188.985 104.207 189.725 103.599C190.464 102.974 190.834 102.021 190.834 100.739V99.5563L188.887 99.6302ZM211.233 92.8021V106.015H209.286V97.5842C209.286 97.2391 209.294 96.8776 209.311 96.4996C209.344 96.1217 209.376 95.7519 209.409 95.3904H209.335L205.021 106.015H203.197L199.007 95.3904H198.933C198.966 95.7519 198.982 96.1217 198.982 96.4996C198.999 96.8776 199.007 97.2638 199.007 97.6582V106.015H197.059V92.8021H199.944L204.109 103.426L208.349 92.8021H211.233ZM220.455 92.5802C222.065 92.5802 223.257 92.9336 224.029 93.6402C224.802 94.3468 225.188 95.4725 225.188 97.0173V106.015H223.61L223.191 104.141H223.092C222.714 104.618 222.32 105.02 221.909 105.349C221.515 105.661 221.055 105.891 220.529 106.039C220.019 106.187 219.395 106.261 218.655 106.261C217.867 106.261 217.152 106.121 216.511 105.842C215.886 105.563 215.393 105.135 215.032 104.56C214.67 103.969 214.49 103.229 214.49 102.342C214.49 101.027 215.007 100.016 216.042 99.3098C217.078 98.5867 218.672 98.1923 220.825 98.1266L223.068 98.0526V97.2638C223.068 96.1627 222.83 95.3986 222.353 94.9713C221.876 94.544 221.203 94.3304 220.332 94.3304C219.641 94.3304 218.984 94.4372 218.36 94.6509C217.735 94.8481 217.152 95.0781 216.609 95.3411L215.944 93.7142C216.519 93.4019 217.201 93.139 217.99 92.9253C218.779 92.6953 219.6 92.5802 220.455 92.5802ZM221.096 99.6302C219.452 99.696 218.31 99.9589 217.669 100.419C217.045 100.879 216.733 101.528 216.733 102.366C216.733 103.106 216.955 103.648 217.398 103.993C217.858 104.338 218.442 104.511 219.148 104.511C220.266 104.511 221.194 104.207 221.934 103.599C222.673 102.974 223.043 102.021 223.043 100.739V99.5563L221.096 99.6302ZM231.906 103.426C231.758 104.002 231.569 104.626 231.339 105.3C231.109 105.974 230.854 106.639 230.575 107.296C230.312 107.97 230.049 108.603 229.786 109.195H228.184C228.348 108.57 228.504 107.896 228.652 107.173C228.817 106.467 228.964 105.768 229.096 105.078C229.227 104.371 229.334 103.73 229.416 103.155H231.734L231.906 103.426ZM43.4737 129.626H39.1599V141.015H37.0153V129.626H32.7508V127.802H43.4737V129.626ZM52.3622 127.556C53.9892 127.556 55.2956 128.123 56.2816 129.256C57.2841 130.39 57.7853 132.099 57.7853 134.384C57.7853 135.879 57.5552 137.145 57.0951 138.18C56.6514 139.199 56.0187 139.971 55.197 140.497C54.3918 141.006 53.4386 141.261 52.3376 141.261C51.6638 141.261 51.064 141.171 50.5381 140.99C50.0122 140.809 49.5603 140.579 49.1824 140.3C48.8208 140.004 48.5086 139.684 48.2456 139.338H48.0977C48.1306 139.618 48.1635 139.971 48.1963 140.398C48.2292 140.826 48.2456 141.195 48.2456 141.508V146.931H46.0764V127.802H47.8512L48.147 129.602H48.2456C48.5086 129.224 48.8208 128.878 49.1824 128.566C49.5603 128.254 50.004 128.008 50.5135 127.827C51.0393 127.646 51.6556 127.556 52.3622 127.556ZM51.9678 129.38C51.0804 129.38 50.3656 129.552 49.8233 129.897C49.281 130.226 48.8866 130.727 48.64 131.401C48.3935 132.075 48.2621 132.929 48.2456 133.965V134.384C48.2456 135.468 48.3607 136.389 48.5907 137.145C48.8208 137.9 49.207 138.476 49.7493 138.87C50.3081 139.264 51.064 139.462 52.0171 139.462C52.8224 139.462 53.4797 139.24 53.9892 138.796C54.515 138.352 54.9012 137.753 55.1477 136.997C55.4107 136.224 55.5421 135.345 55.5421 134.359C55.5421 132.847 55.2463 131.639 54.6547 130.735C54.0795 129.832 53.1839 129.38 51.9678 129.38ZM63.2881 135.863C63.2881 136.011 63.2799 136.224 63.2634 136.504C63.2634 136.767 63.2552 137.054 63.2388 137.366C63.2224 137.662 63.2059 137.95 63.1895 138.229C63.1731 138.492 63.1566 138.706 63.1402 138.87L70.2148 127.802H72.8771V141.015H70.8557V133.225C70.8557 132.962 70.8557 132.617 70.8557 132.19C70.8722 131.763 70.8886 131.344 70.905 130.933C70.9215 130.505 70.9379 130.185 70.9543 129.971L63.929 141.015H61.2421V127.802H63.2881V135.863ZM87.1392 141.015H84.9453V129.602H81.0506C80.8862 131.689 80.6808 133.472 80.4343 134.951C80.1878 136.413 79.8756 137.605 79.4976 138.525C79.1196 139.445 78.6677 140.119 78.1418 140.546C77.616 140.974 76.9997 141.187 76.2931 141.187C76.0794 141.187 75.8658 141.171 75.6521 141.138C75.4549 141.121 75.2906 141.08 75.1591 141.015V139.388C75.2577 139.421 75.3646 139.445 75.4796 139.462C75.5946 139.478 75.7097 139.486 75.8247 139.486C76.1862 139.486 76.5149 139.338 76.8107 139.043C77.1065 138.747 77.3694 138.295 77.5995 137.687C77.846 137.079 78.0679 136.315 78.2651 135.394C78.4623 134.458 78.6348 133.357 78.7827 132.091C78.9306 130.826 79.0621 129.396 79.1771 127.802H87.1392V141.015ZM101.39 141.015H99.1963V129.602H95.3015C95.1372 131.689 94.9318 133.472 94.6852 134.951C94.4387 136.413 94.1265 137.605 93.7485 138.525C93.3706 139.445 92.9186 140.119 92.3928 140.546C91.8669 140.974 91.2506 141.187 90.544 141.187C90.3304 141.187 90.1167 141.171 89.9031 141.138C89.7059 141.121 89.5416 141.08 89.4101 141.015V139.388C89.5087 139.421 89.6155 139.445 89.7305 139.462C89.8456 139.478 89.9606 139.486 90.0756 139.486C90.4372 139.486 90.7659 139.338 91.0617 139.043C91.3575 138.747 91.6204 138.295 91.8505 137.687C92.097 137.079 92.3188 136.315 92.516 135.394C92.7132 134.458 92.8858 133.357 93.0337 132.091C93.1816 130.826 93.313 129.396 93.4281 127.802H101.39V141.015ZM110.686 127.556C111.82 127.556 112.79 127.802 113.595 128.295C114.417 128.788 115.041 129.487 115.469 130.39C115.912 131.278 116.134 132.321 116.134 133.521V134.827H107.087C107.12 136.323 107.498 137.465 108.221 138.254C108.961 139.026 109.988 139.412 111.303 139.412C112.141 139.412 112.88 139.338 113.521 139.191C114.178 139.026 114.852 138.796 115.542 138.5V140.398C114.869 140.694 114.203 140.908 113.546 141.039C112.888 141.187 112.108 141.261 111.204 141.261C109.955 141.261 108.846 141.006 107.876 140.497C106.923 139.988 106.175 139.232 105.633 138.229C105.107 137.21 104.844 135.97 104.844 134.507C104.844 133.061 105.083 131.82 105.559 130.785C106.052 129.749 106.734 128.952 107.605 128.394C108.492 127.835 109.52 127.556 110.686 127.556ZM110.662 129.33C109.626 129.33 108.805 129.667 108.197 130.341C107.605 130.998 107.252 131.919 107.137 133.102H113.866C113.866 132.346 113.751 131.689 113.521 131.13C113.291 130.571 112.938 130.136 112.461 129.823C112.001 129.495 111.401 129.33 110.662 129.33ZM125.784 127.556C127.41 127.556 128.717 128.123 129.703 129.256C130.705 130.39 131.207 132.099 131.207 134.384C131.207 135.879 130.977 137.145 130.516 138.18C130.073 139.199 129.44 139.971 128.618 140.497C127.813 141.006 126.86 141.261 125.759 141.261C125.085 141.261 124.485 141.171 123.959 140.99C123.434 140.809 122.982 140.579 122.604 140.3C122.242 140.004 121.93 139.684 121.667 139.338H121.519C121.552 139.618 121.585 139.971 121.618 140.398C121.65 140.826 121.667 141.195 121.667 141.508V146.931H119.498V127.802H121.273L121.568 129.602H121.667C121.93 129.224 122.242 128.878 122.604 128.566C122.982 128.254 123.425 128.008 123.935 127.827C124.461 127.646 125.077 127.556 125.784 127.556ZM125.389 129.38C124.502 129.38 123.787 129.552 123.245 129.897C122.702 130.226 122.308 130.727 122.061 131.401C121.815 132.075 121.683 132.929 121.667 133.965V134.384C121.667 135.468 121.782 136.389 122.012 137.145C122.242 137.9 122.628 138.476 123.171 138.87C123.729 139.264 124.485 139.462 125.438 139.462C126.244 139.462 126.901 139.24 127.41 138.796C127.936 138.352 128.322 137.753 128.569 136.997C128.832 136.224 128.963 135.345 128.963 134.359C128.963 132.847 128.668 131.639 128.076 130.735C127.501 129.832 126.605 129.38 125.389 129.38Z" fill="white"/>
</g>
<defs>
<linearGradient id="paint0_linear_109_13814" x1="419.656" y1="-8.11759" x2="105.197" y2="278.954" gradientUnits="userSpaceOnUse">
<stop stop-color="#66C57B"/>
<stop offset="1" stop-color="#42B860"/>
</linearGradient>
<clipPath id="clip0_109_13814">
<rect x="0.601562" y="0.166016" width="367.222" height="198.806" rx="25.3256" fill="white"/>
</clipPath>
<clipPath id="clip1_109_13814">
<rect width="176.013" height="176.013" fill="white" transform="translate(236.125 87.54)"/>
</clipPath>
</defs>
</svg>
