<svg width="368" height="199" viewBox="0 0 368 199" fill="none" xmlns="http://www.w3.org/2000/svg">
<g clip-path="url(#clip0_109_13772)">
<rect x="0.6875" y="0.166016" width="462.193" height="198.806" rx="25.3256" fill="url(#paint0_linear_109_13772)"/>
<path d="M46.2653 41.7371V44.3001C48.537 44.3583 50.333 44.7466 51.6533 45.465C52.993 46.164 53.9444 47.096 54.5075 48.261C55.09 49.4066 55.3812 50.6686 55.3812 52.0472C55.3812 52.9403 55.2356 53.8529 54.9444 54.7849C54.6531 55.6975 54.158 56.5324 53.459 57.2896C52.76 58.0468 51.828 58.6681 50.6631 59.1536C49.4981 59.6195 48.0321 59.872 46.2653 59.9108V63.1145H42.8286V59.9108C41.0423 59.872 39.5569 59.6098 38.3725 59.1244C37.2075 58.639 36.2853 58.0177 35.6057 57.2605C34.9261 56.4838 34.4407 55.6392 34.1495 54.7266C33.8582 53.8141 33.7126 52.9209 33.7126 52.0472C33.7126 51.0375 33.8679 50.0764 34.1786 49.1639C34.5087 48.2319 35.0232 47.4164 35.7222 46.7174C36.4406 45.999 37.3823 45.4262 38.5473 44.9991C39.7122 44.5719 41.1393 44.3389 42.8286 44.3001V41.7371H46.2653ZM42.8286 47.2708C41.45 47.329 40.353 47.562 39.5375 47.9698C38.7414 48.3775 38.1686 48.9309 37.8192 49.6299C37.4697 50.3094 37.2949 51.1055 37.2949 52.0181C37.2949 52.9889 37.4891 53.8432 37.8774 54.581C38.2657 55.2994 38.8676 55.8625 39.6831 56.2702C40.4986 56.678 41.5471 56.911 42.8286 56.9692V47.2708ZM46.2653 56.9692C47.5661 56.911 48.6243 56.678 49.4398 56.2702C50.2553 55.8431 50.8475 55.2703 51.2164 54.5519C51.6047 53.8335 51.7989 52.9889 51.7989 52.0181C51.7989 51.1055 51.6242 50.3094 51.2747 49.6299C50.9446 48.9309 50.3718 48.3775 49.5563 47.9698C48.7408 47.562 47.6438 47.329 46.2653 47.2708V56.9692ZM62.6585 54.5519C62.6585 54.8237 62.6391 55.1732 62.6002 55.6004C62.5808 56.0081 62.5614 56.445 62.542 56.911C62.5226 57.3575 62.4934 57.7653 62.4546 58.1342C62.4352 58.4837 62.4158 58.7458 62.3964 58.9206L70.1143 47.0378H74.5413V62.8232H71.0172V55.3965C71.0172 54.9499 71.0269 54.4354 71.0463 53.8529C71.0852 53.2704 71.124 52.717 71.1628 52.1928C71.2017 51.6491 71.2308 51.2414 71.2502 50.9696L63.5613 62.8232H59.1344V47.0378H62.6585V54.5519ZM92.6103 62.8232H88.9406V49.8628H84.7175C84.5234 52.2511 84.2807 54.2801 83.9894 55.9499C83.6982 57.6197 83.339 58.9885 82.9118 60.0564C82.4847 61.1049 81.9507 61.8718 81.31 62.3573C80.6887 62.8427 79.9314 63.0854 79.0383 63.0854C78.6305 63.0854 78.2519 63.0562 77.9024 62.998C77.5529 62.9397 77.252 62.8427 76.9996 62.7067V59.8234C77.1743 59.8817 77.3588 59.9399 77.5529 59.9982C77.7471 60.037 77.951 60.0564 78.1645 60.0564C78.4946 60.0564 78.7956 59.9302 79.0674 59.6778C79.3586 59.406 79.6208 58.9691 79.8538 58.3672C80.1062 57.7459 80.3392 56.9304 80.5527 55.9207C80.7663 54.9111 80.9508 53.6782 81.1061 52.2219C81.2809 50.7463 81.4362 49.0182 81.5721 47.0378H92.6103V62.8232ZM104.642 53.2704C106.176 53.2704 107.438 53.4452 108.428 53.7947C109.438 54.1247 110.185 54.6296 110.671 55.3091C111.176 55.9887 111.428 56.843 111.428 57.8721C111.428 58.8817 111.195 59.7555 110.729 60.4933C110.263 61.2311 109.535 61.8039 108.545 62.2116C107.574 62.6194 106.292 62.8232 104.7 62.8232H97.3319V47.0378H101.002V53.2704H104.642ZM107.758 57.9595C107.758 57.2022 107.477 56.678 106.914 56.3867C106.351 56.0955 105.535 55.9499 104.467 55.9499H101.002V60.1729H104.526C105.477 60.1729 106.254 60.0079 106.856 59.6778C107.457 59.3283 107.758 58.7555 107.758 57.9595ZM133.78 47.0378V62.8232H130.401V54.2024C130.401 53.5617 130.411 52.9306 130.43 52.3093C130.469 51.688 130.508 51.0958 130.547 50.5327H130.459L125.799 62.8232H122.974L118.314 50.5327H118.227C118.285 51.0958 118.324 51.688 118.344 52.3093C118.363 52.9306 118.373 53.6005 118.373 54.3189V62.8232H114.994V47.0378H120.091L124.431 58.4837L128.799 47.0378H133.78ZM138.487 62.8232V47.0378H142.157V53.2704H144.982C146.516 53.2704 147.768 53.4452 148.739 53.7947C149.729 54.1247 150.457 54.6296 150.923 55.3091C151.409 55.9887 151.652 56.843 151.652 57.8721C151.652 58.8817 151.428 59.7555 150.982 60.4933C150.535 61.2311 149.826 61.8039 148.856 62.2116C147.885 62.6194 146.613 62.8232 145.04 62.8232H138.487ZM144.807 60.1729C145.739 60.1729 146.506 60.0079 147.108 59.6778C147.71 59.3283 148.011 58.7555 148.011 57.9595C148.011 57.2022 147.729 56.678 147.166 56.3867C146.623 56.0955 145.827 55.9499 144.778 55.9499H142.157V60.1729H144.807ZM154.069 62.8232V47.0378H157.739V62.8232H154.069Z" fill="white"/>
<g clip-path="url(#clip1_109_13772)">
<path d="M353.397 151.819C354.618 150.138 355.492 148.164 355.894 145.985C357.136 139.256 353.471 132.761 347.436 130.174C347.144 130.048 347.021 129.697 347.168 129.415C347.823 128.168 348.305 126.803 348.574 125.344C350.014 117.538 344.853 110.042 337.046 108.602C336.115 108.43 335.188 108.354 334.275 108.364C333.922 108.368 333.66 108.048 333.724 107.701C333.725 107.699 333.725 107.696 333.726 107.694C335.166 99.8875 330.005 92.3915 322.198 90.9514C317.493 90.0835 312.904 91.6157 309.683 94.6774C309.408 94.9388 308.962 94.8566 308.799 94.5143C306.882 90.505 303.142 87.4359 298.437 86.568C290.63 85.1278 283.134 90.2889 281.694 98.0954L281.693 98.1025C281.629 98.4496 281.27 98.6547 280.942 98.5253C280.093 98.1901 279.2 97.9303 278.268 97.7584C270.462 96.3183 262.966 101.479 261.526 109.286C261.257 110.744 261.22 112.191 261.386 113.59C261.423 113.906 261.183 114.191 260.865 114.203C254.304 114.468 248.563 119.227 247.322 125.956C246.962 127.907 246.906 130.425 247.31 132.248L353.397 151.819Z" fill="#FEDBA6"/>
<path d="M355.892 145.984C355.49 148.166 354.615 150.138 353.394 151.82L347.299 150.695C350.99 145.618 350.816 139.754 346.273 135.398C344.916 134.093 342.751 133.284 341.052 132.555C340.76 132.431 340.636 132.078 340.785 131.797C345.067 123.631 341.21 114.533 331.858 112.807C330.927 112.636 330 112.559 329.087 112.571C328.735 112.574 328.472 112.256 328.538 111.901C330.112 103.368 327.036 93.9612 319.144 90.7172C320.146 90.6855 321.168 90.7609 322.194 90.9501C330 92.3902 335.161 99.8862 333.721 107.692L333.719 107.701C333.656 108.047 333.917 108.367 334.273 108.363C335.185 108.354 336.109 108.429 337.043 108.602C344.85 110.042 350.011 117.538 348.571 125.344C348.302 126.801 347.818 128.167 347.166 129.416C347.016 129.697 347.141 130.047 347.432 130.174C353.469 132.761 357.133 139.257 355.892 145.984Z" fill="#FECE85"/>
<path d="M328.005 147.135C328.641 146.261 329.095 145.235 329.304 144.101C329.95 140.601 328.044 137.223 324.905 135.877C324.753 135.812 324.689 135.629 324.766 135.483C325.107 134.834 325.357 134.124 325.497 133.366C326.246 129.305 323.562 125.407 319.502 124.658C319.017 124.569 318.535 124.529 318.06 124.534C317.877 124.536 317.741 124.37 317.774 124.19C317.774 124.188 317.775 124.187 317.775 124.186C318.524 120.126 315.84 116.227 311.78 115.478C309.333 115.027 306.946 115.824 305.271 117.416C305.128 117.552 304.896 117.509 304.811 117.331C303.814 115.246 301.868 113.65 299.422 113.198C295.362 112.449 291.463 115.134 290.714 119.194L290.713 119.197C290.68 119.378 290.493 119.485 290.323 119.417C289.881 119.243 289.417 119.108 288.932 119.019C284.872 118.27 280.974 120.954 280.225 125.014C280.085 125.772 280.066 126.525 280.152 127.253C280.172 127.417 280.046 127.565 279.881 127.571C276.469 127.709 273.483 130.184 272.838 133.684C272.65 134.699 272.621 136.008 272.831 136.957L328.005 147.135Z" fill="#FEC165"/>
<path d="M329.307 144.101C329.098 145.234 328.643 146.259 328.008 147.135L324.221 146.437C324.734 143.658 324.939 142.446 323.973 140.672C323.354 139.54 322.338 138.549 321.082 138.168C320.874 138.105 320.654 138.055 320.466 137.944C319.832 137.573 320.038 137 320.277 136.451C321.032 134.726 321.257 132.05 320.251 130.364C319.467 129.046 317.817 128.148 316.357 127.815C315.688 127.661 314.999 127.567 314.361 127.303C313.521 126.952 313.938 125.831 313.964 125.048C313.995 124.081 313.962 123.067 313.816 122.138C313.59 120.727 312.984 119.387 312.011 118.333C311.197 117.446 310.198 116.748 309.21 116.071C308.985 115.916 308.751 115.76 308.511 115.603C309.546 115.326 310.656 115.271 311.78 115.478C315.841 116.228 318.527 120.125 317.778 124.186L317.777 124.189C317.744 124.369 317.878 124.535 318.062 124.535C318.537 124.528 319.018 124.568 319.503 124.658C323.564 125.407 326.247 129.306 325.498 133.365C325.358 134.124 325.108 134.833 324.768 135.483C324.689 135.63 324.756 135.814 324.906 135.878C328.045 137.224 329.952 140.602 329.307 144.101Z" fill="#FEA613"/>
<path d="M292.705 133.618C291.576 133.41 290.772 132.371 290.88 131.206C291.138 128.399 292.886 125.922 295.442 124.741C297.998 123.56 301.018 123.833 303.323 125.456C304.336 126.169 304.58 127.569 303.866 128.583C303.153 129.597 301.754 129.841 300.739 129.127C299.74 128.424 298.432 128.305 297.325 128.816C296.218 129.328 295.461 130.401 295.349 131.617C295.236 132.852 294.143 133.76 292.909 133.647C292.84 133.641 292.772 133.631 292.705 133.618Z" fill="#F5AF46"/>
<path d="M336.992 130.034C336.849 130.007 336.706 129.967 336.566 129.911C335.415 129.452 334.853 128.146 335.312 126.995C335.859 125.621 335.632 124.046 334.719 122.886C333.805 121.725 332.328 121.135 330.863 121.345C329.637 121.521 328.499 120.668 328.323 119.441C328.148 118.214 329 117.077 330.227 116.901C333.272 116.465 336.345 117.694 338.246 120.109C340.147 122.524 340.62 125.799 339.482 128.657C339.079 129.668 338.023 130.224 336.992 130.034Z" fill="#FEC165"/>
<path d="M298.177 154.574L247.828 145.286L241.854 220.326C241.591 223.206 243.567 225.811 246.41 226.335L283.671 233.209L320.932 240.083C323.775 240.607 326.55 238.878 327.332 236.095L348.526 163.863L298.177 154.574Z" fill="#F3F0F3"/>
<path d="M267.35 148.889L258.067 228.486L246.41 226.336C243.567 225.811 241.591 223.206 241.854 220.327L247.828 145.288L267.35 148.889Z" fill="#E41F2D"/>
<path d="M286.844 152.485L309.518 156.668L291.878 234.724L275.472 231.697L286.844 152.485Z" fill="#E41F2D"/>
<path d="M348.526 163.865L327.333 236.095C326.55 238.879 323.775 240.608 320.932 240.084L309.275 237.933L329.004 160.263L348.526 163.865Z" fill="#E41F2D"/>
<path d="M348.525 163.863L327.329 236.096C326.547 238.879 323.773 240.608 320.93 240.083L313.611 238.733C316.454 239.258 319.231 237.529 320.013 234.746L341.206 162.513L348.525 163.863Z" fill="#D3162D"/>
<path d="M354.656 165.905L241.39 145.01C239.952 144.745 239.002 143.365 239.267 141.927L240.942 132.85C241.207 131.413 242.587 130.462 244.025 130.727L357.291 151.622C358.728 151.887 359.679 153.268 359.414 154.705L357.739 163.783C357.474 165.22 356.094 166.171 354.656 165.905Z" fill="#E2E2E2"/>
</g>
<path d="M47.5776 106.015H44.9154L36.9534 97.0912V106.015H34.7348V88.4143H36.9534V96.9433L44.7182 88.4143H47.2325L39.5909 96.968L47.5776 106.015ZM61.164 99.3837C61.164 100.485 61.0161 101.463 60.7203 102.317C60.4409 103.155 60.0301 103.87 59.4878 104.462C58.9619 105.053 58.3128 105.505 57.5404 105.817C56.7844 106.113 55.9381 106.261 55.0014 106.261C54.1304 106.261 53.3252 106.113 52.5857 105.817C51.8462 105.505 51.2053 105.053 50.663 104.462C50.1207 103.87 49.6934 103.155 49.3811 102.317C49.0853 101.463 48.9374 100.485 48.9374 99.3837C48.9374 97.9211 49.1839 96.6886 49.6769 95.6862C50.17 94.6673 50.8766 93.8949 51.7969 93.369C52.7171 92.8267 53.81 92.5556 55.0754 92.5556C56.275 92.5556 57.3268 92.8267 58.2306 93.369C59.1509 93.8949 59.8657 94.6673 60.3752 95.6862C60.901 96.6886 61.164 97.9211 61.164 99.3837ZM51.1806 99.3837C51.1806 100.419 51.3121 101.323 51.575 102.095C51.8544 102.851 52.2817 103.435 52.8568 103.845C53.432 104.256 54.1633 104.462 55.0507 104.462C55.9381 104.462 56.6694 104.256 57.2446 103.845C57.8198 103.435 58.2388 102.851 58.5018 102.095C58.7811 101.323 58.9208 100.419 58.9208 99.3837C58.9208 98.332 58.7811 97.4363 58.5018 96.6968C58.2224 95.9573 57.7951 95.3904 57.2199 94.996C56.6612 94.5851 55.9299 94.3797 55.0261 94.3797C53.6785 94.3797 52.7007 94.8234 52.0927 95.7108C51.4846 96.5982 51.1806 97.8225 51.1806 99.3837ZM78.7758 92.8021V106.015H76.8285V97.5842C76.8285 97.2391 76.8367 96.8776 76.8531 96.4996C76.886 96.1217 76.9189 95.7519 76.9517 95.3904H76.8778L72.564 106.015H70.7399L66.5493 95.3904H66.4753C66.5082 95.7519 66.5247 96.1217 66.5247 96.4996C66.5411 96.8776 66.5493 97.2638 66.5493 97.6582V106.015H64.6019V92.8021H67.486L71.6519 103.426L75.8918 92.8021H78.7758ZM88.096 92.5556C89.2299 92.5556 90.1995 92.8021 91.0047 93.2951C91.8264 93.7881 92.4508 94.4865 92.8781 95.3904C93.3218 96.2778 93.5437 97.3213 93.5437 98.521V99.8274H84.497C84.5299 101.323 84.9079 102.465 85.6309 103.254C86.3704 104.026 87.3975 104.412 88.7122 104.412C89.5503 104.412 90.2898 104.338 90.9307 104.191C91.5881 104.026 92.2619 103.796 92.9521 103.5V105.398C92.2783 105.694 91.6127 105.908 90.9554 106.039C90.2981 106.187 89.5175 106.261 88.6136 106.261C87.3647 106.261 86.2554 106.006 85.2858 105.497C84.3327 104.988 83.585 104.232 83.0427 103.229C82.5168 102.21 82.2538 100.97 82.2538 99.507C82.2538 98.0608 82.4921 96.8201 82.9687 95.7848C83.4617 94.7495 84.1437 93.9524 85.0147 93.3937C85.9021 92.835 86.9292 92.5556 88.096 92.5556ZM88.0713 94.3304C87.036 94.3304 86.2143 94.6673 85.6063 95.3411C85.0147 95.9984 84.6614 96.9187 84.5463 98.1019H91.2759C91.2759 97.346 91.1608 96.6886 90.9307 96.1299C90.7007 95.5711 90.3474 95.1357 89.8708 94.8234C89.4106 94.4947 88.8108 94.3304 88.0713 94.3304ZM106.718 92.8021V104.191H108.641V110.6H106.546V106.015H97.351V110.6H95.2804V104.191H96.3403C97.0963 103.139 97.7207 101.997 98.2138 100.764C98.7232 99.5152 99.1012 98.2169 99.3477 96.8694C99.6106 95.5054 99.7503 94.1496 99.7667 92.8021H106.718ZM101.689 94.503C101.624 95.6204 101.451 96.779 101.172 97.9787C100.892 99.1619 100.531 100.296 100.087 101.38C99.6599 102.465 99.1587 103.402 98.5835 104.191H104.623V94.503H101.689ZM113.276 100.863C113.276 101.011 113.268 101.224 113.252 101.504C113.252 101.767 113.244 102.054 113.227 102.366C113.211 102.662 113.194 102.95 113.178 103.229C113.161 103.492 113.145 103.706 113.129 103.87L120.203 92.8021H122.865V106.015H120.844V98.2252C120.844 97.9622 120.844 97.6171 120.844 97.1898C120.86 96.7626 120.877 96.3435 120.893 95.9327C120.91 95.5054 120.926 95.185 120.943 94.9713L113.917 106.015H111.23V92.8021H113.276V100.863ZM127.884 106.015H125.369L129.141 100.468C128.631 100.337 128.138 100.131 127.662 99.8521C127.185 99.5563 126.799 99.1537 126.503 98.6442C126.207 98.1183 126.06 97.4692 126.06 96.6968C126.06 95.4315 126.487 94.4701 127.341 93.8128C128.196 93.139 129.33 92.8021 130.743 92.8021H136.659V106.015H134.49V100.764H131.285L127.884 106.015ZM128.155 96.7215C128.155 97.4774 128.434 98.0444 128.993 98.4224C129.568 98.7839 130.365 98.9647 131.384 98.9647H134.49V94.6016H130.965C129.962 94.6016 129.239 94.7988 128.796 95.1932C128.368 95.5876 128.155 96.097 128.155 96.7215ZM143.477 103.426C143.329 104.002 143.14 104.626 142.91 105.3C142.68 105.974 142.426 106.639 142.146 107.296C141.883 107.97 141.62 108.603 141.357 109.195H139.755C139.919 108.57 140.076 107.896 140.223 107.173C140.388 106.467 140.536 105.768 140.667 105.078C140.799 104.371 140.905 103.73 140.988 103.155H143.305L143.477 103.426ZM163.65 92.8021V104.191H165.572V110.6H163.477V106.015H154.283V110.6H152.212V104.191H153.272C154.028 103.139 154.652 101.997 155.145 100.764C155.655 99.5152 156.033 98.2169 156.279 96.8694C156.542 95.5054 156.682 94.1496 156.698 92.8021H163.65ZM158.621 94.503C158.555 95.6204 158.383 96.779 158.103 97.9787C157.824 99.1619 157.462 100.296 157.019 101.38C156.591 102.465 156.09 103.402 155.515 104.191H161.554V94.503H158.621ZM174.448 92.5556C176.075 92.5556 177.381 93.1225 178.367 94.2565C179.37 95.3904 179.871 97.0995 179.871 99.3837C179.871 100.879 179.641 102.145 179.181 103.18C178.737 104.199 178.104 104.971 177.283 105.497C176.477 106.006 175.524 106.261 174.423 106.261C173.749 106.261 173.15 106.171 172.624 105.99C172.098 105.809 171.646 105.579 171.268 105.3C170.906 105.004 170.594 104.684 170.331 104.338H170.183C170.216 104.618 170.249 104.971 170.282 105.398C170.315 105.826 170.331 106.195 170.331 106.508V111.931H168.162V92.8021H169.937L170.233 94.6016H170.331C170.594 94.2236 170.906 93.8785 171.268 93.5663C171.646 93.254 172.09 93.0075 172.599 92.8267C173.125 92.646 173.741 92.5556 174.448 92.5556ZM174.053 94.3797C173.166 94.3797 172.451 94.5523 171.909 94.8974C171.367 95.226 170.972 95.7273 170.726 96.401C170.479 97.0748 170.348 97.9294 170.331 98.9647V99.3837C170.331 100.468 170.446 101.389 170.676 102.145C170.906 102.9 171.293 103.476 171.835 103.87C172.394 104.264 173.15 104.462 174.103 104.462C174.908 104.462 175.565 104.24 176.075 103.796C176.601 103.352 176.987 102.753 177.233 101.997C177.496 101.224 177.628 100.345 177.628 99.3591C177.628 97.8472 177.332 96.6393 176.74 95.7355C176.165 94.8316 175.27 94.3797 174.053 94.3797ZM188.332 92.5802C189.942 92.5802 191.134 92.9336 191.906 93.6402C192.678 94.3468 193.065 95.4725 193.065 97.0173V106.015H191.487L191.068 104.141H190.969C190.591 104.618 190.197 105.02 189.786 105.349C189.392 105.661 188.932 105.891 188.406 106.039C187.896 106.187 187.272 106.261 186.532 106.261C185.743 106.261 185.029 106.121 184.388 105.842C183.763 105.563 183.27 105.135 182.909 104.56C182.547 103.969 182.366 103.229 182.366 102.342C182.366 101.027 182.884 100.016 183.919 99.3098C184.955 98.5867 186.549 98.1923 188.701 98.1266L190.945 98.0526V97.2638C190.945 96.1627 190.706 95.3986 190.23 94.9713C189.753 94.544 189.079 94.3304 188.208 94.3304C187.518 94.3304 186.861 94.4372 186.236 94.6509C185.612 94.8481 185.029 95.0781 184.486 95.3411L183.821 93.7142C184.396 93.4019 185.078 93.139 185.867 92.9253C186.656 92.6953 187.477 92.5802 188.332 92.5802ZM188.973 99.6302C187.329 99.696 186.187 99.9589 185.546 100.419C184.922 100.879 184.61 101.528 184.61 102.366C184.61 103.106 184.831 103.648 185.275 103.993C185.735 104.338 186.319 104.511 187.025 104.511C188.143 104.511 189.071 104.207 189.811 103.599C190.55 102.974 190.92 102.021 190.92 100.739V99.5563L188.973 99.6302ZM211.319 92.8021V106.015H209.372V97.5842C209.372 97.2391 209.38 96.8776 209.397 96.4996C209.429 96.1217 209.462 95.7519 209.495 95.3904H209.421L205.107 106.015H203.283L199.093 95.3904H199.019C199.052 95.7519 199.068 96.1217 199.068 96.4996C199.085 96.8776 199.093 97.2638 199.093 97.6582V106.015H197.145V92.8021H200.029L204.195 103.426L208.435 92.8021H211.319ZM220.541 92.5802C222.151 92.5802 223.343 92.9336 224.115 93.6402C224.887 94.3468 225.274 95.4725 225.274 97.0173V106.015H223.696L223.277 104.141H223.178C222.8 104.618 222.406 105.02 221.995 105.349C221.601 105.661 221.141 105.891 220.615 106.039C220.105 106.187 219.481 106.261 218.741 106.261C217.953 106.261 217.238 106.121 216.597 105.842C215.972 105.563 215.479 105.135 215.118 104.56C214.756 103.969 214.575 103.229 214.575 102.342C214.575 101.027 215.093 100.016 216.128 99.3098C217.164 98.5867 218.758 98.1923 220.911 98.1266L223.154 98.0526V97.2638C223.154 96.1627 222.915 95.3986 222.439 94.9713C221.962 94.544 221.289 94.3304 220.418 94.3304C219.727 94.3304 219.07 94.4372 218.446 94.6509C217.821 94.8481 217.238 95.0781 216.695 95.3411L216.03 93.7142C216.605 93.4019 217.287 93.139 218.076 92.9253C218.865 92.6953 219.686 92.5802 220.541 92.5802ZM221.182 99.6302C219.538 99.696 218.396 99.9589 217.755 100.419C217.131 100.879 216.819 101.528 216.819 102.366C216.819 103.106 217.04 103.648 217.484 103.993C217.944 104.338 218.528 104.511 219.234 104.511C220.352 104.511 221.28 104.207 222.02 103.599C222.759 102.974 223.129 102.021 223.129 100.739V99.5563L221.182 99.6302ZM231.992 103.426C231.844 104.002 231.655 104.626 231.425 105.3C231.195 105.974 230.94 106.639 230.661 107.296C230.398 107.97 230.135 108.603 229.872 109.195H228.27C228.434 108.57 228.59 107.896 228.738 107.173C228.903 106.467 229.05 105.768 229.182 105.078C229.313 104.371 229.42 103.73 229.502 103.155H231.819L231.992 103.426ZM43.5596 129.626H39.2458V141.015H37.1013V129.626H32.8368V127.802H43.5596V129.626ZM52.4482 127.556C54.0751 127.556 55.3816 128.123 56.3676 129.256C57.37 130.39 57.8712 132.099 57.8712 134.384C57.8712 135.879 57.6412 137.145 57.181 138.18C56.7373 139.199 56.1046 139.971 55.283 140.497C54.4777 141.006 53.5246 141.261 52.4235 141.261C51.7498 141.261 51.1499 141.171 50.6241 140.99C50.0982 140.809 49.6463 140.579 49.2683 140.3C48.9068 140.004 48.5945 139.684 48.3316 139.338H48.1837C48.2165 139.618 48.2494 139.971 48.2823 140.398C48.3151 140.826 48.3316 141.195 48.3316 141.508V146.931H46.1624V127.802H47.9372L48.233 129.602H48.3316C48.5945 129.224 48.9068 128.878 49.2683 128.566C49.6463 128.254 50.09 128.008 50.5994 127.827C51.1253 127.646 51.7415 127.556 52.4482 127.556ZM52.0538 129.38C51.1664 129.38 50.4515 129.552 49.9092 129.897C49.3669 130.226 48.9725 130.727 48.726 131.401C48.4795 132.075 48.348 132.929 48.3316 133.965V134.384C48.3316 135.468 48.4466 136.389 48.6767 137.145C48.9068 137.9 49.2929 138.476 49.8352 138.87C50.394 139.264 51.1499 139.462 52.1031 139.462C52.9083 139.462 53.5657 139.24 54.0751 138.796C54.601 138.352 54.9872 137.753 55.2337 136.997C55.4966 136.224 55.6281 135.345 55.6281 134.359C55.6281 132.847 55.3323 131.639 54.7407 130.735C54.1655 129.832 53.2699 129.38 52.0538 129.38ZM63.374 135.863C63.374 136.011 63.3658 136.224 63.3494 136.504C63.3494 136.767 63.3412 137.054 63.3247 137.366C63.3083 137.662 63.2919 137.95 63.2754 138.229C63.259 138.492 63.2426 138.706 63.2261 138.87L70.3008 127.802H72.963V141.015H70.9417V133.225C70.9417 132.962 70.9417 132.617 70.9417 132.19C70.9581 131.763 70.9745 131.344 70.991 130.933C71.0074 130.505 71.0238 130.185 71.0403 129.971L64.0149 141.015H61.3281V127.802H63.374V135.863ZM87.2251 141.015H85.0312V129.602H81.1365C80.9722 131.689 80.7667 133.472 80.5202 134.951C80.2737 136.413 79.9615 137.605 79.5835 138.525C79.2056 139.445 78.7536 140.119 78.2278 140.546C77.7019 140.974 77.0856 141.187 76.379 141.187C76.1654 141.187 75.9517 141.171 75.7381 141.138C75.5409 141.121 75.3765 141.08 75.2451 141.015V139.388C75.3437 139.421 75.4505 139.445 75.5655 139.462C75.6806 139.478 75.7956 139.486 75.9106 139.486C76.2722 139.486 76.6008 139.338 76.8966 139.043C77.1925 138.747 77.4554 138.295 77.6855 137.687C77.932 137.079 78.1538 136.315 78.351 135.394C78.5482 134.458 78.7208 133.357 78.8687 132.091C79.0166 130.826 79.148 129.396 79.2631 127.802H87.2251V141.015ZM101.476 141.015H99.2822V129.602H95.3874C95.2231 131.689 95.0177 133.472 94.7712 134.951C94.5247 136.413 94.2124 137.605 93.8345 138.525C93.4565 139.445 93.0046 140.119 92.4787 140.546C91.9528 140.974 91.3366 141.187 90.6299 141.187C90.4163 141.187 90.2027 141.171 89.989 141.138C89.7918 141.121 89.6275 141.08 89.496 141.015V139.388C89.5946 139.421 89.7014 139.445 89.8165 139.462C89.9315 139.478 90.0465 139.486 90.1616 139.486C90.5231 139.486 90.8518 139.338 91.1476 139.043C91.4434 138.747 91.7063 138.295 91.9364 137.687C92.1829 137.079 92.4048 136.315 92.602 135.394C92.7992 134.458 92.9717 133.357 93.1196 132.091C93.2675 130.826 93.399 129.396 93.514 127.802H101.476V141.015ZM110.772 127.556C111.906 127.556 112.876 127.802 113.681 128.295C114.503 128.788 115.127 129.487 115.554 130.39C115.998 131.278 116.22 132.321 116.22 133.521V134.827H107.173C107.206 136.323 107.584 137.465 108.307 138.254C109.047 139.026 110.074 139.412 111.389 139.412C112.227 139.412 112.966 139.338 113.607 139.191C114.264 139.026 114.938 138.796 115.628 138.5V140.398C114.955 140.694 114.289 140.908 113.632 141.039C112.974 141.187 112.194 141.261 111.29 141.261C110.041 141.261 108.932 141.006 107.962 140.497C107.009 139.988 106.261 139.232 105.719 138.229C105.193 137.21 104.93 135.97 104.93 134.507C104.93 133.061 105.168 131.82 105.645 130.785C106.138 129.749 106.82 128.952 107.691 128.394C108.578 127.835 109.606 127.556 110.772 127.556ZM110.748 129.33C109.712 129.33 108.891 129.667 108.283 130.341C107.691 130.998 107.338 131.919 107.223 133.102H113.952C113.952 132.346 113.837 131.689 113.607 131.13C113.377 130.571 113.024 130.136 112.547 129.823C112.087 129.495 111.487 129.33 110.748 129.33ZM125.869 127.556C127.496 127.556 128.803 128.123 129.789 129.256C130.791 130.39 131.293 132.099 131.293 134.384C131.293 135.879 131.062 137.145 130.602 138.18C130.159 139.199 129.526 139.971 128.704 140.497C127.899 141.006 126.946 141.261 125.845 141.261C125.171 141.261 124.571 141.171 124.045 140.99C123.519 140.809 123.068 140.579 122.69 140.3C122.328 140.004 122.016 139.684 121.753 139.338H121.605C121.638 139.618 121.671 139.971 121.704 140.398C121.736 140.826 121.753 141.195 121.753 141.508V146.931H119.584V127.802H121.358L121.654 129.602H121.753C122.016 129.224 122.328 128.878 122.69 128.566C123.068 128.254 123.511 128.008 124.021 127.827C124.547 127.646 125.163 127.556 125.869 127.556ZM125.475 129.38C124.588 129.38 123.873 129.552 123.33 129.897C122.788 130.226 122.394 130.727 122.147 131.401C121.901 132.075 121.769 132.929 121.753 133.965V134.384C121.753 135.468 121.868 136.389 122.098 137.145C122.328 137.9 122.714 138.476 123.257 138.87C123.815 139.264 124.571 139.462 125.524 139.462C126.33 139.462 126.987 139.24 127.496 138.796C128.022 138.352 128.408 137.753 128.655 136.997C128.918 136.224 129.049 135.345 129.049 134.359C129.049 132.847 128.754 131.639 128.162 130.735C127.587 129.832 126.691 129.38 125.475 129.38Z" fill="white"/>
</g>
<defs>
<linearGradient id="paint0_linear_109_13772" x1="419.742" y1="-8.11759" x2="105.283" y2="278.954" gradientUnits="userSpaceOnUse">
<stop stop-color="#6693EE"/>
<stop offset="1" stop-color="#5F8EEF"/>
</linearGradient>
<clippath id="clip0_109_13772">
<rect x="0.6875" y="0.166016" width="367.222" height="198.806" rx="25.3256" fill="white"/>
</clippath>
<clippath id="clip1_109_13772">
<rect width="146.889" height="146.889" fill="white" transform="translate(238.094 75.4346) rotate(10.4523)"/>
</clippath>
</defs>
</svg>
