<svg width="1920" height="1950" viewBox="0 0 1920 1950" fill="none" xmlns="http://www.w3.org/2000/svg">
<g clip-path="url(#clip0_0_257)">
<rect width="1920" height="1950" fill="#1F3596"/>
<path opacity="0.3" d="M1426.43 -60.3435C1611.31 -174.457 1849.12 48.7968 1972.48 -130C1972.48 -130 2009.02 975.086 1938.94 948.529C1492.46 779.325 1473.6 948.529 1291.23 932.28C1169.83 921.462 1098.72 840.509 1094.19 670.371C1088.03 438.956 1229.38 61.2851 1426.43 -60.3435Z" fill="#314DC9"/>
<path opacity="0.3" d="M242.665 859.065C107.338 942.509 -66.7336 779.258 -157.031 910C-157.031 910 -183.775 101.925 -132.481 121.344C194.333 245.072 208.142 121.344 341.63 133.226C430.497 141.137 482.543 200.332 485.858 324.743C490.367 493.961 386.904 770.126 242.665 859.065Z" fill="#314DC9"/>
<path d="M1466.83 143.745C1466.83 143.552 1466.98 143.392 1467.17 143.38C1475.54 142.87 1475.89 142.526 1476.54 134.167C1476.55 133.974 1476.71 133.825 1476.91 133.826C1477.1 133.828 1477.26 133.979 1477.27 134.173C1477.78 142.541 1478.13 142.891 1486.49 143.537C1486.68 143.552 1486.83 143.714 1486.83 143.907C1486.83 144.101 1486.67 144.261 1486.48 144.273C1478.11 144.782 1477.76 145.127 1477.12 153.486C1477.1 153.679 1476.94 153.828 1476.75 153.826C1476.55 153.825 1476.39 153.673 1476.38 153.48C1475.87 145.112 1475.53 144.762 1467.17 144.116C1466.97 144.101 1466.83 143.939 1466.83 143.745Z" fill="#FED402"/>
<path d="M1477.97 139.972C1477.58 138.666 1477.43 136.822 1477.27 134.173C1477.26 133.979 1477.1 133.828 1476.91 133.826C1476.71 133.825 1476.55 133.974 1476.54 134.167C1475.89 142.526 1475.54 142.87 1467.17 143.38C1466.98 143.392 1466.83 143.552 1466.83 143.745C1466.83 143.939 1466.97 144.101 1467.17 144.116C1469.77 144.318 1471.6 144.49 1472.9 144.886C1476.42 144.431 1477.45 143.448 1477.97 139.972Z" fill="#FAC600"/>
<path d="M1373.68 973.897L1382.35 969.574C1383.07 969.215 1383.56 968.523 1383.68 967.721L1385.07 958.054C1385.21 957.046 1386.44 956.643 1387.14 957.373L1393.89 964.368C1394.45 964.948 1395.26 965.212 1396.05 965.076L1405.57 963.424C1406.57 963.252 1407.33 964.306 1406.86 965.209L1402.36 973.855C1401.99 974.572 1401.99 975.428 1402.36 976.145L1406.86 984.791C1407.33 985.694 1406.57 986.748 1405.57 986.576L1396.05 984.924C1395.26 984.788 1394.45 985.052 1393.89 985.632L1387.14 992.627C1386.44 993.357 1385.21 992.954 1385.07 991.946L1383.68 982.279C1383.56 981.477 1383.07 980.785 1382.35 980.426L1373.68 976.103C1372.77 975.652 1372.77 974.348 1373.68 973.897Z" fill="#FED402"/>
<path d="M59.4988 635.673L65.8728 632.43C66.401 632.161 66.7672 631.642 66.8518 631.041L67.8739 623.791C67.9805 623.034 68.8826 622.732 69.4004 623.28L74.3618 628.526C74.773 628.961 75.3655 629.159 75.9461 629.057L82.9518 627.818C83.6829 627.689 84.2404 628.48 83.8952 629.157L80.5876 635.642C80.3135 636.179 80.3135 636.821 80.5876 637.358L83.8952 643.843C84.2404 644.52 83.6829 645.311 82.9518 645.182L75.9461 643.943C75.3655 643.841 74.773 644.039 74.3618 644.474L69.4006 649.72C68.8828 650.268 67.9808 649.966 67.8741 649.209L66.852 641.959C66.7672 641.358 66.401 640.839 65.8729 640.57L59.4989 637.327C58.8337 636.989 58.8337 636.011 59.4988 635.673Z" fill="#FED402"/>
<path d="M1691.39 642.859C1687.73 644.171 1686.17 645.728 1684.86 649.391C1684.57 650.203 1683.43 650.203 1683.14 649.391C1681.83 645.728 1680.27 644.171 1676.61 642.859C1675.8 642.568 1675.8 641.432 1676.61 641.141C1680.27 639.829 1681.83 638.272 1683.14 634.609C1683.43 633.797 1684.57 633.797 1684.86 634.609C1686.17 638.272 1687.73 639.829 1691.39 641.141C1692.2 641.432 1692.2 642.568 1691.39 642.859Z" fill="white"/>
<path d="M411.391 771.859C407.728 773.171 406.171 774.728 404.859 778.391C404.568 779.203 403.432 779.203 403.141 778.391C401.829 774.728 400.272 773.171 396.609 771.859C395.797 771.568 395.797 770.432 396.609 770.141C400.272 768.829 401.829 767.272 403.141 763.609C403.432 762.797 404.568 762.797 404.859 763.609C406.171 767.272 407.728 768.829 411.391 770.141C412.203 770.432 412.203 771.568 411.391 771.859Z" fill="white"/>
<path d="M925.932 820.148C922.414 818.485 920.213 818.485 916.694 820.148C915.915 820.516 915.111 819.712 915.48 818.933C917.142 815.414 917.142 813.213 915.48 809.695C915.111 808.915 915.915 808.111 916.694 808.48C920.213 810.142 922.414 810.142 925.932 808.48C926.712 808.111 927.516 808.915 927.147 809.695C925.485 813.213 925.485 815.414 927.147 818.933C927.516 819.712 926.712 820.516 925.932 820.148Z" fill="white"/>
<path d="M74.9517 286.831C71.9833 284.314 69.8575 283.744 66.0285 284.44C65.1803 284.594 64.6119 283.609 65.1694 282.952C67.6861 279.983 68.2557 277.857 67.5604 274.028C67.4063 273.18 68.3908 272.612 69.0483 273.169C72.0167 275.686 74.1425 276.256 77.9716 275.56C78.8197 275.406 79.3881 276.391 78.8307 277.048C76.314 280.017 75.7444 282.142 76.4397 285.972C76.5937 286.82 75.6092 287.388 74.9517 286.831Z" fill="white"/>
<path d="M1489.39 834.859C1485.73 836.171 1484.17 837.728 1482.86 841.391C1482.57 842.203 1481.43 842.203 1481.14 841.391C1479.83 837.728 1478.27 836.171 1474.61 834.859C1473.8 834.568 1473.8 833.432 1474.61 833.141C1478.27 831.829 1479.83 830.272 1481.14 826.609C1481.43 825.797 1482.57 825.797 1482.86 826.609C1484.17 830.272 1485.73 831.829 1489.39 833.141C1490.2 833.432 1490.2 834.568 1489.39 834.859Z" fill="white"/>
<path d="M1645.33 901.483C1645.07 901.312 1644.98 900.97 1645.14 900.7C1651.72 889.014 1651.56 888.245 1640.89 880.121C1640.64 879.933 1640.58 879.586 1640.75 879.326C1640.92 879.067 1641.27 878.984 1641.54 879.137C1653.22 885.717 1653.99 885.559 1662.11 874.888C1662.3 874.641 1662.65 874.582 1662.91 874.753C1663.17 874.923 1663.25 875.265 1663.1 875.535C1656.52 887.221 1656.68 887.99 1667.35 896.114C1667.59 896.302 1667.65 896.649 1667.48 896.909C1667.31 897.168 1666.97 897.251 1666.7 897.098C1655.01 890.518 1654.24 890.677 1646.12 901.347C1645.93 901.594 1645.59 901.653 1645.33 901.483Z" fill="#FED402"/>
<path d="M1649.93 883.239C1647.84 882.626 1645.23 881.22 1641.54 879.137C1641.26 878.984 1640.92 879.068 1640.75 879.327C1640.58 879.586 1640.64 879.933 1640.89 880.121C1651.56 888.245 1651.72 889.014 1645.14 900.7C1644.98 900.97 1645.07 901.312 1645.33 901.483C1645.59 901.653 1645.93 901.594 1646.12 901.347C1648.65 898.019 1650.47 895.713 1652.13 894.316C1654.58 889.184 1654.15 886.957 1649.93 883.239Z" fill="#FAC600"/>
<path d="M1546.33 339.181C1546.17 339.075 1546.12 338.861 1546.21 338.692C1550.33 331.387 1550.23 330.906 1543.56 325.827C1543.4 325.71 1543.37 325.493 1543.47 325.331C1543.58 325.169 1543.79 325.117 1543.96 325.212C1551.27 329.326 1551.75 329.227 1556.83 322.556C1556.94 322.402 1557.16 322.365 1557.32 322.472C1557.48 322.578 1557.54 322.792 1557.44 322.961C1553.33 330.266 1553.43 330.747 1560.1 335.826C1560.25 335.943 1560.29 336.16 1560.18 336.322C1560.08 336.484 1559.86 336.536 1559.69 336.441C1552.39 332.327 1551.91 332.426 1546.83 339.097C1546.71 339.251 1546.49 339.288 1546.33 339.181Z" fill="#FED402"/>
<path d="M1549.21 327.777C1547.9 327.394 1546.27 326.514 1543.96 325.212C1543.79 325.117 1543.58 325.169 1543.47 325.331C1543.37 325.493 1543.4 325.71 1543.56 325.827C1550.23 330.906 1550.33 331.387 1546.21 338.692C1546.12 338.861 1546.17 339.075 1546.33 339.181C1546.49 339.288 1546.71 339.251 1546.83 339.097C1548.41 337.016 1549.55 335.575 1550.58 334.701C1552.12 331.493 1551.85 330.101 1549.21 327.777Z" fill="#FAC600"/>
<path d="M1860.33 757.181C1860.17 757.075 1860.12 756.861 1860.21 756.692C1864.33 749.387 1864.23 748.906 1857.56 743.827C1857.4 743.71 1857.37 743.493 1857.47 743.331C1857.58 743.169 1857.79 743.117 1857.96 743.212C1865.27 747.326 1865.75 747.227 1870.83 740.556C1870.94 740.402 1871.16 740.365 1871.32 740.472C1871.48 740.578 1871.54 740.792 1871.44 740.961C1867.33 748.266 1867.43 748.747 1874.1 753.826C1874.25 753.943 1874.29 754.16 1874.18 754.322C1874.08 754.484 1873.86 754.536 1873.69 754.441C1866.39 750.327 1865.91 750.426 1860.83 757.097C1860.71 757.251 1860.49 757.288 1860.33 757.181Z" fill="#FED402"/>
<path d="M1863.21 745.777C1861.9 745.394 1860.27 744.514 1857.96 743.212C1857.79 743.117 1857.58 743.169 1857.47 743.331C1857.37 743.493 1857.4 743.71 1857.56 743.827C1864.23 748.906 1864.33 749.387 1860.21 756.692C1860.12 756.861 1860.17 757.075 1860.33 757.181C1860.49 757.288 1860.71 757.251 1860.83 757.097C1862.41 755.016 1863.55 753.575 1864.58 752.701C1866.12 749.493 1865.85 748.101 1863.21 745.777Z" fill="#FAC600"/>
<path d="M950.331 461.181C950.169 461.075 950.117 460.861 950.213 460.692C954.326 453.387 954.227 452.906 947.557 447.827C947.402 447.71 947.365 447.493 947.472 447.331C947.578 447.169 947.792 447.117 947.961 447.212C955.266 451.326 955.747 451.227 960.826 444.556C960.944 444.402 961.16 444.365 961.322 444.472C961.484 444.578 961.536 444.792 961.441 444.961C957.327 452.266 957.427 452.747 964.097 457.826C964.251 457.943 964.288 458.16 964.182 458.322C964.075 458.484 963.861 458.536 963.692 458.441C956.387 454.327 955.907 454.426 950.828 461.097C950.71 461.251 950.493 461.288 950.331 461.181Z" fill="#FED402"/>
<path d="M953.208 449.777C951.901 449.394 950.273 448.514 947.961 447.212C947.792 447.117 947.578 447.169 947.472 447.331C947.365 447.493 947.402 447.71 947.557 447.827C954.227 452.906 954.326 453.387 950.213 460.692C950.117 460.861 950.169 461.075 950.331 461.181C950.493 461.288 950.71 461.251 950.828 461.097C952.412 459.016 953.549 457.575 954.585 456.701C956.115 453.493 955.845 452.101 953.208 449.777Z" fill="#FAC600"/>
<path d="M1872.02 248.216C1871.77 248.454 1871.39 248.465 1871.14 248.239C1860.15 238.517 1859.29 238.51 1848.15 248.053C1847.89 248.274 1847.51 248.258 1847.27 248.016C1847.03 247.774 1847.02 247.389 1847.25 247.135C1856.97 236.151 1856.98 235.292 1847.44 224.152C1847.21 223.894 1847.23 223.51 1847.47 223.272C1847.71 223.034 1848.1 223.024 1848.35 223.249C1859.34 232.971 1860.2 232.978 1871.34 223.435C1871.59 223.214 1871.98 223.231 1872.22 223.472C1872.45 223.714 1872.47 224.099 1872.24 224.353C1862.52 235.337 1862.51 236.196 1872.05 247.336C1872.27 247.594 1872.26 247.979 1872.02 248.216Z" fill="#FED402"/>
<path d="M1853.56 239.102C1852.43 241.197 1850.33 243.659 1847.25 247.135C1847.02 247.39 1847.03 247.774 1847.27 248.016C1847.51 248.258 1847.89 248.274 1848.15 248.054C1859.29 238.51 1860.15 238.517 1871.13 248.24C1871.39 248.465 1871.77 248.454 1872.02 248.217C1872.26 247.979 1872.27 247.594 1872.05 247.336C1869.08 243.861 1867.03 241.387 1865.92 239.293C1860.99 235.496 1858.51 235.446 1853.56 239.102Z" fill="#FAC600"/>
</g>
<defs>
<clippath id="clip0_0_257">
<rect width="1920" height="1950" fill="white"/>
</clippath>
</defs>
</svg>
