<svg width="80" height="80" viewBox="0 0 80 80" fill="none" xmlns="http://www.w3.org/2000/svg">
<g id="leo (1) 2">
<g id="Group">
<path id="Vector" d="M40 3.4375C18.8578 3.4375 1.71875 20.5766 1.71875 41.7188C1.71875 52.7369 6.37531 62.6661 13.8258 69.6505L14.0231 69.6211L18.9011 61.1722C19.7875 64.5798 21.5581 67.2705 22.5577 68.5964C22.7069 68.7942 22.9333 68.9077 23.1791 68.9077C23.5153 68.9077 23.8047 68.7036 23.9162 68.3878C24.5041 66.7244 26.2778 63.3869 31.5544 59.7255C32.3516 64.6836 35.2789 69.0331 39.5856 71.6586C39.7108 71.7348 39.8541 71.7753 39.9998 71.7753C40.1458 71.7753 40.2891 71.735 40.4141 71.6586C44.7208 69.0333 47.6481 64.6838 48.4452 59.7255C53.7219 63.387 55.4958 66.7244 56.0836 68.3878C56.195 68.7036 56.4842 68.9077 56.8206 68.9077C57.0664 68.9077 57.2928 68.7942 57.4422 68.5964C58.4416 67.2708 60.2122 64.5803 61.0986 61.1722L65.9766 69.6211L66.1741 69.6505C73.6247 62.6661 78.2812 52.7369 78.2812 41.7188C78.2812 20.5766 61.1422 3.4375 40 3.4375Z" fill="#2740B0"/>
<g id="Group_2">
<path id="Vector_2" d="M68.9467 50.1047C68.9552 52.5797 68.5058 54.7174 68.138 56.0468C68.0503 56.3636 67.7709 56.5055 67.533 56.5055C67.3523 56.5055 67.1866 56.4293 67.0664 56.2908C65.6769 54.6927 62.1488 51.8121 54.1294 50.4755C53.2975 50.3369 52.4767 50.128 51.6902 49.8547L51.5947 49.8214L50.3403 51.1522L50.3456 51.2211C50.3977 51.8836 50.1719 52.5439 49.7264 53.0332L45.1394 58.0704C44.6838 58.5708 44.0342 58.8579 43.3573 58.8579H36.6478C35.9709 58.8579 35.3214 58.5708 34.8658 58.0704L30.2786 53.0332C29.8197 52.5291 29.5958 51.8493 29.6645 51.1679L29.6717 51.0964L28.2103 49.5596L28.1116 49.5997C27.127 50.0002 26.0784 50.295 24.9948 50.4755C16.9753 51.8121 13.4473 54.6927 12.058 56.2908C11.9377 56.4293 11.7719 56.5055 11.5914 56.5055C11.3534 56.5055 11.0739 56.3636 10.9862 56.0468C10.6678 54.8958 10.2939 53.1599 10.1997 51.1311C8.39156 53.3714 6.83047 55.8194 5.55859 58.4341C7.6175 62.6672 10.4311 66.4657 13.8283 69.6504L14.0256 69.621L18.9036 61.1721C19.79 64.5797 21.5606 67.2703 22.5602 68.5963C22.7094 68.7941 22.9358 68.9075 23.1816 68.9075C23.5178 68.9075 23.8072 68.7035 23.9188 68.3877C24.5066 66.7243 26.2803 63.3868 31.5569 59.7254C32.3541 64.6835 35.2814 69.033 39.5881 71.6585C39.7133 71.7347 39.8566 71.7752 40.0023 71.7752C40.1483 71.7752 40.2916 71.7349 40.4166 71.6585C44.7233 69.0332 47.6506 64.6836 48.4477 59.7254C53.7244 63.3869 55.4983 66.7243 56.0861 68.3877C56.1975 68.7035 56.4867 68.9075 56.8231 68.9075C57.0689 68.9075 57.2953 68.7941 57.4447 68.5963C58.4441 67.2707 60.2147 64.5802 61.1011 61.1721L65.9791 69.621L66.1766 69.6504C69.5738 66.4657 72.3875 62.6672 74.4463 58.4341C72.9773 55.4141 71.1225 52.6166 68.9467 50.1047Z" fill="#314DC9"/>
</g>
<path id="Vector_3" d="M73.907 40.5636L72.0922 38.7487C71.9572 38.6137 71.7384 38.6137 71.6036 38.7487L69.7888 40.5636C69.6537 40.6986 69.6537 40.9173 69.7888 41.0521L71.6036 42.867C71.7386 43.002 71.9573 43.002 72.0922 42.867L73.907 41.0521C74.0419 40.9171 74.0419 40.6984 73.907 40.5636Z" fill="#00F2A6"/>
<path id="Vector_4" d="M16.3953 60.0675L14.5805 58.2526C14.4455 58.1176 14.2267 58.1176 14.0919 58.2526L12.277 60.0675C12.142 60.2025 12.142 60.4212 12.277 60.5561L14.0919 62.3709C14.2269 62.5059 14.4456 62.5059 14.5805 62.3709L16.3953 60.5561C16.5302 60.4212 16.5302 60.2025 16.3953 60.0675Z" fill="#00F2A6"/>
<g id="Group_3">
<path id="Vector_5" d="M61.0389 60.7584C60.2066 64.2727 58.4037 67.0588 57.3159 68.502C57.1966 68.6602 57.0156 68.751 56.8194 68.751C56.8194 68.751 56.8194 68.751 56.8192 68.751C56.55 68.751 56.3186 68.5879 56.2295 68.3354C55.6355 66.6541 53.8456 63.2832 48.533 59.5966L48.3289 59.4551L48.2895 59.7002C47.4997 64.6132 44.5991 68.923 40.3311 71.5248C40.2305 71.5862 40.1155 71.6187 39.9983 71.6187C39.8811 71.6187 39.7661 71.5862 39.6655 71.5248C35.3978 68.9232 32.497 64.6134 31.707 59.7002L31.6677 59.4551L31.4638 59.5966C26.1511 63.2832 24.3614 66.654 23.7673 68.3354C23.6781 68.5879 23.4466 68.751 23.1775 68.751C22.9812 68.751 22.8002 68.6602 22.6808 68.502C21.593 67.0587 19.7902 64.2727 18.9578 60.7584L13.8242 69.6501C20.67 76.0677 29.8744 79.9996 39.9984 79.9996C50.1225 79.9996 59.3269 76.0677 66.1727 69.6501L61.0389 60.7584Z" fill="#FFE177"/>
</g>
<g id="Group_4">
<path id="Vector_6" d="M21.8689 67.3472C20.84 65.7841 19.6056 63.4938 18.9578 60.7588L13.8242 69.6505C15.2695 71.0054 16.8209 72.248 18.463 73.3677L21.8689 67.3472Z" fill="#FFD15B"/>
</g>
<g id="Group_5">
<path id="Vector_7" d="M45.1381 58.0709C44.6825 58.5713 44.033 58.8584 43.3561 58.8584H36.6466C35.9697 58.8584 35.3202 58.5713 34.8645 58.0709L31.5292 54.4082C31.4034 55.2466 31.3359 56.1043 31.3359 56.9779C31.3359 63.1963 34.6395 68.6427 39.5872 71.6588C39.8422 71.8143 40.1606 71.8143 40.4156 71.6588C45.3633 68.6427 48.6669 63.1962 48.6669 56.9779C48.6669 56.1043 48.5994 55.2466 48.4736 54.4082L45.1381 58.0709Z" fill="#FEB137"/>
<path id="Vector_8" d="M36.6791 58.8574H36.6466C35.9697 58.8574 35.3202 58.5704 34.8645 58.0699L31.5292 54.4072C31.4034 55.2457 31.3359 56.1033 31.3359 56.9769C31.3359 63.1954 34.6395 68.6418 39.5872 71.6579C39.8422 71.8133 40.1606 71.8133 40.4156 71.6579C41.1939 71.1835 41.9314 70.6486 42.6219 70.0604C39.3714 67.2913 37.1664 63.3324 36.6791 58.8574Z" fill="#F6AB31"/>
<g id="Group_6">
<path id="Vector_9" d="M30.2762 53.0328C29.8173 52.5288 29.5934 51.8489 29.6621 51.1675L29.6693 51.0961L23.7426 44.8633C13.9785 55.0403 19.9635 65.1541 22.5579 68.5958C22.9324 69.0927 23.7093 68.9741 23.9165 68.3873C24.6327 66.3598 26.856 62.4511 33.7469 58.3094C34.0384 58.1342 34.3176 57.9528 34.5868 57.7666L30.2762 53.0328Z" fill="#FFC344"/>
<path id="Vector_10" d="M25.8483 47.0778L23.7426 44.8633C13.9785 55.0403 19.9635 65.1541 22.5579 68.5958C22.9324 69.0927 23.7093 68.9741 23.9165 68.3873C24.1218 67.8061 24.4521 67.0695 24.9796 66.218C22.5746 62.025 20.1444 54.7055 25.8483 47.0778Z" fill="#FEB137"/>
<path id="Vector_11" d="M56.2625 44.8672L50.3387 51.1517L50.3441 51.2206C50.3961 51.883 50.1703 52.5434 49.7248 53.0327L45.4141 57.7664C45.6833 57.9527 45.9625 58.1341 46.2539 58.3092C53.1448 62.4509 55.3681 66.3597 56.0844 68.3872C56.2917 68.9739 57.0684 69.0925 57.443 68.5956C60.0373 65.1542 66.0211 55.0428 56.2625 44.8672Z" fill="#FFC344"/>
</g>
<path id="Vector_12" d="M56.138 33.5039L56.355 33.8772C57.2528 35.4225 57.1669 37.3641 56.1361 38.8236L54.4278 41.242L56.6569 43.5855C56.8856 43.8259 56.8864 44.2034 56.6588 44.4448L51.4727 49.9469C52.2858 50.2405 53.1603 50.4723 54.1006 50.6291C62.0311 51.9508 65.5345 54.77 66.9453 56.3928C67.3536 56.8623 68.1197 56.6875 68.2856 56.0878C69.5 51.6978 71.5005 38.9858 56.138 33.5039Z" fill="#F6AB31"/>
<path id="Vector_13" d="M23.3482 44.4472C23.1178 44.2048 23.1184 43.8258 23.3496 43.5844L25.5807 41.2536L23.8564 38.812C22.8306 37.3597 22.7404 35.4253 23.6268 33.8838L24.0518 33.1445C7.52996 38.4078 9.59308 51.5992 10.8351 56.0886C11.001 56.6883 11.7671 56.8633 12.1754 56.3936C13.5862 54.7708 17.0895 51.9516 25.0201 50.6298C26.2279 50.4286 27.3259 50.1023 28.3257 49.6817L23.3482 44.4472Z" fill="#F6AB31"/>
<path id="Vector_14" d="M23.3017 37.7478C22.8429 36.4933 22.9434 35.072 23.6267 33.8838L24.0517 33.1445C7.52996 38.4078 9.59308 51.5992 10.8351 56.0886C11.0011 56.6883 11.7671 56.8633 12.1754 56.3936C12.5956 55.9103 13.2034 55.3205 14.0567 54.6961C13.6087 49.6425 14.7218 42.3056 23.3017 37.7478Z" fill="#ECA026"/>
<g id="Group_7">
<g id="Group_8">
<path id="Vector_15" d="M26.4017 13.1685C28.27 13.4799 29.97 14.1038 31.4942 15.0334C31.4931 14.9545 31.4905 14.876 31.4905 14.797C31.4905 12.2399 32.0495 9.78414 33.0867 7.56523C30.4695 5.93539 27.4556 5.03836 24.3828 4.96508C24.0842 4.95789 23.8086 5.11711 23.6655 5.3793C22.5378 7.44476 21.8455 9.72164 21.6289 12.0584C23.0094 12.4852 24.5898 12.8665 26.4017 13.1685Z" fill="#F6AB31"/>
</g>
<g id="Group_9">
<path id="Vector_16" d="M48.5064 14.5541C49.8039 13.8866 51.2173 13.423 52.7436 13.1687C54.9281 12.8046 56.7772 12.3255 58.3427 11.7893C58.0994 9.5471 57.4195 7.36522 56.3353 5.37929C56.1922 5.1171 55.9164 4.95804 55.618 4.96507C52.5452 5.03835 49.5312 5.93538 46.9141 7.56522C47.9183 9.71366 48.4722 12.0846 48.5064 14.5541Z" fill="#ECA026"/>
</g>
</g>
<path id="Vector_17" d="M33.007 22.1796H46.9216C46.9481 22.1796 46.9744 22.1818 47.0009 22.1822C48.0678 19.9449 48.6669 17.4414 48.6669 14.7975C48.6669 8.5791 45.3633 3.1327 40.4156 0.116602C40.1606 -0.0388672 39.8422 -0.0388672 39.5872 0.116602C34.6395 3.1327 31.3359 8.57926 31.3359 14.7975C31.3359 17.4405 31.9345 19.943 33.0008 22.1799C33.0028 22.1797 33.005 22.1796 33.007 22.1796Z" fill="#FFC344"/>
<path id="Vector_18" d="M33.007 22.1796H38.24C37.1741 19.943 36.5767 17.4402 36.5767 14.7975C36.5767 9.55738 38.923 4.86551 42.6219 1.7141C41.9314 1.12582 41.1941 0.590977 40.4156 0.116602C40.1606 -0.0388672 39.8422 -0.0388672 39.5872 0.116602C34.6395 3.1327 31.3359 8.57926 31.3359 14.7975C31.3359 17.4405 31.9345 19.943 33.0008 22.1799C33.0028 22.1797 33.005 22.1796 33.007 22.1796Z" fill="#FEB137"/>
<path id="Vector_19" d="M66.9036 7.55584C66.7377 6.95615 65.9716 6.78115 65.5633 7.25084C64.1525 8.87365 60.6492 11.6929 52.7186 13.0146C46.4664 14.0566 43.128 18.4168 41.3828 22.1791H46.9219C48.5486 22.1791 50.0669 23.0529 50.8841 24.4593L54.2814 30.3051C70.1595 24.9177 68.1305 11.9907 66.9036 7.55584Z" fill="#FFC344"/>
<path id="Vector_20" d="M45.4277 22.1791C47.3884 19.2169 50.4803 16.4285 55.3137 15.6229C62.237 14.469 65.7859 12.174 67.5144 10.5299C67.3509 9.34052 67.1155 8.32146 66.9036 7.55584C66.7377 6.95615 65.9716 6.78115 65.5633 7.25084C64.1525 8.87365 60.6492 11.6929 52.7186 13.0146C46.4664 14.0566 43.128 18.4168 41.3828 22.1791H45.4277Z" fill="#FEB137"/>
<path id="Vector_21" d="M73.7866 24.6849C71.8464 25.6121 67.5105 26.804 59.7091 24.8599C56.5508 24.0729 53.7497 24.3954 51.3516 25.2677L56.3555 33.8779C57.2533 35.4232 57.1673 37.3647 56.1366 38.8243L54.4283 41.2427L54.5431 41.3635C71.0061 42.5747 74.2586 30.029 74.8947 25.4982C74.9812 24.8821 74.348 24.4166 73.7866 24.6849Z" fill="#FFC344"/>
<path id="Vector_22" d="M73.7866 24.6849C71.8464 25.6121 67.5105 26.804 59.7091 24.8599C56.5508 24.0729 53.7497 24.3954 51.3516 25.2677L53.5183 28.996C55.7114 28.3536 58.2117 28.1886 60.9878 28.8805C67.6739 30.5466 71.8128 29.9093 74.0814 29.1093C74.523 27.694 74.7642 26.4272 74.8947 25.4983C74.9812 24.8821 74.348 24.4166 73.7866 24.6849Z" fill="#FEB137"/>
<path id="Vector_23" d="M25.4753 41.3623L25.5795 41.2534L23.8552 38.8119C22.8294 37.3595 22.7392 35.4251 23.6256 33.8836L28.5916 25.2469C26.2061 24.3901 23.4244 24.0792 20.2913 24.86C12.49 26.804 8.15393 25.6122 6.21377 24.685C5.65236 24.4167 5.01908 24.882 5.10564 25.4983C5.74205 30.0308 8.99658 42.5842 25.4753 41.3623Z" fill="#FFC344"/>
<path id="Vector_24" d="M25.4752 41.3624L25.5794 41.2535L23.855 38.8119C23.5389 38.3644 23.3125 37.8711 23.1753 37.3577C13.98 36.3392 10.203 30.2024 8.65439 25.5024C7.60393 25.2678 6.79893 24.9647 6.21377 24.685C5.65236 24.4167 5.01908 24.8821 5.10564 25.4983C5.74189 30.0308 8.99643 42.5842 25.4752 41.3624Z" fill="#FEB137"/>
<path id="Vector_25" d="M29.0315 24.4775C29.8466 23.0598 31.3688 22.179 33.0043 22.179H37.7621C36.0169 18.4165 32.6785 14.0565 26.4263 13.0145C18.4958 11.6928 14.9924 8.87358 13.5816 7.25077C13.1733 6.78124 12.4072 6.95608 12.2413 7.55577C10.9971 12.0536 8.92833 25.2862 25.5516 30.5295L29.0315 24.4775Z" fill="#FFC344"/>
<path id="Vector_26" d="M27.4641 27.2033C16.3286 22.8406 14.96 14.5001 15.4633 8.94858C14.6098 8.32405 14.0019 7.73421 13.5817 7.25077C13.1734 6.78124 12.4073 6.95608 12.2414 7.55577C10.997 12.0536 8.92828 25.2862 25.5516 30.5295L27.4641 27.2033Z" fill="#FEB137"/>
<g id="Group_10">
<g id="Group_11">
<path id="Vector_27" d="M26.501 28.8804L29.0322 24.4782C29.8474 23.0606 31.3696 22.1798 33.005 22.1798H33.756C33.6305 21.6789 33.456 21.1824 33.2296 20.6968C31.7661 17.5585 28.5718 15.7812 25.3133 15.9685C25.1071 15.9804 24.9141 16.0704 24.7725 16.2207C22.5346 18.5965 21.8427 22.1859 23.3061 25.3242C24.0218 26.859 25.1522 28.0673 26.501 28.8804Z" fill="#FFF0AD"/>
<path id="Vector_28" d="M27.6104 26.9512L29.0326 24.4778C29.5922 23.5042 30.4857 22.784 31.5199 22.4282C31.4385 22.1595 31.3393 21.894 31.2182 21.6343C30.3358 19.7421 28.5186 18.4526 26.4708 18.214C26.1872 18.181 25.9055 18.3121 25.7483 18.5506C24.6194 20.2629 24.4272 22.476 25.3177 24.3857C25.8211 25.4651 26.6294 26.3471 27.6104 26.9512Z" fill="#FFC344"/>
<path id="Vector_29" d="M27.6104 26.9512L28.5094 25.3874C28.2813 25.0767 28.0807 24.7425 27.9143 24.3857C27.0508 22.5339 27.208 20.3981 28.2477 18.7089C27.6894 18.4564 27.091 18.2862 26.4708 18.214C26.1872 18.181 25.9055 18.3121 25.7483 18.5506C24.6194 20.2629 24.4272 22.476 25.3177 24.3857C25.8211 25.4651 26.6294 26.3471 27.6104 26.9512Z" fill="#FEB137"/>
<path id="Vector_30" d="M46.9203 22.1798C48.547 22.1798 50.0653 23.0535 50.8825 24.4599L53.4614 28.8974C54.8225 28.0842 55.9634 26.8696 56.6842 25.3242C58.1477 22.1859 57.4558 18.5965 55.2178 16.2207C55.0763 16.0704 54.8833 15.9804 54.677 15.9685C51.4186 15.7812 48.2242 17.5584 46.7608 20.6968C46.5344 21.1824 46.3598 21.6789 46.2344 22.1798H46.9203Z" fill="#FFE177"/>
<path id="Vector_31" d="M50.883 24.4595L52.3438 26.9729C53.3411 26.3685 54.1636 25.4785 54.6731 24.3857C55.5636 22.476 55.3714 20.2629 54.2425 18.5506C54.0853 18.3123 53.8036 18.181 53.52 18.214C51.4723 18.4524 49.655 19.742 48.7728 21.6343C48.6484 21.9012 48.5473 22.1743 48.4648 22.4509C49.4673 22.8115 50.3338 23.5145 50.883 24.4595Z" fill="#FFC344"/>
<path id="Vector_32" d="M50.1331 23.4962C50.2088 23.2609 50.2978 23.0281 50.4042 22.7999C51.2248 21.0401 52.8545 19.8028 54.7259 19.4462C54.5905 19.1365 54.4308 18.836 54.2425 18.5506C54.0853 18.3123 53.8036 18.181 53.52 18.214C51.4723 18.4524 49.655 19.742 48.7728 21.6343C48.6484 21.9012 48.5473 22.1743 48.4648 22.4509C49.088 22.6749 49.6588 23.0309 50.1331 23.4962Z" fill="#FEB137"/>
</g>
<g id="Group_12">
<g id="Group_13">
<path id="Vector_33" d="M30.8483 48.7118L25.4886 41.123L23.2364 43.4759C22.9479 43.7773 22.9472 44.2521 23.2345 44.5545L29.5205 51.1651C29.5514 50.9657 29.62 50.7688 29.7308 50.5834L30.8483 48.7118Z" fill="#FFF0AD"/>
<path id="Vector_34" d="M56.7738 43.4782L54.5236 41.1123L49.1562 48.7118L50.2738 50.5832C50.3945 50.7854 50.4661 51.0014 50.492 51.2192L56.7762 44.5525C57.0606 44.2506 57.0597 43.779 56.7738 43.4782Z" fill="#FFE177"/>
</g>
<path id="Vector_35" d="M56.4917 33.7995L51.0182 24.3812C50.1699 22.9216 48.6092 22.0234 46.9209 22.0234H33.0065C31.3104 22.0234 29.7437 22.9298 28.8982 24.4002L23.4901 33.8058C22.5701 35.4058 22.6628 37.3944 23.7274 38.9019L30.7682 48.8708L35.0014 41.7822C35.0312 41.7323 35.0631 41.6831 35.0968 41.6352L35.7507 43.6477C36.0954 44.7084 37.0764 45.4211 38.1917 45.4211H41.801C42.9163 45.4211 43.8971 44.7084 44.2418 43.6477L44.8987 41.6261C44.9346 41.6769 44.9685 41.7291 45.0004 41.7823L49.2335 48.8709L56.2654 38.9145C57.3345 37.4005 57.4229 35.402 56.4917 33.7995Z" fill="#FFF0AD"/>
<path id="Vector_36" d="M33.1812 44.8303L28.994 38.9019C27.9293 37.3944 27.8367 35.4058 28.7567 33.8058L34.1648 24.4002C35.0103 22.9298 36.577 22.0234 38.2731 22.0234H33.0065C31.3104 22.0234 29.7437 22.9298 28.8982 24.4002L23.4901 33.8058C22.5701 35.4058 22.6628 37.3944 23.7274 38.9019L30.7682 48.8708L33.1812 44.8303Z" fill="#FFE177"/>
<path id="Vector_37" d="M50.1459 50.0951L45.1342 41.7026C45.0481 41.5585 44.949 41.4249 44.8392 41.3027L44.0928 43.5999C43.7692 44.596 42.8479 45.2654 41.8006 45.2654H38.1912C37.1439 45.2654 36.2226 44.5962 35.899 43.5999L35.1553 41.3107C35.0482 41.4309 34.9512 41.5616 34.867 41.7027L29.8553 50.0952C29.2753 51.0663 29.3995 52.3027 30.1612 53.139L34.7484 58.1763C35.2348 58.7104 35.9235 59.0148 36.6459 59.0148H43.3556C44.0779 59.0148 44.7668 58.7104 45.2531 58.1763L49.8403 53.139C50.6015 52.3026 50.7257 51.0663 50.1459 50.0951Z" fill="white"/>
<path id="Vector_38" d="M35.4339 53.1387C34.6723 52.3023 34.5481 51.066 35.1279 50.0949L38.0163 45.2582C37.0426 45.1884 36.2046 44.5401 35.899 43.5998L35.1553 41.3105C35.0482 41.4307 34.9512 41.5615 34.867 41.7026L29.8553 50.0951C29.2753 51.0662 29.3995 52.3026 30.1612 53.1388L34.7484 58.1762C35.2348 58.7102 35.9235 59.0146 36.6459 59.0146H41.9187C41.1964 59.0146 40.5074 58.7102 40.0212 58.1762L35.4339 53.1387Z" fill="#F9F3F1"/>
</g>
<path id="Vector_39" d="M38.4859 35.2245L35.5659 37.346C34.6664 37.9996 34.29 39.1579 34.6336 40.2154L35.7489 43.648C36.0925 44.7055 37.0778 45.4215 38.1897 45.4215H41.7991C42.9109 45.4215 43.8963 44.7055 44.2399 43.648L45.3552 40.2154C45.6988 39.1579 45.3224 37.9996 44.4228 37.346L41.5028 35.2245C40.6034 34.571 39.3855 34.571 38.4859 35.2245Z" fill="#EC806B"/>
<path id="Vector_40" d="M39.6777 43.6482L38.5624 40.2155C38.2188 39.158 38.5952 37.9997 39.4947 37.3461L41.9589 35.5558L41.503 35.2246C40.6034 34.571 39.3855 34.571 38.4859 35.2246L35.5659 37.3461C34.6664 37.9997 34.29 39.158 34.6336 40.2155L35.7489 43.6482C36.0925 44.7057 37.0778 45.4214 38.1897 45.4214H41.7991C41.8527 45.4214 41.9058 45.4183 41.9588 45.415C40.9134 45.3502 40.0047 44.6546 39.6777 43.6482Z" fill="#C5715A"/>
</g>
<g id="Group_14">
<path id="Vector_41" d="M51.4537 32.6256C51.5509 31.4782 51.1445 30.4254 50.4317 29.662C50.2337 29.4499 49.8982 29.4459 49.6931 29.651L44.9751 34.3692C44.7701 34.5742 44.7742 34.9098 44.9862 35.1076C45.7496 35.8202 46.8023 36.2268 47.9496 36.1296C49.7987 35.9729 51.297 34.4746 51.4537 32.6256Z" fill="#EC806B"/>
<path id="Vector_42" d="M28.7252 32.6256C28.628 31.4782 29.0344 30.4254 29.7472 29.662C29.9452 29.4499 30.2807 29.4459 30.4858 29.651L35.2038 34.3692C35.4088 34.5742 35.4047 34.9098 35.1927 35.1076C34.4292 35.8202 33.3766 36.2268 32.2292 36.1296C30.3802 35.9729 28.8819 34.4746 28.7252 32.6256Z" fill="#EC806B"/>
</g>
</g>
<g id="Group_15">
<path id="Vector_43" d="M9.93523 41.1557C8.40211 41.5684 7.82992 42.1404 7.41742 43.6735C7.33398 43.9838 6.89664 43.9838 6.81305 43.6735C6.40039 42.1404 5.82836 41.5682 4.29523 41.1557C3.98492 41.0723 3.98492 40.6349 4.29523 40.5513C5.82836 40.1387 6.40055 39.5666 6.81305 38.0335C6.89648 37.7232 7.33383 37.7232 7.41742 38.0335C7.83008 39.5666 8.40211 40.1388 9.93523 40.5513C10.2455 40.6349 10.2455 41.0723 9.93523 41.1557Z" fill="white"/>
<g id="Group_16">
<path id="Vector_44" d="M5.48258 40.0889C5.16523 40.2756 4.77805 40.4215 4.29523 40.5514C3.98492 40.6348 3.98492 41.0721 4.29523 41.1557C5.82836 41.5684 6.40055 42.1404 6.81305 43.6736C6.89664 43.9839 7.33383 43.9839 7.41742 43.6736C7.54742 43.1907 7.69336 42.8034 7.87992 42.4862C7.47789 41.0565 6.91211 40.4907 5.48258 40.0889Z" fill="#F9F3F1"/>
</g>
</g>
<g id="Group_17">
<path id="Vector_45" d="M69.3102 61.1557C67.7771 61.5684 67.2049 62.1404 66.7924 63.6735C66.709 63.9838 66.2716 63.9838 66.188 63.6735C65.7754 62.1404 65.2034 61.5682 63.6702 61.1557C63.3599 61.0723 63.3599 60.6349 63.6702 60.5513C65.2034 60.1387 65.7755 59.5666 66.188 58.0335C66.2715 57.7232 66.7088 57.7232 66.7924 58.0335C67.2051 59.5666 67.7771 60.1388 69.3102 60.5513C69.6205 60.6349 69.6205 61.0723 69.3102 61.1557Z" fill="white"/>
<g id="Group_18">
<path id="Vector_46" d="M64.8576 60.0889C64.5402 60.2756 64.153 60.4215 63.6702 60.5514C63.3599 60.6348 63.3599 61.0721 63.6702 61.1557C65.2034 61.5684 65.7755 62.1404 66.188 63.6736C66.2716 63.9839 66.7088 63.9839 66.7924 63.6736C66.9224 63.1907 67.0684 62.8034 67.2549 62.4862C66.8529 61.0565 66.2871 60.4907 64.8576 60.0889Z" fill="#F9F3F1"/>
</g>
</g>
</g>
</g>
</svg>
