<svg xmlns="http://www.w3.org/2000/svg" width="165" height="45" viewBox="0 0 165 45" fill="none">
    <path d="M76.9574 25.05C80.417 28.3601 83.8448 31.6421 87.314 34.9614C83.9371 38.3087 80.573 41.6404 77.1801 45C73.7301 41.6993 70.2959 38.4141 66.8203 35.0917C70.2036 31.7383 73.5741 28.3973 76.9542 25.05H76.9574Z" fill="#F6A80B"/>
    <path d="M64.4113 32.5663C60.9453 29.2502 57.5175 25.9681 54.0547 22.655C57.4348 19.3046 60.7989 15.9729 64.1854 12.6133C67.6386 15.9171 71.0728 19.2023 74.5452 22.5247C71.1715 25.8688 67.8073 29.2036 64.4145 32.5663H64.4113Z" fill="#F6A80B"/>
    <path d="M76.7713 0C80.2309 3.31312 83.6683 6.60141 87.128 9.91141C83.7415 13.2648 80.3774 16.6028 76.9973 19.95C73.5376 16.64 70.1035 13.3517 66.6406 10.0386C70.0175 6.69447 73.3753 3.36585 76.7713 0Z" fill="#F6A80B"/>
    <path d="M17.9141 28.264V16.8822C18.0477 16.8822 18.1719 16.8822 18.296 16.8822C21.6411 16.8822 24.9861 16.876 28.328 16.8884C28.8341 16.8884 29.3433 16.9411 29.843 17.0187C30.9697 17.1924 31.6444 17.878 31.8132 18.9482C31.9182 19.609 31.8991 20.3007 31.8291 20.9677C31.7623 21.5757 31.3866 22.0628 30.836 22.3947C30.8456 22.4195 30.8456 22.4505 30.8583 22.4567C32.3065 23.2013 32.5134 24.4731 32.3256 25.8629C32.1092 27.476 31.2243 28.1678 29.3815 28.2516C28.7227 28.2795 28.0607 28.2671 27.3986 28.2671C24.3846 28.2671 21.3705 28.2671 18.3565 28.2671H17.9172L17.9141 28.264ZM21.5201 25.5093H21.9052C23.2643 25.5093 24.6233 25.5093 25.9823 25.5093C26.6061 25.5093 27.2268 25.5186 27.8506 25.5031C28.5126 25.4876 28.8213 25.1401 28.7704 24.5011C28.729 23.9675 28.4299 23.7224 27.7774 23.7193C25.7563 23.7131 23.7385 23.7193 21.7174 23.7193C21.657 23.7193 21.5965 23.7255 21.5201 23.7317V25.5124V25.5093ZM21.5201 21.1538C21.6156 21.16 21.6633 21.1693 21.7143 21.1693C23.748 21.1693 25.7818 21.1693 27.8156 21.1693C27.9556 21.1693 28.0957 21.1507 28.2293 21.1228C28.5667 21.0484 28.7481 20.8343 28.7768 20.4962C28.8213 19.9285 28.5444 19.64 27.9079 19.6369C25.8486 19.6307 23.7894 19.6369 21.7302 19.6369C21.6602 19.6369 21.587 19.6586 21.5233 19.6679V21.1569L21.5201 21.1538Z" fill="#2F2F30"/>
    <path d="M111.664 28.2513C112.399 26.8088 113.103 25.4283 113.806 24.0448C114.974 21.7523 116.142 19.4629 117.301 17.1642C117.412 16.947 117.53 16.8664 117.784 16.8695C119.63 16.8819 121.473 16.8695 123.319 16.885C123.462 16.885 123.679 16.9749 123.733 17.0835C125.611 20.7441 127.473 24.4077 129.338 28.0745C129.36 28.1179 129.373 28.1613 129.411 28.2513C128.459 28.2513 127.536 28.2513 126.617 28.2513C126.158 28.2513 125.614 28.3909 125.267 28.1986C124.923 28.0062 124.726 27.4944 124.557 27.088C124.3 26.4644 123.883 26.3155 123.217 26.3311C121.247 26.3776 119.274 26.3528 117.301 26.3435C117.065 26.3435 116.935 26.4148 116.826 26.6133C116.562 27.0942 116.285 27.5657 115.993 28.0279C115.926 28.1303 115.773 28.2451 115.662 28.2451C114.353 28.2606 113.042 28.2544 111.667 28.2544L111.664 28.2513ZM122.699 23.3995C122.692 23.3313 122.699 23.2909 122.683 23.263C122.094 22.047 121.508 20.8278 120.904 19.6211C120.856 19.5249 120.668 19.4412 120.55 19.4474C120.42 19.4567 120.232 19.5404 120.178 19.6459C119.755 20.4587 119.357 21.2869 118.953 22.1121C118.746 22.5309 118.545 22.9528 118.329 23.3995H122.695H122.699Z" fill="#2F2F30"/>
    <path d="M164.998 28.2514C163.63 28.2514 162.296 28.2545 160.966 28.2421C160.873 28.2421 160.756 28.1305 160.698 28.0374C160.396 27.5504 160.122 27.0478 159.813 26.5639C159.743 26.4553 159.565 26.3529 159.438 26.3529C157.235 26.3405 155.036 26.3405 152.834 26.3529C152.697 26.3529 152.512 26.477 152.436 26.5949C152.13 27.0633 151.866 27.5597 151.57 28.0343C151.51 28.1305 151.37 28.239 151.268 28.239C149.947 28.2514 148.629 28.2483 147.273 28.2483C147.337 28.1056 147.382 27.994 147.436 27.8854C149.25 24.321 151.067 20.7566 152.878 17.1891C152.99 16.9689 153.107 16.8634 153.384 16.8665C155.23 16.882 157.073 16.8758 158.919 16.8696C159.129 16.8696 159.253 16.91 159.358 17.1147C161.201 20.7504 163.053 24.3799 164.903 28.0126C164.934 28.0746 164.957 28.1429 164.998 28.2483V28.2514ZM158.308 23.4028C158.289 23.3314 158.279 23.2694 158.254 23.2166C157.675 22.0223 157.099 20.8249 156.5 19.6399C156.449 19.5375 156.252 19.4444 156.125 19.4475C155.997 19.4506 155.816 19.553 155.759 19.6616C155.17 20.8249 154.6 21.9975 154.027 23.167C153.992 23.2384 153.979 23.319 153.954 23.4028H158.308Z" fill="#2F2F30"/>
    <path d="M110.031 21.2251H106.463C106.247 20.0277 106.129 19.885 104.862 19.7423C103.404 19.5779 101.94 19.5841 100.486 19.7919C99.7825 19.8912 99.5884 20.0618 99.4642 20.7474C99.2415 21.9635 99.2574 23.1857 99.4642 24.4049C99.5534 24.9229 99.8366 25.2176 100.378 25.2952C102.026 25.5278 103.675 25.5247 105.32 25.3138C106.113 25.2114 106.371 24.8764 106.428 24.0946C106.431 24.0357 106.438 23.9737 106.444 23.893H110.028C110.028 24.9694 110.009 26.0366 109.525 27.0386C109.337 27.4264 109.032 27.7242 108.602 27.8172C107.698 28.0065 106.791 28.2329 105.877 28.3012C103.529 28.4811 101.173 28.4935 98.8309 28.1802C98.3567 28.1181 97.8856 27.994 97.4241 27.8607C96.8512 27.6962 96.4215 27.3271 96.2783 26.7625C96.0714 25.9497 95.8646 25.1277 95.7945 24.2963C95.6577 22.677 95.6481 21.0514 95.9505 19.4445C96.2783 17.7011 96.7112 17.2389 98.5349 16.9845C101.574 16.5626 104.62 16.5688 107.66 17.0341C107.994 17.0869 108.322 17.2047 108.643 17.3133C109.063 17.4529 109.356 17.7414 109.541 18.1261C110.006 19.1064 110.037 20.1549 110.034 21.2251H110.031Z" fill="#2F2F30"/>
    <path d="M11.3401 28.2361V23.8434H3.58376V28.2423H0V16.9132H3.56785V20.8654H11.3306V16.9163H14.9207V28.2361H11.3401Z" fill="#2F2F30"/>
    <path d="M135.48 22.432L130.139 16.8636H130.664C132.014 16.8636 133.36 16.8698 134.71 16.8574C134.999 16.8574 135.2 16.9257 135.397 17.1459C136.326 18.182 137.275 19.1964 138.22 20.2202C138.303 20.3101 138.389 20.3939 138.5 20.5056C138.873 20.1054 139.229 19.7207 139.582 19.336C140.279 18.5791 140.97 17.8222 141.673 17.0715C141.759 16.9784 141.893 16.8729 142.008 16.8729C143.583 16.8605 145.159 16.8636 146.845 16.8636C145.031 18.7559 143.278 20.5831 141.508 22.432C143.278 24.3584 145.038 26.2725 146.858 28.2516H145.388C144.382 28.2516 143.379 28.2454 142.374 28.2579C142.125 28.2579 141.954 28.1958 141.785 28.0097C140.709 26.8216 139.617 25.6458 138.5 24.4298C138.389 24.5477 138.287 24.65 138.188 24.7555C137.195 25.8351 136.199 26.9115 135.216 27.9973C135.053 28.1772 134.888 28.261 134.633 28.2579C133.271 28.2454 131.912 28.2516 130.55 28.2516C130.442 28.2516 130.33 28.2516 130.133 28.2516C131.944 26.2787 133.704 24.3677 135.483 22.432H135.48Z" fill="#2F2F30"/>
    <path d="M44.2974 22.314C46.4903 24.2962 48.6514 26.2475 50.857 28.2453C50.6947 28.2546 50.5865 28.267 50.4815 28.267C48.9792 28.267 47.4801 28.2763 45.9779 28.2577C45.7997 28.2577 45.5832 28.1708 45.4559 28.0498C44.0778 26.7283 42.7188 25.3882 41.3406 24.0698C41.1974 23.9333 40.9555 23.8464 40.7518 23.834C40.2617 23.7999 39.7652 23.8216 39.24 23.8216V28.2422H35.6562V16.9131H39.2114V20.8808C39.8352 20.8808 40.4304 20.8901 41.0224 20.8715C41.1242 20.8684 41.2324 20.7474 41.3184 20.6636C42.5246 19.491 43.7309 18.3184 44.9244 17.1334C45.109 16.9503 45.2968 16.8821 45.5578 16.8821C47.0441 16.8945 48.5305 16.8883 50.1346 16.8883C48.1549 18.7248 46.2421 20.5023 44.2942 22.3109L44.2974 22.314Z" fill="#2F2F30"/>
</svg>