<svg width="99" height="90" viewBox="0 0 99 90" fill="none" xmlns="http://www.w3.org/2000/svg">
<g id="moon 1" clip-path="url(#clip0_1_9158)">
<g id="Group">
<g id="XMLID_32_">
<g id="Group_2">
<path id="Vector" d="M55 110C85.3757 110 110 85.3757 110 55C110 24.6243 85.3757 0 55 0C24.6243 0 0 24.6243 0 55C0 85.3757 24.6243 110 55 110Z" fill="#FEF0AE"/>
</g>
</g>
<path id="Vector_2" d="M32.9618 55C32.9618 30.3661 49.1603 9.51553 71.484 2.51284C66.2808 0.88064 60.7419 0 55 0C24.6242 0 0 24.6241 0 55C0 85.3759 24.6242 110 55 110C60.7419 110 66.2824 109.119 71.4858 107.486C49.1621 100.484 32.9618 79.6339 32.9618 55Z" fill="#FEE97D"/>
<g id="XMLID_222_">
<g id="Group_3">
<path id="Vector_3" d="M109.99 55.9192H109.992C109.863 63.8792 108.042 71.4282 104.874 78.2218L104.869 78.2196C100.624 76.5001 97.6289 72.3413 97.6289 67.4782C97.6289 61.08 102.816 55.8926 109.215 55.8926C109.474 55.8926 109.732 55.9037 109.99 55.9192Z" fill="#FEE97D"/>
<g id="Group_4">
<path id="Vector_4" d="M68.2756 76.8418C71.979 76.8418 74.9826 79.8454 74.9826 83.5488C74.9826 87.2544 71.979 90.2558 68.2756 90.2558C64.57 90.2558 61.5664 87.2544 61.5664 83.5488C61.5664 79.8454 64.57 76.8418 68.2756 76.8418Z" fill="#FEE97D"/>
<path id="Vector_5" d="M80.4345 70.6639C83.0541 70.6639 85.1776 68.5404 85.1776 65.9208C85.1776 63.3013 83.0541 61.1777 80.4345 61.1777C77.815 61.1777 75.6914 63.3013 75.6914 65.9208C75.6914 68.5404 77.815 70.6639 80.4345 70.6639Z" fill="#FEE97D"/>
<path id="Vector_6" d="M70.2201 53.2976C77.2689 53.2976 82.9831 47.5834 82.9831 40.5345C82.9831 33.4857 77.2689 27.7715 70.2201 27.7715C63.1712 27.7715 57.457 33.4857 57.457 40.5345C57.457 47.5834 63.1712 53.2976 70.2201 53.2976Z" fill="#FEE97D"/>
</g>
<path id="Vector_7" d="M32.9601 73.1653C37.0176 73.1653 40.3069 69.876 40.3069 65.8185C40.3069 61.761 37.0176 58.4717 32.9601 58.4717C28.9026 58.4717 25.6133 61.761 25.6133 65.8185C25.6133 69.876 28.9026 73.1653 32.9601 73.1653Z" fill="#FEE45A"/>
<path id="Vector_8" d="M32.9601 73.1653C33.9787 73.1653 34.9491 72.9576 35.8311 72.5826C34.3228 68.1096 33.3742 63.3792 33.0685 58.4743C33.0323 58.4739 32.9965 58.4717 32.9601 58.4717C28.9012 58.4717 25.6133 61.7619 25.6133 65.8185C25.6133 69.8751 28.9012 73.1653 32.9601 73.1653Z" fill="#FEDF30"/>
<path id="Vector_9" d="M19.3269 42.5586C21.804 42.5586 23.8123 44.5669 23.8123 47.0418C23.8123 49.5188 21.804 51.5272 19.3269 51.5272C16.8498 51.5272 14.8438 49.5188 14.8438 47.0418C14.8438 44.5669 16.8498 42.5586 19.3269 42.5586Z" fill="#FEDF30"/>
<path id="Vector_10" d="M38.5036 2.51882C39.0013 4.35608 39.2701 6.28887 39.2701 8.28386C39.2701 20.4204 29.4306 30.2599 17.2918 30.2599C13.6484 30.2599 10.2116 29.3712 7.18581 27.8028H7.18359C13.9928 15.8551 25.1518 6.70875 38.5036 2.5166V2.51882Z" fill="#FEDF30"/>
</g>
</g>
</g>
</g>
<defs>
<clippath id="clip0_1_9158">
<rect width="110" height="110" fill="white"/>
</clippath>
</defs>
</svg>
