<svg width="368" height="200" viewBox="0 0 368 200" fill="none" xmlns="http://www.w3.org/2000/svg">
<g clip-path="url(#clip0_109_13901)">
<rect x="0.6875" y="0.303711" width="462.193" height="198.806" rx="25.3256" fill="url(#paint0_linear_109_13901)"/>
<path d="M43.9935 62.9609L38.2851 45.9231H38.1686C38.1881 46.3114 38.2172 46.8648 38.256 47.5832C38.2949 48.2822 38.324 49.0491 38.3434 49.884C38.3822 50.6995 38.4016 51.4665 38.4016 52.1849V62.9609H35.0523V42.1661H40.2365L45.7119 58.5049H45.8284L51.5368 42.1661H56.7209V62.9609H53.1678V52.0101C53.1678 51.35 53.1775 50.6316 53.1969 49.8549C53.2357 49.0588 53.2648 48.3113 53.2843 47.6123C53.3231 46.8939 53.3522 46.3406 53.3716 45.9522H53.2551L47.3137 62.9609H43.9935ZM59.392 47.1755H63.382L66.5275 56.0876C66.6634 56.4759 66.7799 56.8545 66.877 57.2234C66.9935 57.5729 67.0905 57.9321 67.1682 58.301C67.2459 58.6699 67.3041 59.0388 67.343 59.4078H67.4595C67.5371 58.9223 67.6536 58.3884 67.809 57.8059C67.9837 57.2234 68.1584 56.6506 68.3332 56.0876L71.3621 47.1755H75.3231L68.5953 65.0579C68.207 66.087 67.7119 66.9704 67.11 67.7082C66.5275 68.446 65.8285 68.9994 65.013 69.3683C64.2169 69.7567 63.3141 69.9508 62.3044 69.9508C61.8384 69.9508 61.421 69.9217 61.0521 69.8634C60.7026 69.8246 60.3919 69.7761 60.1201 69.7178V66.8054C60.3337 66.8442 60.5861 66.883 60.8773 66.9219C61.188 66.9607 61.5084 66.9801 61.8384 66.9801C62.4403 66.9801 62.9549 66.8539 63.382 66.6015C63.8286 66.3685 64.1975 66.0384 64.4888 65.6113C64.7994 65.1841 65.0518 64.7084 65.246 64.1842L65.712 62.9027L59.392 47.1755ZM82.8335 46.8842C83.9985 46.8842 85.0567 47.0396 86.0081 47.3502C86.9595 47.6609 87.7168 48.1269 88.2798 48.7482C88.8429 49.3501 89.1244 50.117 89.1244 51.049C89.1244 52.0004 88.8429 52.7577 88.2798 53.3207C87.7362 53.8838 86.9886 54.2915 86.0372 54.544V54.6896C86.6974 54.8449 87.2896 55.0682 87.8138 55.3594C88.3575 55.6507 88.7847 56.039 89.0953 56.5244C89.4254 57.0098 89.5904 57.6506 89.5904 58.4466C89.5904 59.3204 89.3283 60.1262 88.8041 60.864C88.2798 61.5824 87.4741 62.1649 86.3867 62.6114C85.2994 63.0386 83.9014 63.2522 82.1928 63.2522C81.3773 63.2522 80.6104 63.2133 79.892 63.1357C79.1736 63.058 78.5134 62.9512 77.9115 62.8153C77.329 62.66 76.8145 62.4755 76.3679 62.2619V59.1456C77.0281 59.4563 77.8241 59.7378 78.7561 59.9902C79.7075 60.2427 80.7172 60.3689 81.7851 60.3689C82.5811 60.3689 83.2898 60.3009 83.9112 60.165C84.5519 60.0291 85.0567 59.8058 85.4256 59.4951C85.814 59.1845 86.0081 58.767 86.0081 58.2428C86.0081 57.7379 85.8431 57.3302 85.513 57.0195C85.1829 56.6895 84.6878 56.4468 84.0277 56.2914C83.3675 56.1361 82.5229 56.0584 81.4938 56.0584H79.659V53.4081H81.29C82.6879 53.4081 83.7849 53.2722 84.581 53.0004C85.3771 52.7091 85.7751 52.1946 85.7751 51.4568C85.7751 50.8743 85.5033 50.4374 84.9596 50.1462C84.416 49.8355 83.5714 49.6802 82.4258 49.6802C81.6297 49.6802 80.8337 49.7675 80.0376 49.9423C79.2415 50.0976 78.4455 50.3403 77.6494 50.6704L76.5135 48.0201C77.3873 47.6706 78.3387 47.3988 79.3677 47.2046C80.3968 46.991 81.5521 46.8842 82.8335 46.8842ZM93.1225 62.9609V47.1755H96.7921V53.4081H99.6172C101.151 53.4081 102.403 53.5829 103.374 53.9323C104.365 54.2624 105.093 54.7672 105.559 55.4468C106.044 56.1264 106.287 56.9807 106.287 58.0098C106.287 59.0194 106.063 59.8932 105.617 60.631C105.17 61.3688 104.462 61.9416 103.491 62.3493C102.52 62.7571 101.248 62.9609 99.6755 62.9609H93.1225ZM99.4425 60.3106C100.374 60.3106 101.141 60.1456 101.743 59.8155C102.345 59.466 102.646 58.8932 102.646 58.0971C102.646 57.3399 102.365 56.8157 101.802 56.5244C101.258 56.2332 100.462 56.0876 99.4133 56.0876H96.7921V60.3106H99.4425ZM108.704 62.9609V47.1755H112.374V62.9609H108.704ZM127.06 47.1755H131.108L124.671 54.7478L131.661 62.9609H127.467L120.769 54.9517V62.9609H117.099V47.1755H120.769V54.8352L127.06 47.1755ZM140.427 46.8842C142.465 46.8842 144.009 47.3308 145.057 48.2239C146.125 49.0977 146.659 50.4762 146.659 52.3596V62.9609H144.067L143.339 60.7766H143.222C142.776 61.3397 142.31 61.8154 141.825 62.2037C141.359 62.5726 140.815 62.8347 140.194 62.9901C139.592 63.1648 138.854 63.2522 137.98 63.2522C137.048 63.2522 136.203 63.0774 135.446 62.7279C134.708 62.3784 134.126 61.8445 133.699 61.1261C133.272 60.3883 133.058 59.466 133.058 58.3593C133.058 56.7283 133.65 55.5051 134.835 54.6896C136.038 53.8547 137.854 53.3984 140.281 53.3207L143.019 53.2334V52.447C143.019 51.4373 142.776 50.7189 142.291 50.2918C141.805 49.8646 141.126 49.651 140.252 49.651C139.456 49.651 138.689 49.7675 137.951 50.0005C137.213 50.2335 136.495 50.5054 135.796 50.816L134.631 48.2531C135.407 47.8453 136.291 47.5153 137.281 47.2628C138.291 47.0104 139.339 46.8842 140.427 46.8842ZM141.096 55.5633C139.485 55.6216 138.368 55.9031 137.747 56.4079C137.126 56.8933 136.815 57.5535 136.815 58.3884C136.815 59.1262 137.038 59.6602 137.485 59.9902C137.932 60.3203 138.504 60.4854 139.203 60.4854C140.271 60.4854 141.174 60.1844 141.912 59.5825C142.65 58.9612 143.019 58.0486 143.019 56.8448V55.5051L141.096 55.5633Z" fill="white"/>
<g clip-path="url(#clip1_109_13901)">
<path d="M287.441 75.5938C252.998 75.5938 224.977 103.615 224.977 138.058C224.977 152.923 230.316 175.094 238.579 194.542C239.604 196.955 242.391 198.079 244.803 197.054C247.215 196.029 248.34 193.243 247.315 190.83C239.511 172.463 234.469 151.749 234.469 138.058C234.469 133.288 235.107 128.665 236.294 124.265C242.662 104.556 263.149 90.1309 287.441 90.1309C311.732 90.1309 332.219 104.556 338.587 124.265C339.775 128.665 340.412 133.288 340.412 138.058C340.412 151.749 335.37 172.463 327.566 190.83C326.541 193.243 327.666 196.029 330.079 197.054C330.684 197.312 331.313 197.433 331.932 197.433C333.779 197.433 335.535 196.349 336.303 194.542C344.566 175.094 349.905 152.923 349.905 138.058C349.905 103.615 321.884 75.5938 287.441 75.5938Z" fill="#C8C0C8"/>
<path d="M316.883 82.9834C325.407 91.447 331.51 102.345 334.049 114.535C335.949 117.588 337.478 120.847 338.583 124.265C339.77 128.665 340.408 133.288 340.408 138.057C340.408 151.748 335.365 172.462 327.562 190.83C326.537 193.242 327.661 196.029 330.074 197.054C330.68 197.311 331.309 197.433 331.928 197.433C333.775 197.433 335.531 196.348 336.298 194.541C344.561 175.094 349.9 152.922 349.9 138.057C349.9 114.256 336.517 93.5238 316.883 82.9834Z" fill="#A698A6"/>
<path d="M301.627 204.271C296.691 202.558 294.078 197.169 295.791 192.234L308.386 155.93C310.098 150.995 315.487 148.382 320.423 150.095L327.936 152.701C329.361 153.196 330.596 154.125 331.466 155.358L336.852 162.996C337.986 164.604 338.276 166.661 337.631 168.52L326.549 200.463C325.904 202.322 324.403 203.757 322.516 204.317L313.557 206.977C312.111 207.407 310.566 207.372 309.14 206.877L301.627 204.271Z" fill="#E0DDE2"/>
<path d="M336.848 162.996L332.648 157.039C333.056 158.292 333.054 159.659 332.611 160.935L322.782 189.264C321.35 193.392 318.018 196.577 313.829 197.82L308.536 199.392C307.09 199.822 305.545 199.787 304.119 199.292L296.606 196.685C296.149 196.527 295.712 196.336 295.297 196.118C295.6 199.732 297.976 203.005 301.623 204.27L309.136 206.877C310.562 207.371 312.107 207.406 313.553 206.977L322.512 204.316C324.399 203.756 325.9 202.321 326.545 200.462L337.627 168.519C338.273 166.66 337.983 164.604 336.848 162.996Z" fill="#C8C0C8"/>
<path d="M273.256 204.27C278.192 202.557 280.805 197.168 279.092 192.233L266.497 155.929C264.785 150.994 259.396 148.381 254.46 150.094L246.947 152.7C245.522 153.195 244.287 154.124 243.417 155.357L238.031 162.995C236.897 164.603 236.607 166.66 237.252 168.519L248.334 200.462C248.979 202.321 250.48 203.756 252.367 204.316L261.326 206.976C262.773 207.406 264.317 207.371 265.743 206.876L273.256 204.27Z" fill="#E0DDE2"/>
<path d="M279.088 192.234L266.492 155.931C265.027 151.707 260.868 149.187 256.606 149.62L269.189 185.889C270.902 190.824 268.289 196.213 263.353 197.925L255.84 200.532C254.415 201.026 252.87 201.061 251.423 200.632L248.039 199.627L248.329 200.462C248.974 202.322 250.475 203.757 252.362 204.317L261.321 206.977C262.768 207.407 264.312 207.372 265.738 206.877L273.251 204.27C278.187 202.559 280.8 197.169 279.088 192.234Z" fill="#C8C0C8"/>
<path d="M273.254 204.27C278.19 202.557 280.803 197.168 279.09 192.233L266.495 155.929C264.783 150.994 259.394 148.381 254.458 150.094L246.945 152.7L265.741 206.876L273.254 204.27Z" fill="#554E57"/>
<path d="M301.627 204.271C296.691 202.558 294.078 197.169 295.791 192.234L308.386 155.93C310.098 150.995 315.487 148.382 320.423 150.095L327.936 152.701L309.14 206.877L301.627 204.271Z" fill="#554E57"/>
<path d="M308.536 199.391C307.09 199.82 305.545 199.785 304.119 199.291L296.606 196.684C296.149 196.526 295.712 196.335 295.297 196.117C295.6 199.731 297.976 203.004 301.623 204.269L309.136 206.876L312.1 198.333L308.536 199.391Z" fill="#453E43"/>
<path d="M279.091 192.234L266.495 155.931C265.03 151.707 260.872 149.187 256.609 149.62L269.192 185.889C270.905 190.824 268.292 196.213 263.356 197.925L262.713 198.149L265.742 206.877L273.255 204.271C278.19 202.559 280.803 197.169 279.091 192.234Z" fill="#453E43"/>
</g>
<path d="M47.2339 106H44.5716L36.6096 97.0766V106H34.3911V88.3997H36.6096V96.9287L44.3744 88.3997H46.8888L39.2472 96.9533L47.2339 106ZM59.3905 106H57.1966V94.5869H53.3019C53.1376 96.674 52.9321 98.457 52.6856 99.936C52.4391 101.399 52.1269 102.59 51.7489 103.51C51.371 104.431 50.919 105.104 50.3932 105.532C49.8673 105.959 49.251 106.173 48.5444 106.173C48.3308 106.173 48.1171 106.156 47.9035 106.123C47.7063 106.107 47.5419 106.066 47.4105 106V104.373C47.5091 104.406 47.6159 104.431 47.7309 104.447C47.846 104.463 47.961 104.472 48.076 104.472C48.4376 104.472 48.7662 104.324 49.062 104.028C49.3578 103.732 49.6208 103.28 49.8509 102.672C50.0974 102.064 50.3192 101.3 50.5164 100.38C50.7136 99.443 50.8862 98.342 51.0341 97.0766C51.182 95.8112 51.3134 94.3815 51.4285 92.7874H59.3905V106ZM68.5882 92.5656C70.1986 92.5656 71.3901 92.9189 72.1624 93.6256C72.9348 94.3322 73.321 95.4579 73.321 97.0026V106H71.7434L71.3243 104.127H71.2257C70.8478 104.603 70.4534 105.006 70.0425 105.334C69.6481 105.647 69.188 105.877 68.6621 106.025C68.1527 106.173 67.5282 106.247 66.7887 106.247C65.9999 106.247 65.285 106.107 64.6441 105.827C64.0196 105.548 63.5266 105.121 63.1651 104.546C62.8036 103.954 62.6228 103.215 62.6228 102.327C62.6228 101.012 63.1404 100.002 64.1758 99.2951C65.2111 98.572 66.8051 98.1776 68.9579 98.1119L71.2011 98.038V97.2491C71.2011 96.1481 70.9628 95.3839 70.4862 94.9567C70.0097 94.5294 69.3359 94.3158 68.4649 94.3158C67.7747 94.3158 67.1174 94.4226 66.4929 94.6362C65.8684 94.8334 65.285 95.0635 64.7427 95.3264L64.0772 93.6995C64.6523 93.3873 65.3343 93.1243 66.1231 92.9107C66.9119 92.6806 67.7336 92.5656 68.5882 92.5656ZM69.2291 99.6156C67.5857 99.6813 66.4436 99.9442 65.8027 100.404C65.1782 100.865 64.866 101.514 64.866 102.352C64.866 103.091 65.0878 103.634 65.5315 103.979C65.9917 104.324 66.575 104.496 67.2817 104.496C68.3992 104.496 69.3277 104.192 70.0672 103.584C70.8067 102.96 71.1764 102.007 71.1764 100.725V99.5416L69.2291 99.6156ZM82.7016 106.247C81.5348 106.247 80.4913 106.008 79.571 105.532C78.6672 105.055 77.9523 104.316 77.4264 103.313C76.917 102.311 76.6623 101.029 76.6623 99.4677C76.6623 97.8408 76.9334 96.5179 77.4757 95.499C78.018 94.4801 78.7493 93.7324 79.6696 93.2558C80.6063 92.7792 81.6663 92.5409 82.8495 92.5409C83.5233 92.5409 84.1724 92.6149 84.7969 92.7628C85.4214 92.8943 85.9308 93.0586 86.3252 93.2558L85.6596 95.0553C85.2652 94.9074 84.8051 94.7677 84.2792 94.6362C83.7533 94.5047 83.2603 94.439 82.8002 94.439C81.9128 94.439 81.1815 94.628 80.6063 95.006C80.0312 95.3839 79.6039 95.9427 79.3245 96.6822C79.0451 97.4217 78.9055 98.342 78.9055 99.443C78.9055 100.495 79.0451 101.39 79.3245 102.13C79.6039 102.869 80.0229 103.428 80.5817 103.806C81.1404 104.184 81.8388 104.373 82.677 104.373C83.4 104.373 84.0327 104.299 84.575 104.151C85.1338 104.003 85.6432 103.823 86.1033 103.609V105.532C85.6596 105.762 85.1666 105.934 84.6243 106.049C84.0985 106.181 83.4575 106.247 82.7016 106.247ZM94.5453 106.247C93.3785 106.247 92.335 106.008 91.4147 105.532C90.5109 105.055 89.796 104.316 89.2701 103.313C88.7607 102.311 88.506 101.029 88.506 99.4677C88.506 97.8408 88.7771 96.5179 89.3194 95.499C89.8617 94.4801 90.593 93.7324 91.5133 93.2558C92.45 92.7792 93.51 92.5409 94.6932 92.5409C95.367 92.5409 96.0161 92.6149 96.6406 92.7628C97.265 92.8943 97.7745 93.0586 98.1689 93.2558L97.5033 95.0553C97.1089 94.9074 96.6488 94.7677 96.1229 94.6362C95.597 94.5047 95.104 94.439 94.6439 94.439C93.7565 94.439 93.0252 94.628 92.45 95.006C91.8748 95.3839 91.4476 95.9427 91.1682 96.6822C90.8888 97.4217 90.7492 98.342 90.7492 99.443C90.7492 100.495 90.8888 101.39 91.1682 102.13C91.4476 102.869 91.8666 103.428 92.4254 103.806C92.9841 104.184 93.6825 104.373 94.5206 104.373C95.2437 104.373 95.8764 104.299 96.4187 104.151C96.9775 104.003 97.4869 103.823 97.947 103.609V105.532C97.5033 105.762 97.0103 105.934 96.468 106.049C95.9421 106.181 95.3012 106.247 94.5453 106.247ZM103.135 100.848C103.135 100.996 103.127 101.21 103.111 101.489C103.111 101.752 103.102 102.04 103.086 102.352C103.069 102.648 103.053 102.935 103.037 103.215C103.02 103.477 103.004 103.691 102.987 103.855L110.062 92.7874H112.724V106H110.703V98.2105C110.703 97.9476 110.703 97.6025 110.703 97.1752C110.719 96.7479 110.736 96.3289 110.752 95.918C110.769 95.4908 110.785 95.1703 110.801 94.9567L103.776 106H101.089V92.7874H103.135V100.848ZM124.743 92.7874H127.109L121.465 99.1472L127.578 106H125.064L119.098 99.2951V106H116.929V92.7874H119.098V99.1965L124.743 92.7874ZM134.98 92.5656C136.591 92.5656 137.782 92.9189 138.555 93.6256C139.327 94.3322 139.713 95.4579 139.713 97.0026V106H138.135L137.716 104.127H137.618C137.24 104.603 136.845 105.006 136.435 105.334C136.04 105.647 135.58 105.877 135.054 106.025C134.545 106.173 133.92 106.247 133.181 106.247C132.392 106.247 131.677 106.107 131.036 105.827C130.412 105.548 129.919 105.121 129.557 104.546C129.196 103.954 129.015 103.215 129.015 102.327C129.015 101.012 129.533 100.002 130.568 99.2951C131.603 98.572 133.197 98.1776 135.35 98.1119L137.593 98.038V97.2491C137.593 96.1481 137.355 95.3839 136.878 94.9567C136.402 94.5294 135.728 94.3158 134.857 94.3158C134.167 94.3158 133.509 94.4226 132.885 94.6362C132.26 94.8334 131.677 95.0635 131.135 95.3264L130.469 93.6995C131.044 93.3873 131.726 93.1243 132.515 92.9107C133.304 92.6806 134.126 92.5656 134.98 92.5656ZM135.621 99.6156C133.978 99.6813 132.836 99.9442 132.195 100.404C131.57 100.865 131.258 101.514 131.258 102.352C131.258 103.091 131.48 103.634 131.924 103.979C132.384 104.324 132.967 104.496 133.674 104.496C134.791 104.496 135.72 104.192 136.459 103.584C137.199 102.96 137.569 102.007 137.569 100.725V99.5416L135.621 99.6156ZM146.431 103.412C146.284 103.987 146.095 104.611 145.865 105.285C145.634 105.959 145.38 106.624 145.1 107.282C144.837 107.956 144.574 108.588 144.312 109.18H142.709C142.874 108.555 143.03 107.882 143.178 107.159C143.342 106.452 143.49 105.753 143.621 105.063C143.753 104.357 143.86 103.716 143.942 103.141H146.259L146.431 103.412ZM163.079 92.5409C164.706 92.5409 166.012 93.1079 166.998 94.2418C168.001 95.3757 168.502 97.0848 168.502 99.3691C168.502 100.865 168.272 102.13 167.812 103.165C167.368 104.184 166.735 104.956 165.914 105.482C165.108 105.992 164.155 106.247 163.054 106.247C162.38 106.247 161.781 106.156 161.255 105.975C160.729 105.795 160.277 105.565 159.899 105.285C159.537 104.989 159.225 104.669 158.962 104.324H158.814C158.847 104.603 158.88 104.956 158.913 105.384C158.946 105.811 158.962 106.181 158.962 106.493V111.916H156.793V92.7874H158.568L158.864 94.5869H158.962C159.225 94.2089 159.537 93.8638 159.899 93.5516C160.277 93.2394 160.721 92.9929 161.23 92.8121C161.756 92.6313 162.372 92.5409 163.079 92.5409ZM162.684 94.3651C161.797 94.3651 161.082 94.5376 160.54 94.8827C159.998 95.2114 159.603 95.7126 159.357 96.3864C159.11 97.0602 158.979 97.9147 158.962 98.95V99.3691C158.962 100.454 159.077 101.374 159.307 102.13C159.537 102.886 159.924 103.461 160.466 103.855C161.025 104.25 161.781 104.447 162.734 104.447C163.539 104.447 164.196 104.225 164.706 103.781C165.232 103.338 165.618 102.738 165.864 101.982C166.127 101.21 166.259 100.33 166.259 99.3444C166.259 97.8325 165.963 96.6247 165.371 95.7208C164.796 94.817 163.901 94.3651 162.684 94.3651ZM183.446 99.3691C183.446 100.47 183.298 101.448 183.002 102.302C182.723 103.141 182.312 103.855 181.77 104.447C181.244 105.039 180.595 105.491 179.822 105.803C179.066 106.099 178.22 106.247 177.283 106.247C176.412 106.247 175.607 106.099 174.867 105.803C174.128 105.491 173.487 105.039 172.945 104.447C172.402 103.855 171.975 103.141 171.663 102.302C171.367 101.448 171.219 100.47 171.219 99.3691C171.219 97.9065 171.466 96.674 171.959 95.6715C172.452 94.6526 173.158 93.8803 174.079 93.3544C174.999 92.8121 176.092 92.5409 177.357 92.5409C178.557 92.5409 179.609 92.8121 180.512 93.3544C181.433 93.8803 182.148 94.6526 182.657 95.6715C183.183 96.674 183.446 97.9065 183.446 99.3691ZM173.462 99.3691C173.462 100.404 173.594 101.308 173.857 102.081C174.136 102.837 174.563 103.42 175.139 103.831C175.714 104.242 176.445 104.447 177.333 104.447C178.22 104.447 178.951 104.242 179.526 103.831C180.102 103.42 180.521 102.837 180.784 102.081C181.063 101.308 181.203 100.404 181.203 99.3691C181.203 98.3173 181.063 97.4217 180.784 96.6822C180.504 95.9427 180.077 95.3757 179.502 94.9813C178.943 94.5705 178.212 94.3651 177.308 94.3651C175.96 94.3651 174.983 94.8088 174.374 95.6962C173.766 96.5836 173.462 97.8079 173.462 99.3691ZM194.698 92.7874H197.064L191.419 99.1472L197.533 106H195.018L189.053 99.2951V106H186.884V92.7874H189.053V99.1965L194.698 92.7874ZM202.569 103.412C202.421 103.987 202.232 104.611 202.002 105.285C201.772 105.959 201.517 106.624 201.238 107.282C200.975 107.956 200.712 108.588 200.449 109.18H198.846C199.011 108.555 199.167 107.882 199.315 107.159C199.479 106.452 199.627 105.753 199.759 105.063C199.89 104.357 199.997 103.716 200.079 103.141H202.396L202.569 103.412ZM43.9061 127.787V139.176H45.8288V145.585H43.7335V141H34.539V145.585H32.4684V139.176H33.5283C34.2843 138.124 34.9087 136.982 35.4017 135.749C35.9112 134.501 36.2892 133.202 36.5357 131.855C36.7986 130.491 36.9383 129.135 36.9547 127.787H43.9061ZM38.8774 129.488C38.8117 130.606 38.6391 131.764 38.3598 132.964C38.0804 134.147 37.7189 135.281 37.2752 136.366C36.8479 137.45 36.3467 138.387 35.7715 139.176H41.8108V129.488H38.8774ZM64.2686 127.787L58.8209 134.197L64.7369 141H62.2719L56.553 134.295V141H54.5317V134.295L48.8128 141H46.3478L52.2639 134.197L46.8162 127.787H49.1826L54.5317 134.197V127.787H56.553V134.197L61.9268 127.787H64.2686ZM71.9102 127.566C73.5207 127.566 74.7121 127.919 75.4845 128.626C76.2568 129.332 76.643 130.458 76.643 132.003V141H75.0654L74.6463 139.127H74.5477C74.1698 139.603 73.7754 140.006 73.3645 140.334C72.9701 140.647 72.51 140.877 71.9841 141.025C71.4747 141.173 70.8502 141.247 70.1107 141.247C69.3219 141.247 68.607 141.107 67.9661 140.827C67.3416 140.548 66.8486 140.121 66.4871 139.546C66.1256 138.954 65.9448 138.215 65.9448 137.327C65.9448 136.012 66.4625 135.002 67.4978 134.295C68.5331 133.572 70.1271 133.178 72.2799 133.112L74.5231 133.038V132.249C74.5231 131.148 74.2848 130.384 73.8082 129.957C73.3317 129.529 72.6579 129.316 71.7869 129.316C71.0967 129.316 70.4394 129.423 69.8149 129.636C69.1904 129.833 68.607 130.063 68.0647 130.326L67.3992 128.7C67.9743 128.387 68.6563 128.124 69.4451 127.911C70.2339 127.681 71.0556 127.566 71.9102 127.566ZM72.5511 134.616C70.9077 134.681 69.7656 134.944 69.1247 135.404C68.5002 135.865 68.188 136.514 68.188 137.352C68.188 138.091 68.4098 138.634 68.8535 138.979C69.3137 139.324 69.8971 139.496 70.6037 139.496C71.7212 139.496 72.6497 139.192 73.3892 138.584C74.1287 137.96 74.4984 137.007 74.4984 135.725V134.542L72.5511 134.616ZM84.1995 127.541C85.2019 127.541 86.0729 127.681 86.8124 127.96C87.5519 128.223 88.1271 128.617 88.5379 129.143C88.9488 129.653 89.1542 130.277 89.1542 131.017C89.1542 131.822 88.9323 132.463 88.4886 132.939C88.0449 133.399 87.4369 133.736 86.6645 133.95V134.049C87.1904 134.197 87.6752 134.402 88.1189 134.665C88.5626 134.928 88.9159 135.273 89.1788 135.7C89.4582 136.127 89.5979 136.678 89.5979 137.352C89.5979 138.075 89.3925 138.732 88.9816 139.324C88.5872 139.915 87.971 140.384 87.1329 140.729C86.3112 141.074 85.2512 141.247 83.953 141.247C83.3285 141.247 82.7287 141.214 82.1535 141.148C81.5948 141.082 81.0853 140.984 80.6252 140.852C80.1815 140.721 79.7871 140.565 79.442 140.384V138.436C80.0007 138.699 80.6581 138.938 81.414 139.151C82.1864 139.365 83.0245 139.472 83.9283 139.472C84.5857 139.472 85.1773 139.398 85.7032 139.25C86.2455 139.102 86.6727 138.872 86.985 138.56C87.2972 138.231 87.4533 137.787 87.4533 137.229C87.4533 136.719 87.3136 136.308 87.0343 135.996C86.7549 135.667 86.3358 135.421 85.7771 135.256C85.2348 135.092 84.5364 135.01 83.6818 135.01H81.907V133.235H83.3367C84.4706 133.235 85.3745 133.087 86.0483 132.791C86.7385 132.479 87.0836 131.953 87.0836 131.214C87.0836 130.589 86.8206 130.121 86.2948 129.809C85.7853 129.497 85.0458 129.34 84.0762 129.34C83.3532 129.34 82.7123 129.414 82.1535 129.562C81.6112 129.694 81.0114 129.899 80.354 130.179L79.5899 128.453C80.2965 128.141 81.036 127.911 81.8084 127.763C82.5808 127.615 83.3778 127.541 84.1995 127.541ZM101.257 135.848C101.257 135.996 101.249 136.21 101.233 136.489C101.233 136.752 101.225 137.04 101.208 137.352C101.192 137.648 101.175 137.935 101.159 138.215C101.142 138.477 101.126 138.691 101.11 138.855L108.184 127.787H110.846V141H108.825V133.211C108.825 132.948 108.825 132.602 108.825 132.175C108.842 131.748 108.858 131.329 108.874 130.918C108.891 130.491 108.907 130.17 108.924 129.957L101.898 141H99.2115V127.787H101.257V135.848ZM135.628 127.787V141H133.681V132.57C133.681 132.224 133.689 131.863 133.706 131.485C133.739 131.107 133.771 130.737 133.804 130.376H133.73L129.417 141H127.592L123.402 130.376H123.328C123.361 130.737 123.377 131.107 123.377 131.485C123.394 131.863 123.402 132.249 123.402 132.644V141H121.455V127.787H124.339L128.505 138.412L132.744 127.787H135.628ZM142.015 127.787V133.284H149.188V127.787H151.358V141H149.188V135.109H142.015V141H139.846V127.787H142.015ZM167.028 134.369C167.028 135.47 166.88 136.448 166.585 137.302C166.305 138.141 165.894 138.855 165.352 139.447C164.826 140.039 164.177 140.491 163.405 140.803C162.649 141.099 161.802 141.247 160.866 141.247C159.995 141.247 159.19 141.099 158.45 140.803C157.711 140.491 157.07 140.039 156.527 139.447C155.985 138.855 155.558 138.141 155.245 137.302C154.95 136.448 154.802 135.47 154.802 134.369C154.802 132.906 155.048 131.674 155.541 130.672C156.034 129.653 156.741 128.88 157.661 128.354C158.581 127.812 159.674 127.541 160.94 127.541C162.139 127.541 163.191 127.812 164.095 128.354C165.015 128.88 165.73 129.653 166.24 130.672C166.765 131.674 167.028 132.906 167.028 134.369ZM157.045 134.369C157.045 135.404 157.176 136.308 157.439 137.081C157.719 137.837 158.146 138.42 158.721 138.831C159.296 139.242 160.028 139.447 160.915 139.447C161.802 139.447 162.534 139.242 163.109 138.831C163.684 138.42 164.103 137.837 164.366 137.081C164.645 136.308 164.785 135.404 164.785 134.369C164.785 133.317 164.645 132.422 164.366 131.682C164.087 130.943 163.659 130.376 163.084 129.981C162.526 129.57 161.794 129.365 160.89 129.365C159.543 129.365 158.565 129.809 157.957 130.696C157.349 131.584 157.045 132.808 157.045 134.369ZM178.527 127.787V129.612H172.635V141H170.466V127.787H178.527ZM192.377 134.369C192.377 135.47 192.229 136.448 191.933 137.302C191.654 138.141 191.243 138.855 190.7 139.447C190.175 140.039 189.525 140.491 188.753 140.803C187.997 141.099 187.151 141.247 186.214 141.247C185.343 141.247 184.538 141.099 183.798 140.803C183.059 140.491 182.418 140.039 181.876 139.447C181.333 138.855 180.906 138.141 180.594 137.302C180.298 136.448 180.15 135.47 180.15 134.369C180.15 132.906 180.397 131.674 180.89 130.672C181.383 129.653 182.089 128.88 183.01 128.354C183.93 127.812 185.023 127.541 186.288 127.541C187.488 127.541 188.539 127.812 189.443 128.354C190.364 128.88 191.078 129.653 191.588 130.672C192.114 131.674 192.377 132.906 192.377 134.369ZM182.393 134.369C182.393 135.404 182.525 136.308 182.788 137.081C183.067 137.837 183.494 138.42 184.07 138.831C184.645 139.242 185.376 139.447 186.263 139.447C187.151 139.447 187.882 139.242 188.457 138.831C189.032 138.42 189.452 137.837 189.714 137.081C189.994 136.308 190.134 135.404 190.134 134.369C190.134 133.317 189.994 132.422 189.714 131.682C189.435 130.943 189.008 130.376 188.433 129.981C187.874 129.57 187.143 129.365 186.239 129.365C184.891 129.365 183.913 129.809 183.305 130.696C182.697 131.584 182.393 132.808 182.393 134.369ZM39.1979 162.541C40.3318 162.541 41.3014 162.787 42.1066 163.28C42.9283 163.773 43.5528 164.472 43.98 165.376C44.4237 166.263 44.6456 167.307 44.6456 168.506V169.813H35.5989C35.6318 171.308 36.0098 172.45 36.7329 173.239C37.4724 174.012 38.4995 174.398 39.8141 174.398C40.6523 174.398 41.3918 174.324 42.0327 174.176C42.69 174.012 43.3638 173.781 44.054 173.486V175.384C43.3802 175.68 42.7147 175.893 42.0573 176.025C41.4 176.173 40.6194 176.247 39.7155 176.247C38.4666 176.247 37.3573 175.992 36.3878 175.482C35.4346 174.973 34.6869 174.217 34.1446 173.215C33.6187 172.196 33.3558 170.955 33.3558 169.492C33.3558 168.046 33.5941 166.805 34.0706 165.77C34.5636 164.735 35.2456 163.938 36.1166 163.379C37.004 162.82 38.0311 162.541 39.1979 162.541ZM39.1732 164.316C38.1379 164.316 37.3162 164.653 36.7082 165.326C36.1166 165.984 35.7633 166.904 35.6482 168.087H42.3778C42.3778 167.331 42.2627 166.674 42.0327 166.115C41.8026 165.556 41.4493 165.121 40.9727 164.809C40.5126 164.48 39.9127 164.316 39.1732 164.316ZM65.9053 162.787V174.201H67.828V180.56H65.6588V176H48.0092V162.787H50.1784V174.176H55.8727V162.787H58.0419V174.176H63.7607V162.787H65.9053ZM75.4511 162.541C76.5851 162.541 77.5546 162.787 78.3599 163.28C79.1816 163.773 79.806 164.472 80.2333 165.376C80.677 166.263 80.8989 167.307 80.8989 168.506V169.813H71.8522C71.8851 171.308 72.263 172.45 72.9861 173.239C73.7256 174.012 74.7527 174.398 76.0674 174.398C76.9055 174.398 77.645 174.324 78.2859 174.176C78.9433 174.012 79.617 173.781 80.3072 173.486V175.384C79.6335 175.68 78.9679 175.893 78.3106 176.025C77.6532 176.173 76.8726 176.247 75.9688 176.247C74.7199 176.247 73.6106 175.992 72.641 175.482C71.6879 174.973 70.9401 174.217 70.3978 173.215C69.872 172.196 69.609 170.955 69.609 169.492C69.609 168.046 69.8473 166.805 70.3239 165.77C70.8169 164.735 71.4989 163.938 72.3699 163.379C73.2573 162.82 74.2844 162.541 75.4511 162.541ZM75.4265 164.316C74.3912 164.316 73.5695 164.653 72.9615 165.326C72.3699 165.984 72.0165 166.904 71.9015 168.087H78.631C78.631 167.331 78.516 166.674 78.2859 166.115C78.0559 165.556 77.7025 165.121 77.226 164.809C76.7658 164.48 76.166 164.316 75.4265 164.316Z" fill="white"/>
</g>
<defs>
<linearGradient id="paint0_linear_109_13901" x1="419.742" y1="-7.97989" x2="105.283" y2="279.091" gradientUnits="userSpaceOnUse">
<stop stop-color="#6A5BCC"/>
<stop offset="1" stop-color="#7860D9"/>
</linearGradient>
<clippath id="clip0_109_13901">
<rect x="0.6875" y="0.303711" width="367.222" height="198.806" rx="25.3256" fill="white"/>
</clippath>
<clippath id="clip1_109_13901">
<rect width="131.681" height="131.681" fill="white" transform="translate(221.594 75.5947)"/>
</clippath>
</defs>
</svg>
