<svg width="40" height="40" viewBox="0 0 40 40" fill="none" xmlns="http://www.w3.org/2000/svg">
<g id="odnoklassniki (1) 1" clip-path="url(#clip0_1_4705)">
<g id="Layer 2">
<g id="Color">
<g id="46.Odnoklassniki">
<path id="Background" d="M20 40C31.0457 40 40 31.0457 40 20C40 8.95431 31.0457 0 20 0C8.95431 0 0 8.95431 0 20C0 31.0457 8.95431 40 20 40Z" fill="#FF9800"/>
<g id="Icon">
<path id="Vector" d="M19.998 9.47363C18.9477 9.47363 17.921 9.78509 17.0477 10.3686C16.1743 10.9521 15.4937 11.7815 15.0917 12.7519C14.6898 13.7223 14.5846 14.7901 14.7895 15.8202C14.9945 16.8503 15.5002 17.7966 16.2429 18.5393C16.9856 19.282 17.9319 19.7877 18.962 19.9926C19.9921 20.1976 21.0599 20.0924 22.0303 19.6904C23.0007 19.2885 23.83 18.6078 24.4136 17.7345C24.9971 16.8612 25.3086 15.8345 25.3086 14.7842C25.3089 14.0867 25.1718 13.396 24.905 12.7515C24.6383 12.107 24.2471 11.5215 23.7539 11.0283C23.2607 10.5351 22.6751 10.1439 22.0307 9.87717C21.3862 9.61041 20.6955 9.47329 19.998 9.47363ZM19.998 17.4315C19.4744 17.4315 18.9626 17.2763 18.5272 16.9854C18.0919 16.6945 17.7526 16.281 17.5522 15.7973C17.3518 15.3135 17.2994 14.7812 17.4015 14.2677C17.5037 13.7541 17.7558 13.2824 18.1261 12.9122C18.4963 12.5419 18.968 12.2898 19.4816 12.1877C19.9951 12.0855 20.5274 12.1379 21.0111 12.3383C21.4949 12.5387 21.9083 12.878 22.1992 13.3134C22.4901 13.7487 22.6454 14.2606 22.6454 14.7842C22.6457 15.1319 22.5775 15.4763 22.4446 15.7977C22.3117 16.119 22.1167 16.411 21.8708 16.6569C21.6249 16.9028 21.3329 17.0978 21.0115 17.2307C20.6902 17.3636 20.3458 17.4319 19.998 17.4315Z" fill="white"/>
<path id="Vector_2" d="M27.8275 20.9078C27.7118 20.7013 27.5566 20.5197 27.3707 20.3733C27.1849 20.2268 26.9719 20.1185 26.7441 20.0545C26.5163 19.9904 26.2781 19.9719 26.0432 20C25.8082 20.0282 25.5811 20.1023 25.3748 20.2183C21.759 22.2446 18.2433 22.2446 14.6275 20.2183C14.4201 20.1025 14.192 20.0287 13.9561 20.0011C13.7203 19.9735 13.4813 19.9926 13.2528 20.0574C13.0243 20.1221 12.8108 20.2313 12.6245 20.3785C12.4382 20.5258 12.2827 20.7083 12.1669 20.9157C12.0512 21.123 11.9774 21.3511 11.9498 21.587C11.9222 21.8229 11.9413 22.0619 12.006 22.2904C12.1368 22.7518 12.4455 23.1424 12.8643 23.3762C14.0505 24.0494 15.3178 24.5685 16.6354 24.9209L14.0775 27.4788C13.7414 27.8149 13.5527 28.2707 13.5527 28.7459C13.5527 29.2212 13.7414 29.677 14.0775 30.013C14.4135 30.349 14.8693 30.5378 15.3446 30.5378C15.8198 30.5378 16.2756 30.349 16.6117 30.013L20.0011 26.6104L23.3906 29.9999C23.7267 30.3359 24.1825 30.5247 24.6577 30.5247C25.133 30.5247 25.5888 30.3359 25.9248 29.9999C26.2609 29.6638 26.4496 29.208 26.4496 28.7328C26.4496 28.2575 26.2609 27.8017 25.9248 27.4657L23.3669 24.9078C24.6845 24.5553 25.9518 24.0362 27.138 23.363C27.3448 23.2474 27.5267 23.0921 27.6734 22.906C27.82 22.7199 27.9285 22.5067 27.9925 22.2786C28.0566 22.0504 28.075 21.8119 28.0467 21.5767C28.0183 21.3415 27.9438 21.1141 27.8275 20.9078Z" fill="white"/>
</g>
</g>
</g>
</g>
</g>
<defs>
<clipPath id="clip0_1_4705">
<rect width="40" height="40" fill="white"/>
</clipPath>
</defs>
</svg>
