<svg width="141" height="127" viewBox="0 0 141 127" fill="none" xmlns="http://www.w3.org/2000/svg">
<g id="plane-ticket (1) 1" clip-path="url(#clip0_1_9119)">
<g id="Group">
<path id="Vector" d="M120.593 126.061C120.401 126.328 120.218 126.607 120.049 126.899C117.522 131.276 118.885 136.834 123.062 139.567C123.141 139.619 123.302 139.715 123.446 139.8C123.595 139.887 123.645 140.078 123.558 140.228L118.097 149.687C115.611 153.994 110.103 155.469 105.796 152.983L18.1571 102.385C13.85 99.8978 12.3742 94.3902 14.8609 90.083L19.8948 81.3642C20.2134 80.8123 20.8893 80.5861 21.4796 80.8252C21.9201 81.0036 22.3683 81.1466 22.8214 81.2546C26.7979 82.2045 31.0829 80.494 33.2301 76.7748C34.3998 74.7489 34.7362 72.4732 34.3455 70.3427C34.3448 70.3331 34.3433 70.3197 34.3381 70.3072C33.9276 68.0908 32.7293 66.0306 30.8654 64.5747C30.3625 64.1817 30.218 63.4833 30.5373 62.9303L34.8255 55.503C37.3122 51.1958 42.8198 49.72 47.127 52.2068L134.768 102.806C139.074 105.292 140.549 110.798 138.063 115.104L133.345 123.276C133.259 123.425 133.067 123.477 132.918 123.391C132.869 123.362 132.826 123.337 132.805 123.326C128.598 121.023 123.367 122.24 120.593 126.061Z" fill="#0067C5"/>
<path id="Vector_2" d="M138.063 115.104L133.346 123.275C133.26 123.424 133.07 123.476 132.919 123.391C132.77 123.307 132.598 123.212 132.51 123.167C128.356 121.078 123.303 122.33 120.593 126.061L26.7606 102.768C21.9317 101.569 18.9934 96.6848 20.1906 91.8582L22.8214 81.2546C26.7979 82.2045 31.0829 80.494 33.2301 76.7748C34.3998 74.7489 34.7362 72.4732 34.3455 70.3427C34.3448 70.3331 34.3433 70.3197 34.3381 70.3072C33.9276 68.0908 32.7293 66.0306 30.8654 64.5747C30.3625 64.1817 30.218 63.4833 30.5373 62.9303L34.8255 55.503C37.3122 51.1958 42.8198 49.72 47.127 52.2068L134.768 102.806C139.074 105.292 140.549 110.798 138.063 115.104Z" fill="#0055A3"/>
<path id="Vector_3" d="M131.309 121.537L102.104 114.287L98.3501 113.355L33.0916 97.1532C28.2645 95.9557 25.3252 91.0708 26.5227 86.2437L28.9037 76.6529C29.0795 75.9448 29.743 75.4641 30.4697 75.5288C35.0414 75.935 39.3537 72.9655 40.4929 68.3724C41.6332 63.784 39.2161 59.145 34.9903 57.3633C34.3193 57.0804 33.9389 56.3679 34.1141 55.6612L36.143 47.4896C37.3427 42.6638 42.2267 39.7209 47.0525 40.9206L112.311 57.1221L116.065 58.0542L145.27 65.3043C150.097 66.5018 153.037 71.3844 151.84 76.2115L149.683 84.8996C149.578 85.3247 149.157 85.593 148.727 85.5081C148.468 85.4568 148.201 85.4088 148.03 85.3898C143.379 84.8711 138.948 87.8638 137.791 92.5286C136.59 97.368 139.343 102.263 144 103.806C144.042 103.82 144.098 103.837 144.161 103.856C144.585 103.979 144.838 104.415 144.732 104.843L142.218 114.968C141.019 119.794 136.136 122.734 131.309 121.537Z" fill="#D3E1F5"/>
<path id="Vector_4" d="M151.904 75.9303C152.922 71.1965 150.005 66.4781 145.272 65.303L47.0549 40.9192C42.4095 39.7659 37.713 42.4475 36.2984 46.9537L151.904 75.9303Z" fill="#B3CEEC"/>
<path id="Vector_5" d="M114.189 57.5873L100.228 113.821L33.092 97.1533C28.2656 95.9551 25.3243 91.0712 26.5226 86.2448L28.9036 76.6543C29.0794 75.9462 29.743 75.4655 30.4697 75.5303C35.0417 75.9364 39.3538 72.9667 40.4944 68.3732C41.6339 63.7832 39.2162 59.1456 34.9913 57.3629C34.3204 57.0798 33.94 56.3673 34.1155 55.6607L36.1441 47.4896C37.3424 42.6632 42.2263 39.7219 47.0527 40.9201L114.189 57.5873Z" fill="#B3CEEC"/>
<path id="Vector_6" d="M114.191 57.5872L47.0551 40.92C44.1218 40.1962 40.7011 41.0061 38.474 43.337C37.4984 44.3251 36.7401 45.55 36.2994 46.952C36.2993 46.9528 36.2987 46.9537 36.2986 46.9545L112.113 65.9573L114.191 57.5872Z" fill="#98BCE5"/>
<g id="Group_2">
<path id="Vector_7" d="M70.6554 78.77L62.088 91.8239C61.7845 92.2862 62.0288 92.9101 62.5657 93.0432L66.9409 94.1295C67.2168 94.198 67.5083 94.1154 67.7072 93.9126L80.0056 81.377L70.6554 78.77Z" fill="#EAF6FF"/>
<path id="Vector_8" d="M71.8545 73.927L70.3873 58.3819C70.3352 57.8312 70.8429 57.3942 71.3798 57.5274L75.755 58.6136C76.0309 58.6822 76.2498 58.8913 76.3309 59.1638L81.3384 75.9957L71.8545 73.927Z" fill="#EAF6FF"/>
<path id="Vector_9" d="M53.6271 69.1161C53.6271 69.1161 83.8934 74.9162 87.3912 75.7847C90.8891 76.6531 92.5108 81.6259 92.5108 81.6259C92.5108 81.6259 88.7515 85.263 85.2537 84.3945C81.7559 83.526 52.291 74.4972 52.291 74.4972L49.1992 73.8926C48.824 73.8192 48.5528 73.4914 48.5505 73.1092L48.5125 66.0016C48.5088 65.2875 49.3693 64.9244 49.8784 65.4254L53.6271 69.1161Z" fill="#EAF6FF"/>
</g>
<path id="Vector_10" d="M137.008 79.5337L120.079 75.3309C119.33 75.1449 118.873 74.3869 119.059 73.638L120.27 68.7598C120.456 68.0108 121.214 67.5543 121.963 67.7403L138.892 71.943C139.641 72.129 140.098 72.887 139.912 73.636L138.701 78.5141C138.514 79.2633 137.757 79.7196 137.008 79.5337Z" fill="#60B7FF"/>
<path id="Vector_11" d="M94.371 98.2954L91.0806 111.549L80.3182 108.877L83.6086 95.6236C83.8205 94.7705 84.6839 94.2504 85.537 94.4622L93.2099 96.3672C94.063 96.579 94.5828 97.4423 94.371 98.2954Z" fill="#FEE903"/>
<path id="Vector_12" d="M105.334 143.432L89.3238 134.189C88.6398 133.794 88.4055 132.919 88.8004 132.235L91.1132 128.23C91.5081 127.546 92.3824 127.311 93.0664 127.706L109.076 136.95C109.76 137.344 109.995 138.219 109.6 138.903L107.287 142.909C106.892 143.593 106.018 143.827 105.334 143.432Z" fill="#FFEFD2"/>
<g id="Group_3">
<g id="Group_4">
<g id="Group_5">
<path id="Vector_13" d="M102.105 114.286L98.3507 113.354L99.0038 110.728C99.26 109.691 100.31 109.059 101.345 109.317C102.38 109.572 103.014 110.623 102.756 111.659L102.105 114.286Z" fill="#D3E1F5"/>
</g>
<g id="Group_6">
<path id="Vector_14" d="M104.994 102.649L106.232 97.6693C106.488 96.6326 105.856 95.583 104.822 95.3281C103.786 95.0696 102.737 95.7018 102.478 96.7372L101.243 101.718C101.028 102.574 101.422 103.438 102.15 103.858C102.304 103.947 102.473 104.015 102.653 104.059C103.689 104.318 104.738 103.685 104.994 102.649ZM108.469 88.6593L109.705 83.6786C109.961 82.6419 109.33 81.5958 108.295 81.3373C107.258 81.0811 106.21 81.7111 105.953 82.7478L104.716 87.7272C104.504 88.5841 104.897 89.4485 105.623 89.8674C105.777 89.9563 105.946 90.0242 106.126 90.0685C107.161 90.327 108.211 89.6947 108.469 88.6593ZM111.942 74.6686L113.177 69.6901C113.435 68.6547 112.801 67.6038 111.767 67.3466C110.731 67.0903 109.681 67.7226 109.425 68.7593L108.188 73.7365C107.976 74.5934 108.37 75.4578 109.098 75.8779C109.25 75.9656 109.418 76.0357 109.598 76.08C110.634 76.3362 111.684 75.704 111.942 74.6686Z" fill="#D3E1F5"/>
</g>
<g id="Group_7">
<path id="Vector_15" d="M113.072 62.0906C112.893 62.0463 112.725 61.9762 112.571 61.8872C111.843 61.4671 111.449 60.6027 111.662 59.7493L112.313 57.1218L116.067 58.0539L115.414 60.6801C115.157 61.7168 114.109 62.3468 113.072 62.0906Z" fill="#D3E1F5"/>
</g>
</g>
</g>
<g id="Group_8">
<path id="Vector_16" d="M121.499 105.305C120.771 104.885 120.378 104.021 120.59 103.165C120.847 102.129 121.896 101.498 122.932 101.755L133.426 104.36C134.46 104.616 135.093 105.665 134.836 106.702C134.579 107.738 133.53 108.37 132.494 108.112L122 105.507C121.82 105.463 121.652 105.394 121.499 105.305Z" fill="#98BCE5"/>
</g>
<g id="Group_9">
<path id="Vector_17" d="M119.831 112.032C119.103 111.612 118.71 110.748 118.922 109.892C119.179 108.855 120.228 108.224 121.264 108.481L131.758 111.086C132.792 111.343 133.425 112.392 133.168 113.428C132.911 114.465 131.862 115.096 130.826 114.839L120.332 112.234C120.152 112.189 119.984 112.12 119.831 112.032Z" fill="#98BCE5"/>
</g>
<g id="Group_10">
<path id="Vector_18" d="M36.2797 88.4339C35.5524 88.014 35.1588 87.1498 35.3712 86.294C35.6285 85.2576 36.677 84.6262 37.7134 84.8835L52.5117 88.5574C53.5462 88.8139 54.1797 89.863 53.922 90.8995C53.6648 91.9359 52.6162 92.5673 51.5798 92.31L36.7815 88.6361C36.6012 88.5912 36.4331 88.5225 36.2797 88.4339Z" fill="#596C76"/>
</g>
<g id="Group_11">
<path id="Vector_19" d="M80.9856 126.839L63.1863 116.562C62.2614 116.028 61.9448 114.846 62.4787 113.921C63.0125 112.997 64.1947 112.68 65.1196 113.214L82.9189 123.49C83.8438 124.024 84.1604 125.206 83.6265 126.131C83.0927 127.056 81.9105 127.373 80.9856 126.839Z" fill="#60B7FF"/>
</g>
</g>
</g>
<defs>
<clippath id="clip0_1_9119">
<rect width="126.309" height="126.309" fill="white" transform="translate(63.1562) rotate(30)"/>
</clippath>
</defs>
</svg>
