<svg width="365" height="206" viewBox="0 0 365 206" fill="none" xmlns="http://www.w3.org/2000/svg">
<g clip-path="url(#clip0_109_13864)">
<rect y="0.137695" width="462.193" height="205.419" rx="25.3256" fill="url(#paint0_linear_109_13864)"/>
<g clip-path="url(#clip1_109_13864)">
<path d="M242.704 151.088L248.381 162.592C248.587 163.009 248.985 163.298 249.445 163.364L262.14 165.209C263.299 165.378 263.761 166.801 262.923 167.618L253.737 176.573C253.404 176.897 253.252 177.365 253.33 177.823L255.499 190.467C255.697 191.621 254.486 192.501 253.45 191.956L242.095 185.986C241.683 185.77 241.192 185.77 240.78 185.986L229.425 191.956C228.389 192.501 227.178 191.621 227.376 190.467L229.544 177.823C229.623 177.365 229.471 176.898 229.138 176.573L219.951 167.618C219.113 166.801 219.576 165.378 220.734 165.209L233.43 163.364C233.89 163.298 234.287 163.009 234.493 162.592L240.171 151.088C240.689 150.038 242.186 150.038 242.704 151.088ZM306.728 177.971L305.614 180.007C305.571 180.086 305.506 180.151 305.427 180.194L303.391 181.308C303.064 181.486 303.064 181.955 303.391 182.134L305.427 183.247C305.506 183.291 305.571 183.355 305.614 183.434L306.728 185.471C306.906 185.797 307.375 185.797 307.554 185.471L308.667 183.434C308.711 183.355 308.775 183.29 308.855 183.247L310.891 182.134C311.217 181.955 311.217 181.486 310.891 181.308L308.855 180.194C308.775 180.151 308.711 180.086 308.667 180.007L307.554 177.971C307.375 177.644 306.906 177.644 306.728 177.971Z" fill="#F6A80B"/>
<path d="M232.231 132.841L234.177 136.399C234.22 136.478 234.285 136.543 234.364 136.586L237.922 138.532C238.248 138.711 238.248 139.18 237.922 139.358L234.364 141.304C234.285 141.347 234.22 141.412 234.177 141.491L232.231 145.049C232.052 145.376 231.583 145.376 231.405 145.049L229.459 141.491C229.415 141.412 229.351 141.347 229.272 141.304L225.714 139.358C225.387 139.179 225.387 138.71 225.714 138.532L229.272 136.586C229.351 136.543 229.415 136.478 229.459 136.399L231.405 132.841C231.583 132.514 232.052 132.514 232.231 132.841ZM300.007 130.852L292.907 125.655C292.577 125.413 292.117 125.679 292.161 126.085L293.112 134.832C293.134 135.036 293.022 135.231 292.834 135.314L284.784 138.863C284.409 139.028 284.409 139.56 284.784 139.725L292.834 143.274C293.022 143.357 293.134 143.552 293.112 143.756L292.161 152.502C292.117 152.909 292.577 153.175 292.907 152.933L300.007 147.736C300.172 147.615 300.397 147.615 300.563 147.736L307.662 152.933C307.992 153.175 308.452 152.909 308.408 152.502L307.457 143.756C307.435 143.552 307.548 143.357 307.735 143.274L315.785 139.725C316.16 139.56 316.16 139.028 315.785 138.863L307.735 135.314C307.547 135.231 307.435 135.036 307.457 134.832L308.408 126.085C308.452 125.679 307.992 125.413 307.662 125.655L300.563 130.852C300.397 130.973 300.172 130.973 300.007 130.852Z" fill="#FFE7C0"/>
<path d="M279.943 204.895V219.006C277.053 219.432 274.097 219.653 271.089 219.653C268.081 219.653 265.124 219.432 262.234 219.007V204.895C262.234 201.649 263.981 198.812 266.585 197.27H275.593C278.197 198.812 279.943 201.649 279.943 204.895ZM297.825 110.587C296.532 103.939 290.726 99.1309 283.954 99.1309H258.224C251.452 99.1309 245.646 103.939 244.353 110.587C242.531 119.952 241.547 129.947 241.547 140.325C241.547 150.703 242.531 160.698 244.353 170.063C245.646 176.71 251.452 181.519 258.224 181.519H267.558V194.348H274.62V181.519H283.954C290.726 181.519 296.532 176.71 297.825 170.063C299.646 160.698 300.631 150.703 300.631 140.325C300.631 129.947 299.646 119.952 297.825 110.587Z" fill="#5F55AF"/>
<path d="M283.958 181.519H269.88C263.108 181.519 257.302 176.71 256.009 170.063C254.188 160.698 253.203 150.703 253.203 140.325C253.203 129.947 254.188 119.952 256.009 110.587C257.302 103.939 263.108 99.1309 269.88 99.1309H283.958C290.73 99.1309 296.536 103.939 297.829 110.587C299.651 119.952 300.635 129.947 300.635 140.325C300.635 150.703 299.651 160.698 297.829 170.063C296.536 176.71 290.73 181.519 283.958 181.519ZM280.932 202.189C280.932 207.623 276.527 212.028 271.093 212.028C265.659 212.028 261.255 207.623 261.255 202.189C261.255 196.756 265.659 192.351 271.093 192.351C276.527 192.351 280.932 196.756 280.932 202.189Z" fill="#8078BF"/>
<path d="M290.862 132.086C290.862 139.981 290.113 147.584 288.727 154.709C288.722 154.737 288.716 154.764 288.711 154.792C287.769 159.442 281.062 159.442 280.12 154.792C280.114 154.764 280.109 154.736 280.103 154.709C278.718 147.584 277.969 139.981 277.969 132.086C277.969 124.191 278.718 116.588 280.103 109.464C280.109 109.436 280.114 109.408 280.12 109.38C281.062 104.73 287.768 104.73 288.711 109.38C288.716 109.408 288.722 109.436 288.727 109.464C290.113 116.588 290.862 124.191 290.862 132.086Z" fill="#958FCA"/>
<path d="M276.018 202.189C276.018 204.906 273.816 207.108 271.099 207.108C268.382 207.108 266.18 204.906 266.18 202.189C266.18 199.472 268.382 197.27 271.099 197.27C273.816 197.27 276.018 199.472 276.018 202.189Z" fill="#51489A"/>
<path d="M266.386 115.608C266.386 116.908 265.332 117.962 264.032 117.962H249.909C248.609 117.962 247.555 116.908 247.555 115.608C247.555 114.308 248.609 113.254 249.909 113.254H264.032C265.332 113.254 266.386 114.308 266.386 115.608ZM278.156 117.962H292.28C293.58 117.962 294.633 116.908 294.633 115.608C294.633 114.308 293.58 113.254 292.28 113.254H278.156C276.856 113.254 275.802 114.308 275.802 115.608C275.802 116.908 276.856 117.962 278.156 117.962ZM264.032 122.67H249.909C248.609 122.67 247.555 123.724 247.555 125.024C247.555 126.324 248.609 127.378 249.909 127.378H264.032C265.332 127.378 266.386 126.324 266.386 125.024C266.386 123.724 265.332 122.67 264.032 122.67ZM292.28 122.67H278.156C276.856 122.67 275.802 123.724 275.802 125.024C275.802 126.324 276.856 127.378 278.156 127.378H292.28C293.58 127.378 294.633 126.324 294.633 125.024C294.633 123.724 293.58 122.67 292.28 122.67ZM264.032 132.085H249.909C248.609 132.085 247.555 133.139 247.555 134.439C247.555 135.739 248.609 136.793 249.909 136.793H264.032C265.332 136.793 266.386 135.739 266.386 134.439C266.386 133.139 265.332 132.085 264.032 132.085ZM292.28 132.085H278.156C276.856 132.085 275.802 133.139 275.802 134.439C275.802 135.739 276.856 136.793 278.156 136.793H292.28C293.58 136.793 294.633 135.739 294.633 134.439C294.633 133.139 293.58 132.085 292.28 132.085ZM264.032 141.501H249.909C248.609 141.501 247.555 142.555 247.555 143.855C247.555 145.155 248.609 146.209 249.909 146.209H264.032C265.332 146.209 266.386 145.155 266.386 143.855C266.386 142.555 265.332 141.501 264.032 141.501ZM292.28 141.501H278.156C276.856 141.501 275.802 142.555 275.802 143.855C275.802 145.155 276.856 146.209 278.156 146.209H292.28C293.58 146.209 294.633 145.155 294.633 143.855C294.633 142.555 293.58 141.501 292.28 141.501ZM264.032 150.917H249.909C248.609 150.917 247.555 151.971 247.555 153.271C247.555 154.571 248.609 155.625 249.909 155.625H264.032C265.332 155.625 266.386 154.571 266.386 153.271C266.386 151.971 265.332 150.917 264.032 150.917ZM292.28 150.917H278.156C276.856 150.917 275.802 151.971 275.802 153.271C275.802 154.571 276.856 155.625 278.156 155.625H292.28C293.58 155.625 294.633 154.571 294.633 153.271C294.633 151.971 293.58 150.917 292.28 150.917ZM264.032 160.333H249.909C248.609 160.333 247.555 161.387 247.555 162.687C247.555 163.987 248.609 165.041 249.909 165.041H264.032C265.332 165.041 266.386 163.987 266.386 162.687C266.386 161.387 265.332 160.333 264.032 160.333ZM292.28 160.333H278.156C276.856 160.333 275.802 161.387 275.802 162.687C275.802 163.987 276.856 165.041 278.156 165.041H292.28C293.58 165.041 294.633 163.987 294.633 162.687C294.633 161.387 293.58 160.333 292.28 160.333Z" fill="#453D83"/>
</g>
<path d="M46.6626 107.252H44.4441V99.0434H35.4221V107.252H33.2036V89.6516H35.4221V97.096H44.4441V89.6516H46.6626V107.252ZM56.1828 93.8175C57.7933 93.8175 58.9848 94.1709 59.7571 94.8775C60.5295 95.5841 60.9157 96.7098 60.9157 98.2546V107.252H59.3381L58.919 105.379H58.8204C58.4425 105.855 58.0481 106.258 57.6372 106.586C57.2428 106.899 56.7827 107.129 56.2568 107.277C55.7474 107.425 55.1229 107.498 54.3834 107.498C53.5946 107.498 52.8797 107.359 52.2388 107.079C51.6143 106.8 51.1213 106.373 50.7598 105.798C50.3982 105.206 50.2175 104.466 50.2175 103.579C50.2175 102.264 50.7351 101.254 51.7704 100.547C52.8058 99.824 54.3998 99.4296 56.5526 99.3639L58.7958 99.2899V98.5011C58.7958 97.4001 58.5575 96.6359 58.0809 96.2086C57.6043 95.7814 56.9306 95.5677 56.0596 95.5677C55.3694 95.5677 54.712 95.6745 54.0876 95.8882C53.4631 96.0854 52.8797 96.3154 52.3374 96.5784L51.6718 94.9515C52.247 94.6392 52.929 94.3763 53.7178 94.1626C54.5066 93.9326 55.3283 93.8175 56.1828 93.8175ZM56.8238 100.868C55.1804 100.933 54.0383 101.196 53.3974 101.656C52.7729 102.116 52.4607 102.766 52.4607 103.604C52.4607 104.343 52.6825 104.886 53.1262 105.231C53.5864 105.576 54.1697 105.748 54.8764 105.748C55.9939 105.748 56.9224 105.444 57.6619 104.836C58.4014 104.212 58.7711 103.259 58.7711 101.977V100.794L56.8238 100.868ZM81.4571 107.252H79.2632V95.8389H75.3685C75.2041 97.9259 74.9987 99.709 74.7522 101.188C74.5057 102.651 74.1935 103.842 73.8155 104.762C73.4375 105.683 72.9856 106.356 72.4597 106.784C71.9339 107.211 71.3176 107.425 70.611 107.425C70.3973 107.425 70.1837 107.408 69.9701 107.375C69.7729 107.359 69.6085 107.318 69.4771 107.252V105.625C69.5757 105.658 69.6825 105.683 69.7975 105.699C69.9125 105.715 70.0276 105.724 70.1426 105.724C70.5042 105.724 70.8328 105.576 71.1286 105.28C71.4244 104.984 71.6874 104.532 71.9174 103.924C72.1639 103.316 72.3858 102.552 72.583 101.632C72.7802 100.695 72.9527 99.5939 73.1006 98.3285C73.2486 97.0632 73.38 95.6334 73.4951 94.0394H81.4571V107.252ZM102.807 100.621C102.807 102.084 102.569 103.333 102.092 104.368C101.616 105.387 100.942 106.167 100.071 106.71C99.2002 107.236 98.1649 107.498 96.9652 107.498C95.8477 107.498 94.8699 107.268 94.0318 106.808C93.1937 106.332 92.5282 105.641 92.0352 104.738C91.5421 103.817 91.2546 102.692 91.1724 101.361H87.82V107.252H85.6507V94.0394H87.82V99.5364H91.197C91.3121 98.2875 91.6161 97.2439 92.1091 96.4058C92.6185 95.5513 93.2841 94.9022 94.1058 94.4585C94.9439 94.0147 95.9135 93.7929 97.0145 93.7929C98.1484 93.7929 99.1509 94.064 100.022 94.6064C100.893 95.1322 101.575 95.9046 102.068 96.9235C102.561 97.9259 102.807 99.1584 102.807 100.621ZM93.3909 100.621C93.3909 101.722 93.5142 102.651 93.7607 103.407C94.0236 104.162 94.418 104.738 94.9439 105.132C95.4698 105.51 96.1518 105.699 96.9899 105.699C97.828 105.699 98.51 105.51 99.0358 105.132C99.5617 104.738 99.9479 104.162 100.194 103.407C100.441 102.651 100.564 101.722 100.564 100.621C100.564 99.52 100.441 98.5997 100.194 97.8602C99.9479 97.1207 99.5617 96.5619 99.0358 96.184C98.51 95.806 97.828 95.617 96.9899 95.617C96.1518 95.617 95.4698 95.806 94.9439 96.184C94.418 96.5619 94.0236 97.1207 93.7607 97.8602C93.5142 98.5997 93.3909 99.52 93.3909 100.621ZM105.567 99.3146C105.567 97.3918 105.756 95.7567 106.134 94.4092C106.528 93.0452 107.128 91.9606 107.933 91.1553C108.755 90.3336 109.806 89.7831 111.088 89.5037C112.156 89.2737 113.2 89.0683 114.219 88.8875C115.238 88.7067 116.191 88.5424 117.078 88.3945L117.448 90.2926C117.021 90.3583 116.544 90.4405 116.018 90.5391C115.492 90.6212 114.958 90.7116 114.416 90.8102C113.874 90.8924 113.348 90.9828 112.838 91.0814C112.345 91.1635 111.91 91.2457 111.532 91.3279C110.99 91.4429 110.505 91.6401 110.078 91.9195C109.65 92.1824 109.281 92.5439 108.968 93.0041C108.673 93.4642 108.434 94.0312 108.254 94.705C108.073 95.3787 107.966 96.1758 107.933 97.096H108.081C108.311 96.7838 108.623 96.4633 109.018 96.1347C109.429 95.806 109.913 95.5266 110.472 95.2966C111.047 95.0665 111.696 94.9515 112.419 94.9515C113.57 94.9515 114.523 95.2062 115.279 95.7156C116.051 96.2086 116.626 96.8988 117.004 97.7862C117.399 98.6737 117.596 99.709 117.596 100.892C117.596 102.355 117.341 103.579 116.832 104.565C116.322 105.551 115.616 106.291 114.712 106.784C113.808 107.26 112.756 107.498 111.557 107.498C110.653 107.498 109.831 107.326 109.092 106.981C108.352 106.619 107.719 106.093 107.194 105.403C106.668 104.713 106.265 103.858 105.986 102.84C105.706 101.821 105.567 100.646 105.567 99.3146ZM111.729 105.699C112.452 105.699 113.077 105.551 113.603 105.255C114.145 104.959 114.564 104.475 114.86 103.801C115.156 103.127 115.303 102.232 115.303 101.114C115.303 99.7665 115.049 98.7065 114.539 97.9341C114.046 97.1453 113.225 96.7509 112.074 96.7509C111.351 96.7509 110.694 96.9153 110.102 97.2439C109.511 97.5562 109.018 97.9177 108.623 98.3285C108.229 98.7394 107.949 99.0845 107.785 99.3639C107.785 100.169 107.843 100.95 107.958 101.706C108.073 102.462 108.27 103.144 108.549 103.752C108.845 104.343 109.248 104.82 109.757 105.181C110.283 105.526 110.94 105.699 111.729 105.699ZM132.5 100.621C132.5 101.722 132.352 102.7 132.057 103.554C131.777 104.393 131.366 105.107 130.824 105.699C130.298 106.291 129.649 106.743 128.877 107.055C128.121 107.351 127.274 107.498 126.338 107.498C125.467 107.498 124.662 107.351 123.922 107.055C123.183 106.743 122.542 106.291 121.999 105.699C121.457 105.107 121.03 104.393 120.718 103.554C120.422 102.7 120.274 101.722 120.274 100.621C120.274 99.1584 120.52 97.9259 121.013 96.9235C121.506 95.9046 122.213 95.1322 123.133 94.6064C124.054 94.064 125.146 93.7929 126.412 93.7929C127.611 93.7929 128.663 94.064 129.567 94.6064C130.487 95.1322 131.202 95.9046 131.712 96.9235C132.237 97.9259 132.5 99.1584 132.5 100.621ZM122.517 100.621C122.517 101.656 122.648 102.56 122.911 103.333C123.191 104.088 123.618 104.672 124.193 105.083C124.768 105.494 125.5 105.699 126.387 105.699C127.274 105.699 128.006 105.494 128.581 105.083C129.156 104.672 129.575 104.088 129.838 103.333C130.117 102.56 130.257 101.656 130.257 100.621C130.257 99.5693 130.117 98.6737 129.838 97.9341C129.559 97.1946 129.131 96.6277 128.556 96.2333C127.998 95.8224 127.266 95.617 126.362 95.617C125.015 95.617 124.037 96.0607 123.429 96.9481C122.821 97.8355 122.517 99.0598 122.517 100.621ZM146.637 88.567C146.571 89.3887 146.365 90.0789 146.02 90.6377C145.692 91.1964 145.199 91.6155 144.541 91.8948C143.884 92.1742 143.029 92.3139 141.978 92.3139C140.909 92.3139 140.047 92.1742 139.389 91.8948C138.748 91.6155 138.28 91.2046 137.984 90.6623C137.688 90.1036 137.508 89.4051 137.442 88.567H139.463C139.545 89.4544 139.776 90.0543 140.153 90.3665C140.548 90.6623 141.172 90.8102 142.027 90.8102C142.783 90.8102 143.374 90.6541 143.802 90.3419C144.245 90.0132 144.508 89.4216 144.591 88.567H146.637ZM137.984 102.1C137.984 102.248 137.976 102.462 137.96 102.741C137.96 103.004 137.951 103.291 137.935 103.604C137.919 103.9 137.902 104.187 137.886 104.466C137.869 104.729 137.853 104.943 137.836 105.107L144.911 94.0394H147.573V107.252H145.552V99.4625C145.552 99.1995 145.552 98.8544 145.552 98.4271C145.568 97.9999 145.585 97.5808 145.601 97.17C145.618 96.7427 145.634 96.4223 145.65 96.2086L138.625 107.252H135.938V94.0394H137.984V102.1ZM168.806 97.3672C168.806 98.1889 168.559 98.8298 168.066 99.2899C167.573 99.75 166.94 100.062 166.168 100.227V100.325C166.99 100.44 167.705 100.736 168.313 101.213C168.921 101.673 169.225 102.396 169.225 103.382C169.225 103.941 169.118 104.458 168.904 104.935C168.707 105.411 168.395 105.822 167.967 106.167C167.54 106.512 166.99 106.784 166.316 106.981C165.642 107.162 164.829 107.252 163.876 107.252H158.181V94.0394H163.851C164.788 94.0394 165.626 94.1462 166.365 94.3599C167.121 94.5571 167.713 94.9022 168.14 95.3952C168.584 95.8717 168.806 96.5291 168.806 97.3672ZM166.981 103.382C166.981 102.626 166.694 102.084 166.119 101.755C165.544 101.426 164.697 101.262 163.58 101.262H160.351V105.502H163.629C164.714 105.502 165.544 105.346 166.119 105.033C166.694 104.705 166.981 104.154 166.981 103.382ZM166.612 97.6383C166.612 97.0139 166.382 96.5619 165.922 96.2826C165.478 95.9868 164.747 95.8389 163.728 95.8389H160.351V99.4625H163.333C164.401 99.4625 165.215 99.3146 165.774 99.0188C166.332 98.723 166.612 98.2628 166.612 97.6383ZM180.198 94.0394H182.565L176.92 100.399L183.033 107.252H180.519L174.553 100.547V107.252H172.384V94.0394H174.553V100.448L180.198 94.0394ZM183.361 94.0394H185.678L188.537 101.558C188.702 102.001 188.85 102.429 188.981 102.84C189.129 103.25 189.26 103.653 189.375 104.047C189.491 104.425 189.581 104.795 189.647 105.157H189.745C189.844 104.746 190 104.212 190.214 103.554C190.427 102.881 190.649 102.207 190.879 101.533L193.566 94.0394H195.908L190.214 109.076C189.901 109.898 189.532 110.613 189.104 111.221C188.693 111.845 188.184 112.322 187.576 112.65C186.984 112.995 186.261 113.168 185.407 113.168C185.012 113.168 184.667 113.143 184.371 113.094C184.076 113.061 183.821 113.02 183.607 112.971V111.245C183.788 111.278 184.002 111.311 184.248 111.344C184.511 111.377 184.782 111.393 185.062 111.393C185.571 111.393 186.007 111.295 186.368 111.097C186.746 110.917 187.067 110.645 187.33 110.284C187.592 109.939 187.814 109.528 187.995 109.051L188.685 107.301L183.361 94.0394ZM203.297 107.498C202.13 107.498 201.087 107.26 200.167 106.784C199.263 106.307 198.548 105.568 198.022 104.565C197.513 103.563 197.258 102.281 197.258 100.72C197.258 99.0927 197.529 97.7698 198.071 96.7509C198.614 95.7321 199.345 94.9843 200.265 94.5078C201.202 94.0312 202.262 93.7929 203.445 93.7929C204.119 93.7929 204.768 93.8668 205.392 94.0147C206.017 94.1462 206.526 94.3106 206.921 94.5078L206.255 96.3072C205.861 96.1593 205.401 96.0196 204.875 95.8882C204.349 95.7567 203.856 95.691 203.396 95.691C202.508 95.691 201.777 95.88 201.202 96.2579C200.627 96.6359 200.199 97.1946 199.92 97.9341C199.641 98.6737 199.501 99.5939 199.501 100.695C199.501 101.747 199.641 102.642 199.92 103.382C200.199 104.121 200.618 104.68 201.177 105.058C201.736 105.436 202.434 105.625 203.272 105.625C203.996 105.625 204.628 105.551 205.171 105.403C205.729 105.255 206.239 105.075 206.699 104.861V106.784C206.255 107.014 205.762 107.186 205.22 107.301C204.694 107.433 204.053 107.498 203.297 107.498Z" fill="white"/>
<path d="M33.5211 61.9512V41.1563H49.656V61.9512H45.9281V44.3017H37.249V61.9512H33.5211ZM68.8268 54.0293C68.8268 55.3496 68.652 56.5146 68.3025 57.5242C67.953 58.5339 67.4482 59.3979 66.7881 60.1163C66.1473 60.8153 65.3513 61.3493 64.3999 61.7182C63.4679 62.0677 62.4291 62.2424 61.2835 62.2424C60.1962 62.2424 59.1963 62.0677 58.2837 61.7182C57.3711 61.3493 56.5751 60.8153 55.8955 60.1163C55.2354 59.3979 54.7208 58.5339 54.3519 57.5242C53.983 56.5146 53.7985 55.3496 53.7985 54.0293C53.7985 52.2818 54.0995 50.8062 54.7014 49.6024C55.3033 48.3792 56.1673 47.4569 57.2935 46.8356C58.439 46.1948 59.7885 45.8745 61.3418 45.8745C62.8174 45.8745 64.1086 46.1948 65.2153 46.8356C66.3415 47.4569 67.2249 48.3792 67.8657 49.6024C68.5064 50.8062 68.8268 52.2818 68.8268 54.0293ZM57.5556 54.0293C57.5556 55.136 57.6818 56.0874 57.9342 56.8835C58.2061 57.6602 58.6138 58.2524 59.1575 58.6601C59.7205 59.0678 60.4389 59.2717 61.3127 59.2717C62.2058 59.2717 62.9242 59.0678 63.4679 58.6601C64.0309 58.2524 64.4387 57.6602 64.6911 56.8835C64.9435 56.0874 65.0697 55.136 65.0697 54.0293C65.0697 52.9032 64.9338 51.9615 64.662 51.2042C64.4096 50.4276 64.0018 49.8451 63.4387 49.4568C62.8951 49.049 62.1864 48.8452 61.3127 48.8452C59.9924 48.8452 59.0312 49.2917 58.4293 50.1849C57.8468 51.078 57.5556 52.3595 57.5556 54.0293ZM85.9012 46.1657V59.1552H88.2021V67.5431H84.8236V61.9512H74.0767V67.5431H70.7274V59.1552H72.038C72.8146 58.0291 73.4651 56.767 73.9893 55.369C74.5136 53.9516 74.9213 52.4566 75.2125 50.8839C75.5038 49.3111 75.698 47.7384 75.795 46.1657H85.9012ZM78.9114 48.9617C78.7949 50.1849 78.6007 51.4081 78.3289 52.6313C78.057 53.8351 77.7173 54.9904 77.3095 56.0972C76.9018 57.2039 76.4164 58.2232 75.8533 59.1552H82.2607V48.9617H78.9114ZM101.011 46.1657H105.06L98.6232 53.7381L105.613 61.9512H101.419L94.7205 53.9419V61.9512H91.0508V46.1657H94.7205V53.8254L101.011 46.1657ZM114.378 45.8745C116.417 45.8745 117.961 46.321 119.009 47.2142C120.077 48.0879 120.611 49.4665 120.611 51.3499V61.9512H118.019L117.291 59.7668H117.174C116.728 60.3299 116.262 60.8056 115.776 61.1939C115.31 61.5628 114.767 61.825 114.145 61.9803C113.543 62.155 112.806 62.2424 111.932 62.2424C111 62.2424 110.155 62.0677 109.398 61.7182C108.66 61.3687 108.078 60.8347 107.651 60.1163C107.223 59.3785 107.01 58.4562 107.01 57.3495C107.01 55.7185 107.602 54.4953 108.786 53.6798C109.99 52.8449 111.806 52.3886 114.233 52.311L116.97 52.2236V51.4372C116.97 50.4276 116.728 49.7092 116.242 49.282C115.757 48.8549 115.077 48.6413 114.204 48.6413C113.408 48.6413 112.641 48.7578 111.903 48.9908C111.165 49.2238 110.447 49.4956 109.748 49.8063L108.583 47.2433C109.359 46.8356 110.243 46.5055 111.233 46.2531C112.243 46.0007 113.291 45.8745 114.378 45.8745ZM115.048 54.5536C113.437 54.6118 112.32 54.8933 111.699 55.3982C111.078 55.8836 110.767 56.5437 110.767 57.3786C110.767 58.1164 110.99 58.6504 111.437 58.9805C111.883 59.3106 112.456 59.4756 113.155 59.4756C114.223 59.4756 115.126 59.1746 115.864 58.5727C116.602 57.9514 116.97 57.0388 116.97 55.835V54.4953L115.048 54.5536ZM131.588 62.2424C130.093 62.2424 128.792 61.9609 127.685 61.3978C126.598 60.8153 125.753 59.9319 125.151 58.7475C124.569 57.5437 124.278 56.0098 124.278 54.1458C124.278 52.2042 124.598 50.6315 125.239 49.4276C125.899 48.2044 126.802 47.3113 127.947 46.7482C129.093 46.1657 130.403 45.8745 131.879 45.8745C132.869 45.8745 133.753 45.9715 134.529 46.1657C135.306 46.3599 135.966 46.5929 136.51 46.8647L135.432 49.748C134.83 49.515 134.228 49.3209 133.626 49.1655C133.025 48.9908 132.442 48.9034 131.879 48.9034C131.005 48.9034 130.277 49.0976 129.695 49.4859C129.132 49.8742 128.714 50.4567 128.442 51.2334C128.17 51.9906 128.035 52.9517 128.035 54.1167C128.035 55.2428 128.17 56.1845 128.442 56.9418C128.734 57.699 129.161 58.2718 129.724 58.6601C130.287 59.029 130.986 59.2135 131.821 59.2135C132.714 59.2135 133.5 59.1067 134.18 58.8931C134.859 58.6795 135.5 58.3883 136.102 58.0194V61.1939C135.5 61.5628 134.85 61.825 134.151 61.9803C133.471 62.155 132.617 62.2424 131.588 62.2424ZM152.062 48.9908H146.877V61.9512H143.237V48.9908H138.082V46.1657H152.062V48.9908ZM155.073 61.9512V46.1657H158.743V52.3983H161.568C163.102 52.3983 164.354 52.5731 165.325 52.9226C166.316 53.2527 167.044 53.7575 167.51 54.4371C167.995 55.1166 168.238 55.9709 168.238 57C168.238 58.0097 168.014 58.8834 167.568 59.6212C167.121 60.359 166.413 60.9318 165.442 61.3396C164.471 61.7473 163.199 61.9512 161.626 61.9512H155.073ZM161.393 59.3008C162.325 59.3008 163.092 59.1358 163.694 58.8057C164.296 58.4562 164.597 57.8835 164.597 57.0874C164.597 56.3301 164.316 55.8059 163.753 55.5147C163.209 55.2234 162.413 55.0778 161.364 55.0778H158.743V59.3008H161.393ZM170.655 61.9512V46.1657H174.325V61.9512H170.655Z" fill="white"/>
</g>
<defs>
<linearGradient id="paint0_linear_109_13864" x1="20.0953" y1="7.84094" x2="481.715" y2="134.285" gradientUnits="userSpaceOnUse">
<stop stop-color="#1D1043"/>
<stop offset="1" stop-color="#1D1043"/>
</linearGradient>
<clippath id="clip0_109_13864">
<rect y="0.137695" width="364.689" height="205.138" rx="25.3256" fill="white"/>
</clippath>
<clippath id="clip1_109_13864">
<rect width="120.522" height="120.522" fill="white" transform="translate(210.828 99.1309)"/>
</clippath>
</defs>
</svg>
