<svg xmlns="http://www.w3.org/2000/svg" width="32" height="32" viewBox="0 0 32 32" fill="none">
    <path d="M10.8549 9.48571C10.8549 12.5154 13.1574 14.9714 15.9978 14.9714C18.8381 14.9714 21.1406 12.5154 21.1406 9.48571C21.1406 6.45604 18.8381 4 15.9978 4" stroke="#F6A80B" stroke-width="2" stroke-linecap="round"/>
    <path d="M7 22.875C7 21.8321 7.64403 20.8976 8.61857 20.5263V20.5263C13.3729 18.7152 18.6271 18.7152 23.3814 20.5263V20.5263C24.356 20.8976 25 21.8321 25 22.875V24.8963C25 26.5291 23.5458 27.7785 21.9316 27.5325L21.4231 27.455C17.8285 26.9073 14.1715 26.9073 10.5769 27.455L10.0684 27.5325C8.45419 27.7785 7 26.5291 7 24.8963V22.875Z" stroke="#F6A80B" stroke-width="2"/>
</svg>