<svg width="361" height="225" viewBox="0 0 361 225" fill="none" xmlns="http://www.w3.org/2000/svg">
<rect width="361" height="225" rx="25" fill="url(#paint0_linear_109_13110)"/>
<g clip-path="url(#clip0_109_13110)">
<path d="M112.879 109.676V105.361H109.884C108.908 105.361 108.141 105.555 107.575 105.941C107.018 106.32 106.735 106.85 106.735 107.523C106.735 108.195 107.018 108.732 107.575 109.111C108.123 109.49 108.898 109.684 109.894 109.684H112.879V109.676ZM110.405 111.88L106.206 116.847H102.125L106.762 111.465C105.603 111.179 104.681 110.685 103.996 109.984C103.312 109.283 102.965 108.453 102.965 107.501C102.965 106.156 103.549 105.068 104.699 104.238C105.859 103.415 107.411 103 109.373 103H116.539V116.84H112.879V111.873H110.405V111.88ZM124.901 112.467H124.262V116.854H120.702V106.277H124.262V110.399H124.846L128.918 106.277H132.971L127.795 111.1L133.236 116.854H128.991L124.892 112.467H124.901ZM137.024 120.697C136.266 120.697 135.81 120.689 135.664 120.668V118.421C135.746 118.435 136.011 118.442 136.476 118.442C137.152 118.442 137.681 118.349 138.065 118.171C138.448 117.984 138.713 117.698 138.859 117.305L138.977 116.925L134.24 106.277H138.165L141.004 114.292H141.223L144.062 106.277H147.832L143.186 117.018C142.611 118.371 141.862 119.33 140.94 119.874C140.018 120.425 138.713 120.697 137.015 120.697H137.024ZM160.832 106.27V108.467H156.797V116.854H153.236V108.467H149.202V106.27H160.832ZM167.094 116.847H163.598V106.27H167.094V112.775H167.313L172.699 106.27H176.195V116.847H172.699V110.263H172.48L167.094 116.847ZM185.324 111.408H187.515V108.453H185.324C184.657 108.453 184.137 108.589 183.735 108.868C183.343 109.14 183.142 109.512 183.142 109.963C183.142 110.392 183.343 110.743 183.745 111.007C184.137 111.279 184.667 111.408 185.324 111.408ZM187.515 116.847V113.44H186.054L183.06 116.847H179.025L182.558 112.982C181.663 112.775 180.951 112.396 180.431 111.845C179.91 111.301 179.646 110.657 179.646 109.934C179.646 108.818 180.13 107.93 181.106 107.265C182.083 106.599 183.37 106.27 184.959 106.27H191.002V116.847H187.515Z" fill="white"/>
<path d="M213.072 107.551C213.072 105.87 213.656 104.5 214.833 103.449C216.011 102.399 217.545 101.878 219.425 101.878C221.306 101.878 222.73 102.353 223.88 103.303C225.03 104.253 225.596 105.477 225.596 106.975C225.596 107.925 225.295 108.875 224.702 109.816C224.108 110.757 223.058 111.936 221.552 113.352L218.211 116.54V116.759H225.852V119.792H213.263V117.243L218.96 111.662C220.183 110.465 221.004 109.57 221.415 108.976C221.826 108.373 222.036 107.798 222.036 107.222C222.036 106.519 221.78 105.943 221.269 105.495C220.758 105.048 220.101 104.819 219.307 104.819C218.458 104.819 217.773 105.075 217.243 105.578C216.714 106.08 216.449 106.738 216.449 107.542V107.615H213.062V107.551H213.072ZM237.18 119.783V116.732H228.645V113.498C230.005 110.922 232.306 107.204 235.546 102.316H240.658V113.69H242.941V116.732H240.658V119.783H237.171H237.18ZM231.922 113.617V113.809H237.272V105.167H237.08C235.218 107.953 233.502 110.766 231.931 113.617H231.922Z" fill="white"/>
<path fill-rule="evenodd" clip-rule="evenodd" d="M200.99 104.847L220.872 84.951C224.807 81.0137 231.233 81.0137 235.168 84.951L255.05 104.847C258.984 108.785 258.984 115.216 255.05 119.153L235.168 139.05C231.233 142.987 224.807 142.987 220.872 139.05L200.99 119.153C197.055 115.216 197.055 108.785 200.99 104.847ZM206.038 105.587L211.716 127.832C212.839 132.226 217.348 134.911 221.749 133.788L243.977 128.106C248.368 126.982 251.052 122.469 249.929 118.066L244.251 95.8219C243.128 91.4279 238.618 88.7421 234.218 89.8657L211.99 95.5478C207.599 96.6715 204.915 101.184 206.038 105.587Z" fill="white"/>
</g>
<defs>
<linearGradient id="paint0_linear_109_13110" x1="0" y1="0" x2="265.997" y2="307.248" gradientUnits="userSpaceOnUse">
<stop stop-color="#1D3557"/>
<stop offset="1" stop-color="#043F8A"/>
</linearGradient>
<clipPath id="clip0_109_13110">
<rect width="156" height="60" fill="white" transform="translate(102 82)"/>
</clipPath>
</defs>
</svg>
