<svg width="40" height="40" viewBox="0 0 40 40" fill="none" xmlns="http://www.w3.org/2000/svg">
<g id="youtube (1) 1" clip-path="url(#clip0_1_4695)">
<g id="02.YouTube">
<path id="Background" d="M20 40C31.0457 40 40 31.0457 40 20C40 8.95431 31.0457 0 20 0C8.95431 0 0 8.95431 0 20C0 31.0457 8.95431 40 20 40Z" fill="#FF0000"/>
<g id="Group">
<path id="Vector" d="M30.9981 14.5244C30.7324 13.5353 29.9499 12.7529 28.9608 12.4872C27.1746 12 19.9852 12 19.9852 12C19.9852 12 12.7959 12.0148 11.0096 12.5019C10.0205 12.7677 9.23813 13.5501 8.9724 14.5392C8.5 16.3254 8.5 20.0603 8.5 20.0603C8.5 20.0603 8.5 23.7952 8.98716 25.5963C9.25289 26.5854 10.0353 27.3678 11.0244 27.6335C12.8107 28.1207 20 28.1207 20 28.1207C20 28.1207 27.1893 28.1207 28.9756 27.6335C29.9647 27.3678 30.7471 26.5854 31.0128 25.5963C31.5 23.81 31.5 20.0603 31.5 20.0603C31.5 20.0603 31.4852 16.3254 30.9981 14.5244Z" fill="white"/>
<path id="Vector_2" d="M17.6953 23.5153L23.6594 20.0609L17.6953 16.6064V23.5153Z" fill="#FF0000"/>
</g>
</g>
</g>
<defs>
<clipPath id="clip0_1_4695">
<rect width="40" height="40" fill="white"/>
</clipPath>
</defs>
</svg>
